<svg xmlns="http://www.w3.org/2000/svg" xmlns:xlink="http://www.w3.org/1999/xlink" width="500" zoomAndPan="magnify" viewBox="0 0 375 374.999991" height="500" preserveAspectRatio="xMidYMid meet" version="1.0"><path stroke-linecap="butt" transform="matrix(0.75, 0, 0, 0.75, 118.094382, 49.825192)" fill="none" stroke-linejoin="miter" d="M -0.000843127 1.998703 L 159.999167 1.998703 " stroke="#ffffff" stroke-width="4" stroke-opacity="1" stroke-miterlimit="4"/><path fill="#042c3c" d="M 180.75 177.375 C 181.226562 177.75 181.734375 178.085938 182.265625 178.378906 C 182.800781 178.671875 183.351562 178.917969 183.925781 179.117188 C 184.5 179.316406 185.089844 179.464844 185.6875 179.566406 C 186.289062 179.667969 186.890625 179.71875 187.5 179.71875 C 188.109375 179.71875 188.710938 179.667969 189.3125 179.566406 C 189.910156 179.464844 190.5 179.316406 191.074219 179.117188 C 191.648438 178.917969 192.199219 178.671875 192.734375 178.378906 C 193.265625 178.085938 193.773438 177.75 194.25 177.375 L 247.625 135.25 L 257.75 127.375 L 117.375 127.375 L 129.25 136.75 Z M 180.75 177.375 " fill-opacity="1" fill-rule="nonzero"/><path fill="#042c3c" d="M 187.5 201.625 C 183.820312 201.617188 180.242188 201 176.769531 199.78125 C 173.296875 198.558594 170.125 196.796875 167.25 194.5 L 96.75 138.875 L 96.75 236.75 C 96.75 237.464844 96.820312 238.171875 96.960938 238.871094 C 97.101562 239.570312 97.304688 240.25 97.578125 240.910156 C 97.851562 241.570312 98.1875 242.195312 98.585938 242.789062 C 98.980469 243.382812 99.433594 243.933594 99.9375 244.4375 C 100.441406 244.941406 100.992188 245.394531 101.585938 245.789062 C 102.179688 246.1875 102.804688 246.523438 103.464844 246.796875 C 104.125 247.070312 104.804688 247.273438 105.503906 247.414062 C 106.203125 247.554688 106.910156 247.625 107.625 247.625 L 267.375 247.625 C 268.089844 247.625 268.796875 247.554688 269.496094 247.414062 C 270.195312 247.273438 270.875 247.070312 271.535156 246.796875 C 272.195312 246.523438 272.820312 246.1875 273.414062 245.789062 C 274.007812 245.394531 274.558594 244.941406 275.0625 244.4375 C 275.566406 243.933594 276.019531 243.382812 276.414062 242.789062 C 276.8125 242.195312 277.148438 241.570312 277.421875 240.910156 C 277.695312 240.25 277.898438 239.570312 278.039062 238.871094 C 278.179688 238.171875 278.25 237.464844 278.25 236.75 L 278.25 138.875 L 207.75 194.5 C 204.875 196.796875 201.703125 198.558594 198.230469 199.78125 C 194.757812 201 191.179688 201.617188 187.5 201.625 Z M 187.5 201.625 " fill-opacity="1" fill-rule="nonzero"/><path fill="#042c3c" d="M 187.5 0 C 184.429688 0 181.363281 0.0742188 178.300781 0.226562 C 175.234375 0.375 172.175781 0.601562 169.121094 0.902344 C 166.066406 1.203125 163.023438 1.578125 159.988281 2.03125 C 156.953125 2.480469 153.929688 3.003906 150.921875 3.601562 C 147.910156 4.203125 144.917969 4.875 141.941406 5.617188 C 138.964844 6.363281 136.007812 7.183594 133.070312 8.074219 C 130.136719 8.964844 127.222656 9.925781 124.332031 10.960938 C 121.445312 11.996094 118.582031 13.097656 115.746094 14.273438 C 112.910156 15.445312 110.105469 16.691406 107.332031 18.003906 C 104.558594 19.3125 101.820312 20.691406 99.113281 22.140625 C 96.40625 23.585938 93.738281 25.097656 91.105469 26.675781 C 88.472656 28.253906 85.882812 29.894531 83.332031 31.597656 C 80.777344 33.304688 78.269531 35.070312 75.804688 36.898438 C 73.339844 38.726562 70.921875 40.613281 68.550781 42.558594 C 66.179688 44.507812 63.855469 46.511719 61.582031 48.570312 C 59.308594 50.632812 57.085938 52.746094 54.917969 54.917969 C 52.746094 57.085938 50.632812 59.308594 48.570312 61.582031 C 46.511719 63.855469 44.507812 66.179688 42.558594 68.550781 C 40.613281 70.921875 38.726562 73.339844 36.898438 75.804688 C 35.070312 78.269531 33.304688 80.777344 31.597656 83.332031 C 29.894531 85.882812 28.253906 88.472656 26.675781 91.105469 C 25.097656 93.738281 23.585938 96.40625 22.140625 99.113281 C 20.691406 101.820312 19.3125 104.558594 18.003906 107.332031 C 16.691406 110.105469 15.445312 112.910156 14.273438 115.746094 C 13.097656 118.582031 11.996094 121.445312 10.960938 124.332031 C 9.925781 127.222656 8.964844 130.136719 8.074219 133.070312 C 7.183594 136.007812 6.363281 138.964844 5.621094 141.941406 C 4.875 144.917969 4.203125 147.910156 3.601562 150.921875 C 3.003906 153.929688 2.480469 156.953125 2.03125 159.988281 C 1.578125 163.023438 1.203125 166.066406 0.902344 169.121094 C 0.601562 172.175781 0.375 175.234375 0.226562 178.300781 C 0.0742188 181.363281 0 184.429688 0 187.5 C 0 190.570312 0.0742188 193.636719 0.226562 196.699219 C 0.375 199.765625 0.601562 202.824219 0.902344 205.878906 C 1.203125 208.933594 1.578125 211.976562 2.03125 215.011719 C 2.480469 218.046875 3.003906 221.070312 3.601562 224.078125 C 4.203125 227.089844 4.875 230.082031 5.621094 233.058594 C 6.363281 236.035156 7.183594 238.992188 8.074219 241.929688 C 8.964844 244.863281 9.925781 247.777344 10.960938 250.667969 C 11.996094 253.554688 13.097656 256.417969 14.273438 259.253906 C 15.445312 262.089844 16.691406 264.890625 18.003906 267.667969 C 19.3125 270.441406 20.691406 273.179688 22.140625 275.886719 C 23.585938 278.59375 25.097656 281.261719 26.675781 283.894531 C 28.253906 286.527344 29.894531 289.117188 31.597656 291.667969 C 33.304688 294.222656 35.070312 296.730469 36.898438 299.195312 C 38.726562 301.660156 40.613281 304.078125 42.558594 306.449219 C 44.507812 308.820312 46.511719 311.144531 48.570312 313.417969 C 50.632812 315.691406 52.746094 317.914062 54.917969 320.082031 C 57.085938 322.253906 59.308594 324.367188 61.582031 326.429688 C 63.855469 328.488281 66.179688 330.492188 68.550781 332.4375 C 70.921875 334.386719 73.339844 336.273438 75.804688 338.101562 C 78.269531 339.929688 80.777344 341.695312 83.332031 343.402344 C 85.882812 345.105469 88.472656 346.746094 91.105469 348.324219 C 93.738281 349.902344 96.40625 351.414062 99.113281 352.859375 C 101.820312 354.308594 104.558594 355.6875 107.332031 356.996094 C 110.105469 358.308594 112.910156 359.554688 115.746094 360.726562 C 118.582031 361.902344 121.445312 363.003906 124.332031 364.039062 C 127.222656 365.074219 130.136719 366.035156 133.070312 366.925781 C 136.007812 367.816406 138.964844 368.636719 141.941406 369.378906 C 144.917969 370.125 147.910156 370.796875 150.921875 371.398438 C 153.929688 371.996094 156.953125 372.519531 159.988281 372.96875 C 163.023438 373.421875 166.066406 373.796875 169.121094 374.097656 C 172.175781 374.398438 175.234375 374.625 178.300781 374.773438 C 181.363281 374.925781 184.429688 375 187.5 375 C 190.570312 375 193.636719 374.925781 196.699219 374.773438 C 199.765625 374.625 202.824219 374.398438 205.878906 374.097656 C 208.933594 373.796875 211.976562 373.421875 215.011719 372.96875 C 218.046875 372.519531 221.070312 371.996094 224.078125 371.398438 C 227.089844 370.796875 230.082031 370.125 233.058594 369.378906 C 236.035156 368.636719 238.992188 367.816406 241.929688 366.925781 C 244.863281 366.035156 247.777344 365.074219 250.667969 364.039062 C 253.554688 363.003906 256.417969 361.902344 259.253906 360.726562 C 262.089844 359.554688 264.890625 358.308594 267.667969 356.996094 C 270.441406 355.6875 273.179688 354.308594 275.886719 352.859375 C 278.59375 351.414062 281.261719 349.902344 283.894531 348.324219 C 286.527344 346.746094 289.117188 345.105469 291.667969 343.402344 C 294.222656 341.695312 296.730469 339.929688 299.195312 338.101562 C 301.660156 336.273438 304.078125 334.386719 306.449219 332.4375 C 308.820312 330.492188 311.144531 328.488281 313.417969 326.429688 C 315.691406 324.367188 317.914062 322.253906 320.082031 320.082031 C 322.253906 317.914062 324.367188 315.691406 326.429688 313.417969 C 328.488281 311.144531 330.492188 308.820312 332.4375 306.449219 C 334.386719 304.078125 336.273438 301.660156 338.101562 299.195312 C 339.929688 296.730469 341.695312 294.222656 343.402344 291.667969 C 345.105469 289.117188 346.746094 286.527344 348.324219 283.894531 C 349.902344 281.261719 351.414062 278.59375 352.859375 275.886719 C 354.308594 273.179688 355.6875 270.441406 356.996094 267.667969 C 358.308594 264.890625 359.554688 262.089844 360.726562 259.253906 C 361.902344 256.417969 363.003906 253.554688 364.039062 250.667969 C 365.074219 247.777344 366.035156 244.863281 366.925781 241.929688 C 367.816406 238.992188 368.636719 236.035156 369.378906 233.058594 C 370.125 230.082031 370.796875 227.089844 371.398438 224.078125 C 371.996094 221.070312 372.519531 218.046875 372.96875 215.011719 C 373.421875 211.976562 373.796875 208.933594 374.097656 205.878906 C 374.398438 202.824219 374.625 199.765625 374.773438 196.699219 C 374.925781 193.636719 375 190.570312 375 187.5 C 375 184.433594 374.921875 181.367188 374.769531 178.300781 C 374.621094 175.234375 374.394531 172.175781 374.089844 169.125 C 373.789062 166.070312 373.414062 163.027344 372.960938 159.992188 C 372.511719 156.957031 371.984375 153.933594 371.386719 150.925781 C 370.785156 147.917969 370.113281 144.921875 369.367188 141.949219 C 368.621094 138.972656 367.800781 136.015625 366.910156 133.078125 C 366.019531 130.144531 365.058594 127.230469 364.023438 124.34375 C 362.988281 121.453125 361.882812 118.59375 360.710938 115.757812 C 359.535156 112.921875 358.292969 110.117188 356.980469 107.34375 C 355.667969 104.570312 354.285156 101.832031 352.839844 99.125 C 351.394531 96.421875 349.882812 93.753906 348.304688 91.121094 C 346.726562 88.488281 345.085938 85.898438 343.378906 83.347656 C 341.675781 80.796875 339.910156 78.289062 338.082031 75.824219 C 336.253906 73.359375 334.367188 70.941406 332.417969 68.570312 C 330.472656 66.199219 328.46875 63.875 326.40625 61.601562 C 324.347656 59.328125 322.230469 57.105469 320.0625 54.9375 C 317.894531 52.769531 315.671875 50.652344 313.398438 48.59375 C 311.125 46.53125 308.800781 44.527344 306.429688 42.582031 C 304.058594 40.632812 301.640625 38.746094 299.175781 36.917969 C 296.710938 35.089844 294.203125 33.324219 291.652344 31.621094 C 289.101562 29.914062 286.511719 28.273438 283.878906 26.695312 C 281.246094 25.117188 278.578125 23.605469 275.875 22.160156 C 273.167969 20.714844 270.429688 19.332031 267.65625 18.019531 C 264.882812 16.707031 262.078125 15.464844 259.242188 14.289062 C 256.40625 13.117188 253.546875 12.011719 250.65625 10.976562 C 247.769531 9.941406 244.855469 8.980469 241.921875 8.089844 C 238.984375 7.199219 236.027344 6.378906 233.050781 5.632812 C 230.078125 4.886719 227.082031 4.214844 224.074219 3.613281 C 221.066406 3.015625 218.042969 2.488281 215.007812 2.039062 C 211.972656 1.585938 208.929688 1.210938 205.875 0.910156 C 202.824219 0.605469 199.765625 0.378906 196.699219 0.230469 C 193.632812 0.078125 190.566406 0 187.5 0 Z M 300 236.75 C 300 237.820312 299.949219 238.886719 299.84375 239.953125 C 299.738281 241.015625 299.582031 242.074219 299.371094 243.125 C 299.164062 244.171875 298.90625 245.210938 298.59375 246.234375 C 298.285156 247.257812 297.925781 248.265625 297.519531 249.253906 C 297.109375 250.242188 296.652344 251.207031 296.148438 252.152344 C 295.648438 253.097656 295.097656 254.015625 294.503906 254.90625 C 293.910156 255.796875 293.277344 256.65625 292.597656 257.484375 C 291.921875 258.3125 291.207031 259.105469 290.449219 259.863281 C 289.695312 260.621094 288.90625 261.339844 288.078125 262.019531 C 287.253906 262.699219 286.398438 263.339844 285.507812 263.9375 C 284.621094 264.53125 283.707031 265.085938 282.761719 265.589844 C 281.820312 266.097656 280.855469 266.558594 279.867188 266.96875 C 278.882812 267.382812 277.875 267.746094 276.851562 268.058594 C 275.832031 268.375 274.792969 268.636719 273.746094 268.847656 C 272.699219 269.0625 271.640625 269.222656 270.578125 269.332031 C 269.511719 269.4375 268.445312 269.496094 267.375 269.5 L 107.625 269.5 C 106.554688 269.496094 105.488281 269.4375 104.421875 269.332031 C 103.359375 269.222656 102.300781 269.0625 101.253906 268.847656 C 100.207031 268.636719 99.167969 268.375 98.148438 268.058594 C 97.125 267.746094 96.117188 267.382812 95.132812 266.96875 C 94.144531 266.558594 93.179688 266.097656 92.238281 265.589844 C 91.292969 265.085938 90.378906 264.53125 89.492188 263.9375 C 88.601562 263.339844 87.746094 262.699219 86.921875 262.019531 C 86.09375 261.339844 85.304688 260.621094 84.550781 259.863281 C 83.792969 259.105469 83.078125 258.3125 82.402344 257.484375 C 81.722656 256.65625 81.089844 255.796875 80.496094 254.90625 C 79.902344 254.015625 79.351562 253.097656 78.851562 252.152344 C 78.347656 251.207031 77.890625 250.242188 77.480469 249.253906 C 77.074219 248.265625 76.714844 247.257812 76.40625 246.234375 C 76.09375 245.210938 75.835938 244.171875 75.628906 243.125 C 75.417969 242.074219 75.261719 241.015625 75.15625 239.953125 C 75.050781 238.886719 75 237.820312 75 236.75 L 75 138.25 C 75 137.179688 75.050781 136.113281 75.15625 135.046875 C 75.261719 133.984375 75.417969 132.925781 75.628906 131.875 C 75.835938 130.828125 76.09375 129.789062 76.40625 128.765625 C 76.714844 127.742188 77.074219 126.734375 77.480469 125.746094 C 77.890625 124.757812 78.347656 123.792969 78.851562 122.847656 C 79.351562 121.902344 79.902344 120.984375 80.496094 120.09375 C 81.089844 119.203125 81.722656 118.34375 82.402344 117.515625 C 83.078125 116.6875 83.792969 115.894531 84.550781 115.136719 C 85.304688 114.378906 86.09375 113.660156 86.921875 112.980469 C 87.746094 112.300781 88.601562 111.660156 89.492188 111.0625 C 90.378906 110.46875 91.292969 109.914062 92.238281 109.410156 C 93.179688 108.902344 94.144531 108.441406 95.132812 108.03125 C 96.117188 107.617188 97.125 107.253906 98.148438 106.941406 C 99.167969 106.625 100.207031 106.363281 101.253906 106.152344 C 102.300781 105.9375 103.359375 105.777344 104.421875 105.667969 C 105.488281 105.5625 106.554688 105.503906 107.625 105.5 L 267.375 105.5 C 268.445312 105.503906 269.511719 105.5625 270.578125 105.667969 C 271.640625 105.777344 272.699219 105.9375 273.746094 106.152344 C 274.792969 106.363281 275.832031 106.625 276.851562 106.941406 C 277.875 107.253906 278.882812 107.617188 279.867188 108.03125 C 280.855469 108.441406 281.820312 108.902344 282.761719 109.410156 C 283.707031 109.914062 284.621094 110.46875 285.507812 111.0625 C 286.398438 111.660156 287.253906 112.300781 288.078125 112.980469 C 288.90625 113.660156 289.695312 114.378906 290.449219 115.136719 C 291.207031 115.894531 291.921875 116.6875 292.597656 117.515625 C 293.277344 118.34375 293.910156 119.203125 294.503906 120.09375 C 295.097656 120.984375 295.648438 121.902344 296.148438 122.847656 C 296.652344 123.792969 297.109375 124.757812 297.519531 125.746094 C 297.925781 126.734375 298.285156 127.742188 298.59375 128.765625 C 298.90625 129.789062 299.164062 130.828125 299.371094 131.875 C 299.582031 132.925781 299.738281 133.984375 299.84375 135.046875 C 299.949219 136.113281 300 137.179688 300 138.25 Z M 300 236.75 " fill-opacity="1" fill-rule="nonzero"/></svg>