<svg xmlns="http://www.w3.org/2000/svg" xmlns:xlink="http://www.w3.org/1999/xlink" width="500" zoomAndPan="magnify" viewBox="0 0 375 374.999991" height="500" preserveAspectRatio="xMidYMid meet" version="1.0"><path fill="#b0b8c5" d="M 258.734375 283.898438 C 258.734375 256.703125 232.5 234.65625 200.136719 234.65625 C 167.773438 234.65625 146.996094 272.933594 130.007812 298.601562 C 130.007812 325.796875 167.773438 333.136719 200.136719 333.136719 C 232.5 333.136719 258.734375 311.09375 258.734375 283.898438 Z M 258.734375 283.898438 " fill-opacity="1" fill-rule="nonzero"/><path fill="#b0b8c5" d="M 77.84375 69.472656 C 89.246094 54.644531 134.171875 73.027344 154.097656 82.183594 C 163.011719 79.476562 174.6875 77.320312 188.152344 75.617188 C 201.609375 73.796875 213.445312 72.878906 222.757812 73.203125 C 239.65625 59.21875 278.332031 29.914062 293.164062 41.304688 C 307.894531 52.617188 297.703125 90.292969 292.152344 107.214844 C 303.179688 121.28125 308.664062 137.542969 310.546875 151.921875 C 312.175781 164.351562 312.320312 176.964844 310.96875 189.769531 C 308.324219 214.765625 291.589844 235.882812 267.800781 244.027344 C 249.425781 250.3125 230.804688 254.6875 211.929688 257.15625 C 193.058594 259.625 173.9375 260.1875 154.566406 258.84375 C 129.480469 257.09375 107.871094 240.992188 98.875 217.519531 C 94.269531 205.492188 91.160156 193.269531 89.535156 180.835938 C 87.652344 166.460938 88.761719 149.339844 95.789062 132.917969 C 86.089844 118.007812 66.519531 84.199219 77.84375 69.472656 Z M 77.84375 69.472656 " fill-opacity="1" fill-rule="nonzero"/><path fill="#90a1b4" d="M 203.761719 75.726562 C 206.457031 96.289062 214.617188 112.195312 221.996094 111.226562 C 229.089844 110.300781 232.890625 94.015625 230.742188 74.421875 C 225.996094 73.824219 221.140625 73.597656 216.21875 73.742188 C 212.003906 73.878906 207.796875 74.089844 203.605469 74.414062 C 203.648438 74.859375 203.703125 75.285156 203.761719 75.726562 Z M 203.761719 75.726562 " fill-opacity="1" fill-rule="nonzero"/><path fill="#ffffff" d="M 281.949219 74.96875 C 281.949219 74.96875 284.710938 79.511719 285.765625 84.871094 C 286.75 89.824219 284.238281 94.03125 280.503906 96.136719 C 270.996094 87.8125 259.773438 81.460938 247.53125 77.628906 C 247.285156 74.90625 248.074219 72.09375 250.019531 69.804688 C 257.824219 60.59375 268.9375 50.308594 278.070312 52.703125 C 293.980469 56.886719 281.949219 74.96875 281.949219 74.96875 Z M 281.949219 74.96875 " fill-opacity="1" fill-rule="nonzero"/><path fill="#67818d" d="M 172.996094 263.542969 C 172.984375 263.542969 172.976562 263.542969 172.964844 263.542969 C 166.796875 263.503906 160.511719 263.261719 154.289062 262.832031 C 127.863281 260.988281 104.648438 243.761719 95.140625 218.949219 C 90.453125 206.703125 87.230469 194.054688 85.566406 181.355469 C 83.660156 166.785156 83.367188 138.519531 102.84375 112.917969 C 104.179688 111.160156 106.691406 110.820312 108.449219 112.15625 C 110.207031 113.492188 110.550781 116 109.210938 117.757812 C 91.46875 141.082031 91.753906 166.964844 93.5 180.316406 C 95.082031 192.398438 98.148438 204.433594 102.613281 216.089844 C 111.011719 238.011719 131.511719 253.226562 154.84375 254.855469 C 160.902344 255.273438 167.019531 255.507812 173.019531 255.550781 C 175.230469 255.5625 177.007812 257.367188 176.992188 259.574219 C 176.980469 261.773438 175.191406 263.542969 172.996094 263.542969 Z M 172.996094 263.542969 " fill-opacity="1" fill-rule="nonzero"/><path fill="#67818d" d="M 314.515625 151.402344 C 313.105469 140.648438 308.917969 122.917969 296.609375 106.433594 C 303.355469 85.246094 311.363281 50.230469 295.605469 38.128906 C 280.101562 26.21875 246.925781 48.183594 221.367188 69.171875 C 212.453125 68.996094 201.171875 69.820312 187.652344 71.652344 C 168.445312 74.078125 154.105469 77.289062 145.023438 81.195312 C 139.398438 83.621094 134.066406 86.382812 129.179688 89.394531 C 127.300781 90.554688 126.71875 93.019531 127.878906 94.898438 C 128.632812 96.121094 129.945312 96.796875 131.285156 96.796875 C 132.003906 96.796875 132.730469 96.605469 133.382812 96.203125 C 137.941406 93.390625 142.921875 90.8125 148.191406 88.539062 C 156.578125 84.929688 170.191406 81.914062 188.6875 79.578125 C 207.128906 77.082031 221.058594 76.492188 230.089844 77.824219 C 235.769531 78.664062 241.25 79.875 246.378906 81.417969 C 248.492188 82.054688 250.726562 80.855469 251.363281 78.742188 C 252 76.628906 250.800781 74.398438 248.683594 73.761719 C 243.6875 72.257812 238.378906 71.066406 232.894531 70.183594 C 260.996094 48.191406 282.808594 38.382812 290.730469 44.46875 C 298.972656 50.796875 298.808594 70.996094 290.488281 99.109375 C 287.445312 95.851562 284.035156 92.695312 280.195312 89.71875 C 278.449219 88.363281 275.9375 88.679688 274.582031 90.421875 C 273.226562 92.167969 273.542969 94.679688 275.285156 96.035156 C 298.441406 114.003906 304.832031 139.089844 306.582031 152.441406 C 308.164062 164.519531 308.300781 176.941406 306.988281 189.351562 C 304.519531 212.695312 288.628906 232.671875 266.503906 240.246094 C 253.347656 244.746094 239.871094 248.296875 226.449219 250.804688 C 224.277344 251.210938 222.847656 253.300781 223.253906 255.46875 C 223.613281 257.390625 225.292969 258.734375 227.179688 258.734375 C 227.425781 258.734375 227.671875 258.710938 227.921875 258.664062 C 241.722656 256.085938 255.574219 252.4375 269.09375 247.8125 C 294.152344 239.234375 312.152344 216.617188 314.945312 190.191406 C 316.324219 177.15625 316.179688 164.105469 314.515625 151.402344 Z M 314.515625 151.402344 " fill-opacity="1" fill-rule="nonzero"/><path fill="#605c5d" d="M 166.632812 178.761719 C 166.753906 179.703125 166.796875 180.644531 166.757812 181.585938 C 166.71875 182.527344 166.601562 183.453125 166.40625 184.363281 C 166.207031 185.273438 165.933594 186.148438 165.582031 186.988281 C 165.234375 187.828125 164.816406 188.621094 164.328125 189.359375 C 163.835938 190.101562 163.289062 190.773438 162.679688 191.386719 C 162.074219 191.996094 161.417969 192.53125 160.710938 192.988281 C 160.007812 193.449219 159.265625 193.820312 158.492188 194.109375 C 157.71875 194.394531 156.925781 194.59375 156.109375 194.699219 C 155.296875 194.804688 154.476562 194.820312 153.65625 194.742188 C 152.832031 194.660156 152.023438 194.492188 151.222656 194.230469 C 150.425781 193.96875 149.652344 193.621094 148.90625 193.1875 C 148.160156 192.753906 147.457031 192.242188 146.796875 191.652344 C 146.132812 191.0625 145.523438 190.40625 144.96875 189.6875 C 144.414062 188.964844 143.925781 188.1875 143.5 187.359375 C 143.074219 186.53125 142.722656 185.667969 142.441406 184.765625 C 142.164062 183.867188 141.960938 182.945312 141.839844 182.003906 C 141.714844 181.066406 141.671875 180.125 141.710938 179.179688 C 141.75 178.238281 141.867188 177.3125 142.066406 176.402344 C 142.261719 175.496094 142.535156 174.621094 142.886719 173.777344 C 143.234375 172.9375 143.65625 172.148438 144.144531 171.40625 C 144.632812 170.667969 145.179688 169.992188 145.789062 169.382812 C 146.398438 168.769531 147.054688 168.234375 147.757812 167.777344 C 148.464844 167.320312 149.203125 166.945312 149.976562 166.660156 C 150.75 166.371094 151.546875 166.175781 152.359375 166.066406 C 153.171875 165.960938 153.992188 165.945312 154.8125 166.027344 C 155.636719 166.105469 156.445312 166.273438 157.246094 166.535156 C 158.046875 166.796875 158.816406 167.144531 159.5625 167.578125 C 160.308594 168.011719 161.011719 168.523438 161.675781 169.113281 C 162.335938 169.703125 162.945312 170.359375 163.5 171.082031 C 164.054688 171.804688 164.542969 172.578125 164.96875 173.40625 C 165.394531 174.234375 165.746094 175.097656 166.027344 176 C 166.304688 176.902344 166.507812 177.820312 166.632812 178.761719 Z M 166.632812 178.761719 " fill-opacity="1" fill-rule="nonzero"/><path fill="#605c5d" d="M 235.511719 169.757812 C 234.476562 161.851562 239.1875 154.714844 246.03125 153.820312 C 252.878906 152.921875 259.269531 158.605469 260.304688 166.515625 C 261.339844 174.421875 256.628906 181.558594 249.78125 182.453125 C 242.9375 183.347656 236.546875 177.664062 235.511719 169.757812 Z M 235.511719 169.757812 " fill-opacity="1" fill-rule="nonzero"/><path fill="#90a1b4" d="M 125.472656 208.378906 C 123.492188 208.378906 121.773438 206.914062 121.511719 204.898438 C 121.222656 202.710938 122.769531 200.703125 124.957031 200.414062 L 144.546875 197.851562 C 146.738281 197.5625 148.746094 199.109375 149.03125 201.296875 C 149.320312 203.488281 147.773438 205.496094 145.585938 205.78125 L 125.996094 208.34375 C 125.820312 208.367188 125.644531 208.378906 125.472656 208.378906 Z M 125.472656 208.378906 " fill-opacity="1" fill-rule="nonzero"/><path fill="#90a1b4" d="M 131.453125 226.300781 C 130.015625 226.300781 128.625 225.527344 127.90625 224.167969 C 126.878906 222.214844 127.628906 219.796875 129.582031 218.765625 L 144.832031 210.738281 C 146.789062 209.707031 149.207031 210.457031 150.234375 212.410156 C 151.265625 214.363281 150.515625 216.78125 148.5625 217.8125 L 133.3125 225.839844 C 132.71875 226.15625 132.078125 226.300781 131.453125 226.300781 Z M 131.453125 226.300781 " fill-opacity="1" fill-rule="nonzero"/><path fill="#90a1b4" d="M 262.289062 190.480469 C 260.308594 190.480469 258.589844 189.011719 258.324219 187 C 258.039062 184.8125 259.582031 182.804688 261.773438 182.515625 L 281.359375 179.953125 C 283.550781 179.667969 285.558594 181.210938 285.847656 183.398438 C 286.132812 185.589844 284.589844 187.597656 282.398438 187.882812 L 262.8125 190.445312 C 262.636719 190.46875 262.460938 190.480469 262.289062 190.480469 Z M 262.289062 190.480469 " fill-opacity="1" fill-rule="nonzero"/><path fill="#90a1b4" d="M 280.730469 206.773438 C 280.4375 206.773438 280.136719 206.738281 279.835938 206.671875 L 263.035156 202.835938 C 260.878906 202.34375 259.53125 200.199219 260.023438 198.046875 C 260.515625 195.894531 262.65625 194.546875 264.816406 195.039062 L 281.617188 198.875 C 283.773438 199.367188 285.121094 201.511719 284.628906 203.664062 C 284.203125 205.515625 282.554688 206.773438 280.730469 206.773438 Z M 280.730469 206.773438 " fill-opacity="1" fill-rule="nonzero"/><path fill="#ffffff" d="M 158.742188 157.621094 C 156.761719 157.621094 155.042969 156.152344 154.78125 154.140625 C 154.492188 151.949219 156.035156 149.941406 158.226562 149.65625 L 168.503906 148.3125 C 170.695312 148.023438 172.703125 149.570312 172.988281 151.757812 C 173.277344 153.949219 171.730469 155.957031 169.542969 156.242188 L 159.265625 157.585938 C 159.089844 157.609375 158.914062 157.621094 158.742188 157.621094 Z M 158.742188 157.621094 " fill-opacity="1" fill-rule="nonzero"/><path fill="#ffffff" d="M 226.378906 148.769531 C 224.402344 148.769531 222.679688 147.304688 222.417969 145.292969 C 222.132812 143.101562 223.675781 141.09375 225.867188 140.808594 L 236.140625 139.464844 C 238.332031 139.175781 240.339844 140.71875 240.628906 142.910156 C 240.914062 145.097656 239.371094 147.105469 237.179688 147.394531 L 226.902344 148.738281 C 226.726562 148.761719 226.550781 148.769531 226.378906 148.769531 Z M 226.378906 148.769531 " fill-opacity="1" fill-rule="nonzero"/><path fill="#67818d" d="M 183.347656 194.789062 C 183.921875 199.183594 187.183594 202.769531 191.851562 204.863281 C 195.632812 206.535156 200.34375 207.25 205.308594 206.597656 C 215.007812 205.328125 222.429688 199.332031 223.464844 192.523438 C 223.609375 191.550781 223.621094 190.535156 223.488281 189.539062 C 222.445312 181.570312 213.246094 181.125 202.164062 182.574219 C 191.078125 184.023438 182.304688 186.820312 183.347656 194.789062 Z M 183.347656 194.789062 " fill-opacity="1" fill-rule="nonzero"/><path fill="#fc80a5" d="M 191.851562 204.863281 C 195.632812 206.535156 200.34375 207.25 205.308594 206.597656 C 215.007812 205.328125 222.429688 199.332031 223.464844 192.523438 C 219.683594 190.851562 214.972656 190.136719 210.003906 190.785156 C 200.308594 192.054688 192.882812 198.050781 191.851562 204.863281 Z M 191.851562 204.863281 " fill-opacity="1" fill-rule="nonzero"/><path fill="#67818d" d="M 227.453125 189.023438 C 226.960938 185.261719 224.839844 180.410156 217.535156 178.636719 C 214.457031 177.890625 210.605469 177.734375 205.613281 178.171875 L 205.050781 173.882812 L 206.59375 173.679688 C 208.785156 173.394531 210.328125 171.386719 210.039062 169.195312 C 209.753906 167.007812 207.746094 165.460938 205.554688 165.75 L 194.550781 167.191406 C 192.363281 167.476562 190.816406 169.484375 191.105469 171.675781 C 191.367188 173.6875 193.085938 175.152344 195.066406 175.152344 C 195.238281 175.152344 195.414062 175.144531 195.589844 175.117188 L 197.117188 174.917969 L 197.675781 179.1875 C 189.875 180.515625 177.898438 183.96875 179.382812 195.308594 C 180.0625 200.476562 183.359375 204.894531 188.667969 207.753906 C 192.445312 209.785156 196.949219 210.84375 201.65625 210.84375 C 203.035156 210.84375 204.429688 210.753906 205.828125 210.570312 C 212.011719 209.761719 217.644531 207.226562 221.683594 203.433594 C 226.082031 199.308594 228.128906 194.1875 227.453125 189.023438 Z M 216.207031 197.605469 C 213.378906 200.257812 209.328125 202.046875 204.792969 202.640625 C 200.253906 203.234375 195.878906 202.550781 192.464844 200.714844 C 189.480469 199.105469 187.652344 196.820312 187.320312 194.273438 C 187.097656 192.589844 186.585938 188.65625 202.621094 186.546875 C 202.636719 186.542969 202.65625 186.542969 202.675781 186.542969 C 202.699219 186.539062 202.722656 186.53125 202.746094 186.527344 C 205.84375 186.125 208.480469 185.921875 210.695312 185.921875 C 212.675781 185.921875 214.316406 186.085938 215.644531 186.40625 C 218.882812 187.195312 219.34375 188.703125 219.519531 190.058594 C 219.855469 192.609375 218.675781 195.285156 216.207031 197.605469 Z M 216.207031 197.605469 " fill-opacity="1" fill-rule="nonzero"/><path fill="#777677" d="M 201.460938 73.84375 C 202.183594 74.898438 202.8125 76.011719 203.351562 77.183594 C 203.890625 78.355469 204.335938 79.578125 204.6875 80.855469 C 205.039062 82.128906 205.296875 83.453125 205.460938 84.820312 C 205.625 86.1875 205.691406 87.597656 205.664062 89.042969 C 205.636719 90.492188 205.511719 91.96875 205.292969 93.484375 C 205.074219 94.996094 204.761719 96.53125 204.355469 98.09375 C 203.949219 99.660156 203.449219 101.238281 202.855469 102.835938 C 202.261719 104.4375 201.582031 106.042969 200.808594 107.664062 C 200.039062 109.28125 199.179688 110.902344 198.238281 112.523438 C 197.296875 114.148438 196.269531 115.765625 195.164062 117.378906 C 194.058594 118.988281 192.878906 120.585938 191.621094 122.171875 C 190.363281 123.757812 189.035156 125.324219 187.636719 126.867188 C 186.238281 128.410156 184.777344 129.925781 183.253906 131.410156 C 181.730469 132.898438 180.152344 134.347656 178.515625 135.765625 C 176.878906 137.179688 175.199219 138.554688 173.464844 139.882812 C 171.734375 141.214844 169.964844 142.496094 168.152344 143.730469 C 166.339844 144.964844 164.5 146.140625 162.628906 147.265625 C 160.753906 148.390625 158.859375 149.453125 156.945312 150.457031 C 155.027344 151.460938 153.097656 152.398438 151.15625 153.273438 C 149.214844 154.148438 147.269531 154.953125 145.320312 155.6875 C 143.375 156.421875 141.429688 157.085938 139.496094 157.675781 C 137.558594 158.265625 135.636719 158.78125 133.730469 159.21875 C 131.828125 159.660156 129.945312 160.019531 128.089844 160.304688 C 126.234375 160.585938 124.410156 160.792969 122.621094 160.917969 C 120.832031 161.042969 119.085938 161.089844 117.378906 161.054688 C 115.675781 161.023438 114.019531 160.910156 112.414062 160.71875 C 110.808594 160.523438 109.261719 160.253906 107.773438 159.902344 C 106.285156 159.554688 104.863281 159.128906 103.503906 158.625 C 102.148438 158.121094 100.863281 157.542969 99.648438 156.890625 C 98.433594 156.238281 97.296875 155.515625 96.238281 154.722656 C 95.175781 153.925781 94.199219 153.066406 93.308594 152.136719 C 92.414062 151.207031 91.605469 150.210938 90.886719 149.15625 C 90.167969 148.101562 89.539062 146.988281 89 145.816406 C 88.460938 144.644531 88.015625 143.421875 87.660156 142.144531 C 87.308594 140.871094 87.050781 139.546875 86.886719 138.179688 C 86.722656 136.8125 86.65625 135.402344 86.683594 133.957031 C 86.710938 132.507812 86.835938 131.03125 87.054688 129.519531 C 87.273438 128.003906 87.585938 126.46875 87.992188 124.90625 C 88.402344 123.34375 88.902344 121.761719 89.492188 120.164062 C 90.085938 118.566406 90.769531 116.957031 91.539062 115.335938 C 92.3125 113.71875 93.167969 112.097656 94.109375 110.476562 C 95.054688 108.851562 96.078125 107.234375 97.183594 105.625 C 98.289062 104.011719 99.472656 102.414062 100.730469 100.828125 C 101.988281 99.242188 103.3125 97.675781 104.710938 96.132812 C 106.109375 94.589844 107.570312 93.074219 109.09375 91.589844 C 110.617188 90.101562 112.195312 88.652344 113.832031 87.234375 C 115.46875 85.820312 117.152344 84.449219 118.882812 83.117188 C 120.613281 81.785156 122.386719 80.503906 124.195312 79.269531 C 126.007812 78.035156 127.847656 76.859375 129.722656 75.734375 C 131.59375 74.609375 133.488281 73.546875 135.40625 72.542969 C 137.320312 71.539062 139.25 70.601562 141.191406 69.726562 C 143.132812 68.851562 145.078125 68.046875 147.027344 67.3125 C 148.976562 66.578125 150.917969 65.914062 152.855469 65.324219 C 154.789062 64.734375 156.710938 64.21875 158.617188 63.78125 C 160.523438 63.339844 162.402344 62.980469 164.257812 62.695312 C 166.117188 62.414062 167.9375 62.207031 169.726562 62.082031 C 171.519531 61.957031 173.265625 61.910156 174.96875 61.945312 C 176.675781 61.976562 178.328125 62.089844 179.933594 62.285156 C 181.539062 62.476562 183.085938 62.746094 184.574219 63.097656 C 186.0625 63.445312 187.484375 63.871094 188.84375 64.375 C 190.203125 64.878906 191.488281 65.457031 192.703125 66.109375 C 193.917969 66.761719 195.054688 67.484375 196.113281 68.277344 C 197.171875 69.074219 198.148438 69.9375 199.042969 70.867188 C 199.9375 71.792969 200.742188 72.789062 201.460938 73.84375 Z M 201.460938 73.84375 " fill-opacity="1" fill-rule="nonzero"/><path fill="#605c5d" d="M 118.363281 165.066406 C 104.464844 165.066406 93.632812 160.296875 87.574219 151.40625 C 80.867188 141.574219 80.992188 128.15625 87.921875 113.617188 C 94.511719 99.789062 106.589844 86.421875 121.933594 75.96875 C 137.277344 65.519531 154.148438 59.171875 169.4375 58.101562 C 185.503906 56.972656 198.050781 61.765625 204.753906 71.597656 C 211.460938 81.429688 211.335938 94.847656 204.40625 109.386719 C 197.816406 123.214844 185.738281 136.582031 170.394531 147.035156 C 155.050781 157.484375 138.179688 163.832031 122.890625 164.90625 C 121.347656 165.011719 119.839844 165.066406 118.363281 165.066406 Z M 173.96875 65.933594 C 172.679688 65.933594 171.355469 65.980469 169.996094 66.078125 C 156.101562 67.054688 140.628906 72.914062 126.441406 82.578125 C 112.25 92.242188 101.136719 104.488281 95.144531 117.058594 C 89.488281 128.917969 89.148438 139.519531 94.183594 146.902344 C 99.21875 154.289062 109.214844 157.847656 122.328125 156.925781 C 136.226562 155.949219 151.695312 150.089844 165.886719 140.425781 C 180.078125 130.761719 191.191406 118.515625 197.183594 105.945312 C 202.835938 94.082031 203.175781 83.484375 198.140625 76.097656 C 193.628906 69.480469 185.128906 65.933594 173.96875 65.933594 Z M 173.96875 65.933594 " fill-opacity="1" fill-rule="nonzero"/><path fill="#ffff9c" d="M 199 57.429688 C 199.640625 58.371094 200.179688 59.375 200.621094 60.441406 C 201.0625 61.511719 201.402344 62.640625 201.636719 63.828125 C 201.875 65.015625 202.007812 66.253906 202.039062 67.550781 C 202.070312 68.847656 201.996094 70.1875 201.820312 71.578125 C 201.644531 72.96875 201.367188 74.402344 200.984375 75.871094 C 200.605469 77.34375 200.121094 78.851562 199.539062 80.390625 C 198.957031 81.929688 198.277344 83.496094 197.5 85.089844 C 196.722656 86.683594 195.851562 88.292969 194.886719 89.925781 C 193.921875 91.554688 192.867188 93.195312 191.722656 94.847656 C 190.578125 96.5 189.347656 98.152344 188.035156 99.8125 C 186.722656 101.46875 185.335938 103.121094 183.867188 104.769531 C 182.398438 106.417969 180.863281 108.050781 179.253906 109.671875 C 177.644531 111.292969 175.972656 112.894531 174.242188 114.476562 C 172.507812 116.054688 170.71875 117.605469 168.875 119.128906 C 167.035156 120.652344 165.144531 122.140625 163.210938 123.59375 C 161.277344 125.042969 159.308594 126.453125 157.304688 127.820312 C 155.296875 129.1875 153.265625 130.503906 151.207031 131.769531 C 149.144531 133.039062 147.070312 134.25 144.976562 135.40625 C 142.886719 136.566406 140.789062 137.660156 138.683594 138.695312 C 136.578125 139.730469 134.472656 140.699219 132.375 141.601562 C 130.277344 142.503906 128.191406 143.335938 126.121094 144.101562 C 124.050781 144.863281 122.003906 145.550781 119.980469 146.164062 C 117.957031 146.777344 115.964844 147.316406 114.007812 147.777344 C 112.050781 148.238281 110.136719 148.617188 108.265625 148.921875 C 106.394531 149.222656 104.578125 149.445312 102.808594 149.585938 C 101.042969 149.726562 99.335938 149.785156 97.6875 149.765625 C 96.039062 149.742188 94.460938 149.640625 92.953125 149.457031 C 91.441406 149.269531 90.007812 149.007812 88.648438 148.660156 C 87.289062 148.316406 86.011719 147.894531 84.816406 147.390625 C 83.621094 146.890625 82.511719 146.3125 81.492188 145.65625 C 80.472656 145.003906 79.546875 144.273438 78.714844 143.476562 C 77.878906 142.675781 77.144531 141.804688 76.503906 140.867188 C 75.863281 139.925781 75.320312 138.921875 74.882812 137.855469 C 74.441406 136.785156 74.101562 135.65625 73.863281 134.46875 C 73.628906 133.28125 73.496094 132.042969 73.464844 130.746094 C 73.433594 129.449219 73.507812 128.109375 73.683594 126.71875 C 73.859375 125.328125 74.136719 123.894531 74.519531 122.421875 C 74.898438 120.953125 75.378906 119.445312 75.960938 117.90625 C 76.542969 116.367188 77.222656 114.800781 78 113.207031 C 78.78125 111.613281 79.652344 110.003906 80.617188 108.371094 C 81.582031 106.742188 82.636719 105.101562 83.78125 103.449219 C 84.925781 101.796875 86.15625 100.144531 87.464844 98.484375 C 88.777344 96.828125 90.167969 95.175781 91.636719 93.527344 C 93.101562 91.878906 94.640625 90.246094 96.25 88.625 C 97.855469 87 99.527344 85.402344 101.261719 83.820312 C 102.996094 82.242188 104.785156 80.6875 106.625 79.164062 C 108.46875 77.640625 110.355469 76.15625 112.289062 74.703125 C 114.222656 73.25 116.195312 71.84375 118.199219 70.476562 C 120.207031 69.109375 122.238281 67.792969 124.296875 66.523438 C 126.355469 65.257812 128.433594 64.046875 130.523438 62.886719 C 132.617188 61.730469 134.714844 60.636719 136.820312 59.601562 C 138.925781 58.566406 141.027344 57.597656 143.125 56.695312 C 145.226562 55.792969 147.308594 54.957031 149.378906 54.195312 C 151.453125 53.433594 153.5 52.746094 155.523438 52.132812 C 157.546875 51.515625 159.535156 50.980469 161.492188 50.519531 C 163.449219 50.058594 165.363281 49.679688 167.234375 49.375 C 169.105469 49.074219 170.925781 48.851562 172.695312 48.710938 C 174.460938 48.570312 176.167969 48.511719 177.816406 48.53125 C 179.460938 48.554688 181.039062 48.65625 182.550781 48.839844 C 184.0625 49.023438 185.496094 49.289062 186.855469 49.632812 C 188.214844 49.980469 189.492188 50.402344 190.6875 50.90625 C 191.882812 51.40625 192.988281 51.984375 194.007812 52.640625 C 195.027344 53.292969 195.953125 54.019531 196.789062 54.820312 C 197.621094 55.621094 198.359375 56.492188 199 57.429688 Z M 199 57.429688 " fill-opacity="1" fill-rule="nonzero"/><path fill="#ffcb6b" d="M 98.40625 153.742188 C 87.0625 153.742188 78.074219 150.28125 73.1875 143.117188 C 60.964844 125.1875 79.742188 91.828125 115.9375 67.175781 C 132.769531 55.710938 150.757812 47.988281 166.585938 45.433594 C 183.464844 42.710938 196.144531 46.171875 202.292969 55.183594 C 214.519531 73.113281 195.742188 106.472656 159.542969 131.125 C 137.8125 145.925781 115.453125 153.742188 98.40625 153.742188 Z M 79.800781 138.613281 C 84.035156 144.824219 94.175781 147.140625 107.621094 144.972656 C 122.3125 142.601562 139.152344 135.335938 155.039062 124.515625 C 170.921875 113.699219 183.847656 100.691406 191.429688 87.890625 C 198.367188 76.179688 199.914062 65.902344 195.679688 59.6875 C 191.445312 53.476562 181.304688 51.15625 167.863281 53.328125 C 153.167969 55.699219 136.328125 62.964844 120.445312 73.785156 C 104.558594 84.601562 91.636719 97.609375 84.050781 110.410156 C 77.117188 122.121094 75.566406 132.398438 79.800781 138.613281 Z M 79.800781 138.613281 " fill-opacity="1" fill-rule="nonzero"/><path fill="#65dee6" d="M 211.332031 26.789062 C 196.53125 5.085938 141.578125 5.210938 95.214844 36.789062 C 48.855469 68.363281 28.640625 119.4375 43.441406 141.140625 C 58.238281 162.839844 98.246094 140.796875 144.609375 109.222656 C 190.96875 77.644531 226.128906 48.492188 211.332031 26.789062 Z M 211.332031 26.789062 " fill-opacity="1" fill-rule="nonzero"/><path fill="#ffff9c" d="M 145.613281 70.355469 C 145.894531 70.773438 146.148438 71.207031 146.367188 71.660156 C 146.589844 72.113281 146.777344 72.585938 146.9375 73.074219 C 147.09375 73.5625 147.21875 74.066406 147.3125 74.585938 C 147.402344 75.101562 147.460938 75.632812 147.488281 76.179688 C 147.515625 76.722656 147.507812 77.273438 147.464844 77.839844 C 147.425781 78.402344 147.351562 78.972656 147.246094 79.550781 C 147.140625 80.128906 147 80.710938 146.828125 81.296875 C 146.660156 81.882812 146.457031 82.46875 146.21875 83.058594 C 145.984375 83.648438 145.71875 84.238281 145.425781 84.824219 C 145.128906 85.410156 144.804688 85.992188 144.449219 86.574219 C 144.09375 87.152344 143.714844 87.722656 143.304688 88.289062 C 142.894531 88.851562 142.460938 89.40625 142 89.953125 C 141.542969 90.5 141.058594 91.03125 140.554688 91.554688 C 140.046875 92.074219 139.519531 92.582031 138.972656 93.074219 C 138.421875 93.566406 137.859375 94.039062 137.273438 94.496094 C 136.6875 94.953125 136.089844 95.394531 135.476562 95.8125 C 134.859375 96.230469 134.234375 96.628906 133.59375 97.003906 C 132.953125 97.378906 132.304688 97.734375 131.644531 98.0625 C 130.988281 98.394531 130.324219 98.699219 129.652344 98.976562 C 128.980469 99.257812 128.308594 99.511719 127.632812 99.742188 C 126.957031 99.96875 126.28125 100.171875 125.605469 100.34375 C 124.929688 100.519531 124.257812 100.664062 123.589844 100.78125 C 122.917969 100.898438 122.257812 100.988281 121.601562 101.046875 C 120.949219 101.109375 120.304688 101.140625 119.667969 101.144531 C 119.035156 101.144531 118.414062 101.121094 117.804688 101.066406 C 117.195312 101.011719 116.601562 100.925781 116.023438 100.816406 C 115.449219 100.703125 114.890625 100.5625 114.351562 100.394531 C 113.8125 100.226562 113.292969 100.027344 112.796875 99.804688 C 112.300781 99.582031 111.828125 99.332031 111.378906 99.058594 C 110.929688 98.78125 110.503906 98.484375 110.109375 98.15625 C 109.710938 97.832031 109.339844 97.484375 109 97.113281 C 108.65625 96.742188 108.34375 96.347656 108.0625 95.933594 C 107.78125 95.515625 107.527344 95.082031 107.304688 94.628906 C 107.085938 94.175781 106.894531 93.703125 106.738281 93.214844 C 106.582031 92.726562 106.457031 92.222656 106.363281 91.703125 C 106.269531 91.1875 106.210938 90.65625 106.1875 90.109375 C 106.160156 89.566406 106.167969 89.015625 106.207031 88.449219 C 106.246094 87.886719 106.320312 87.316406 106.425781 86.738281 C 106.535156 86.160156 106.671875 85.578125 106.84375 84.992188 C 107.015625 84.40625 107.21875 83.820312 107.453125 83.230469 C 107.6875 82.640625 107.953125 82.050781 108.25 81.464844 C 108.546875 80.878906 108.871094 80.296875 109.222656 79.714844 C 109.578125 79.136719 109.960938 78.566406 110.367188 78 C 110.777344 77.4375 111.210938 76.882812 111.671875 76.335938 C 112.132812 75.789062 112.613281 75.257812 113.121094 74.734375 C 113.628906 74.214844 114.15625 73.707031 114.703125 73.214844 C 115.25 72.722656 115.816406 72.25 116.402344 71.792969 C 116.984375 71.335938 117.585938 70.894531 118.199219 70.476562 C 118.8125 70.058594 119.441406 69.660156 120.082031 69.285156 C 120.71875 68.910156 121.371094 68.554688 122.027344 68.226562 C 122.6875 67.894531 123.351562 67.589844 124.019531 67.3125 C 124.691406 67.03125 125.363281 66.777344 126.042969 66.546875 C 126.71875 66.320312 127.394531 66.117188 128.070312 65.945312 C 128.746094 65.769531 129.417969 65.625 130.085938 65.507812 C 130.753906 65.390625 131.414062 65.300781 132.070312 65.242188 C 132.726562 65.179688 133.371094 65.148438 134.003906 65.144531 C 134.640625 65.144531 135.261719 65.167969 135.871094 65.222656 C 136.480469 65.277344 137.070312 65.363281 137.648438 65.476562 C 138.226562 65.585938 138.785156 65.726562 139.324219 65.894531 C 139.863281 66.0625 140.378906 66.261719 140.875 66.484375 C 141.375 66.707031 141.847656 66.957031 142.296875 67.230469 C 142.746094 67.507812 143.167969 67.804688 143.566406 68.132812 C 143.964844 68.457031 144.332031 68.804688 144.675781 69.175781 C 145.015625 69.546875 145.328125 69.941406 145.613281 70.355469 Z M 145.613281 70.355469 " fill-opacity="1" fill-rule="nonzero"/><path fill="#ffcb6b" d="M 119.5625 105.144531 C 113.066406 105.144531 107.808594 102.675781 104.746094 98.183594 C 101.667969 93.667969 101.304688 87.832031 103.726562 81.753906 C 105.933594 76.210938 110.269531 71.035156 115.9375 67.175781 C 121.605469 63.316406 128.011719 61.175781 133.980469 61.148438 C 140.503906 61.136719 145.828125 63.59375 148.90625 68.109375 C 151.988281 72.625 152.347656 78.460938 149.925781 84.539062 C 147.71875 90.082031 143.382812 95.257812 137.71875 99.117188 C 132.050781 102.976562 125.644531 105.117188 119.675781 105.144531 C 119.640625 105.144531 119.601562 105.144531 119.5625 105.144531 Z M 134.085938 69.148438 C 134.058594 69.148438 134.035156 69.148438 134.015625 69.148438 C 129.6875 69.167969 124.742188 70.855469 120.445312 73.785156 C 116.144531 76.710938 112.761719 80.695312 111.164062 84.710938 C 110.347656 86.757812 109.289062 90.644531 111.359375 93.679688 C 113.429688 96.71875 117.414062 97.148438 119.640625 97.144531 C 123.96875 97.125 128.914062 95.4375 133.210938 92.507812 C 137.511719 89.578125 140.894531 85.597656 142.492188 81.582031 C 143.308594 79.535156 144.367188 75.648438 142.296875 72.609375 C 140.246094 69.605469 136.304688 69.148438 134.085938 69.148438 Z M 134.085938 69.148438 " fill-opacity="1" fill-rule="nonzero"/><path fill="#00d3d6" d="M 61.144531 153.832031 C 52.390625 153.832031 45.152344 150.75 40.132812 143.390625 C 32.0625 131.554688 33.046875 111.964844 42.761719 90.988281 C 52.933594 69.027344 70.761719 48.605469 92.964844 33.484375 C 142.101562 0.015625 198.71875 1.191406 214.636719 24.539062 C 222.578125 36.183594 218.953125 50.46875 203.859375 67 C 192.660156 79.265625 175.082031 93.304688 146.859375 112.527344 C 116.433594 133.25 83.75 153.832031 61.144531 153.832031 Z M 171.214844 15.625 C 169.304688 15.625 167.347656 15.683594 165.347656 15.800781 C 142.597656 17.148438 118.492188 25.773438 97.46875 40.09375 C 76.445312 54.410156 59.59375 73.679688 50.023438 94.347656 C 41.5 112.746094 40.273438 129.398438 46.746094 138.886719 C 48.824219 141.9375 55.152344 151.210938 80.757812 141.425781 C 99.871094 134.121094 123.714844 118.613281 142.355469 105.917969 C 160.992188 93.222656 184.15625 76.714844 197.949219 61.609375 C 216.429688 41.367188 210.101562 32.089844 208.023438 29.042969 C 202.191406 20.488281 188.65625 15.625 171.214844 15.625 Z M 171.214844 15.625 " fill-opacity="1" fill-rule="nonzero"/><path fill="#b0b8c5" d="M 258.734375 325.761719 C 258.734375 327.371094 258.640625 328.980469 258.453125 330.585938 C 258.261719 332.191406 257.980469 333.785156 257.609375 335.367188 C 257.234375 336.949219 256.765625 338.511719 256.210938 340.054688 C 255.652344 341.597656 255.007812 343.113281 254.273438 344.601562 C 253.539062 346.09375 252.71875 347.550781 251.816406 348.972656 C 250.910156 350.394531 249.925781 351.773438 248.859375 353.117188 C 247.792969 354.457031 246.648438 355.75 245.433594 356.996094 C 244.214844 358.242188 242.929688 359.4375 241.570312 360.578125 C 240.214844 361.71875 238.792969 362.800781 237.308594 363.824219 C 235.828125 364.847656 234.289062 365.804688 232.691406 366.703125 C 231.097656 367.597656 229.453125 368.425781 227.757812 369.1875 C 226.066406 369.945312 224.332031 370.632812 222.5625 371.25 C 220.789062 371.867188 218.984375 372.410156 217.148438 372.878906 C 215.308594 373.347656 213.449219 373.738281 211.570312 374.054688 C 209.6875 374.367188 207.789062 374.605469 205.878906 374.761719 C 203.96875 374.921875 202.054688 375 200.136719 375 C 198.21875 375 196.304688 374.921875 194.394531 374.761719 C 192.484375 374.605469 190.585938 374.367188 188.707031 374.054688 C 186.824219 373.738281 184.964844 373.347656 183.128906 372.878906 C 181.289062 372.410156 179.484375 371.867188 177.714844 371.25 C 175.941406 370.632812 174.207031 369.945312 172.515625 369.1875 C 170.824219 368.425781 169.179688 367.597656 167.582031 366.703125 C 165.988281 365.804688 164.445312 364.847656 162.964844 363.824219 C 161.480469 362.800781 160.058594 361.71875 158.703125 360.578125 C 157.347656 359.4375 156.058594 358.242188 154.839844 356.996094 C 153.625 355.75 152.480469 354.457031 151.414062 353.117188 C 150.347656 351.773438 149.363281 350.394531 148.460938 348.972656 C 147.554688 347.550781 146.734375 346.09375 146 344.601562 C 145.265625 343.113281 144.621094 341.597656 144.0625 340.054688 C 143.507812 338.511719 143.039062 336.949219 142.667969 335.367188 C 142.292969 333.785156 142.011719 332.191406 141.824219 330.585938 C 141.632812 328.980469 141.539062 327.371094 141.539062 325.761719 C 141.539062 324.148438 141.632812 322.539062 141.824219 320.933594 C 142.011719 319.328125 142.292969 317.734375 142.667969 316.152344 C 143.039062 314.570312 143.507812 313.007812 144.0625 311.464844 C 144.621094 309.921875 145.265625 308.40625 146 306.917969 C 146.734375 305.425781 147.554688 303.96875 148.460938 302.546875 C 149.363281 301.125 150.347656 299.746094 151.414062 298.402344 C 152.480469 297.0625 153.625 295.769531 154.839844 294.523438 C 156.058594 293.277344 157.347656 292.082031 158.703125 290.941406 C 160.058594 289.800781 161.480469 288.71875 162.964844 287.695312 C 164.445312 286.671875 165.988281 285.714844 167.582031 284.816406 C 169.179688 283.921875 170.824219 283.09375 172.515625 282.335938 C 174.207031 281.574219 175.941406 280.886719 177.714844 280.269531 C 179.484375 279.652344 181.289062 279.109375 183.128906 278.640625 C 184.964844 278.171875 186.824219 277.78125 188.707031 277.464844 C 190.585938 277.152344 192.484375 276.914062 194.394531 276.757812 C 196.304688 276.597656 198.21875 276.519531 200.136719 276.519531 C 202.054688 276.519531 203.96875 276.597656 205.878906 276.757812 C 207.789062 276.914062 209.6875 277.152344 211.570312 277.464844 C 213.449219 277.78125 215.308594 278.171875 217.148438 278.640625 C 218.984375 279.109375 220.789062 279.652344 222.5625 280.269531 C 224.332031 280.886719 226.066406 281.574219 227.757812 282.335938 C 229.453125 283.09375 231.097656 283.921875 232.691406 284.816406 C 234.289062 285.714844 235.828125 286.671875 237.308594 287.695312 C 238.792969 288.71875 240.214844 289.800781 241.570312 290.941406 C 242.929688 292.082031 244.214844 293.277344 245.433594 294.523438 C 246.648438 295.769531 247.792969 297.0625 248.859375 298.402344 C 249.925781 299.746094 250.910156 301.125 251.816406 302.546875 C 252.71875 303.96875 253.539062 305.425781 254.273438 306.917969 C 255.007812 308.40625 255.652344 309.921875 256.210938 311.464844 C 256.765625 313.007812 257.234375 314.570312 257.609375 316.152344 C 257.980469 317.734375 258.261719 319.328125 258.453125 320.933594 C 258.640625 322.539062 258.734375 324.148438 258.734375 325.761719 Z M 258.734375 325.761719 " fill-opacity="1" fill-rule="nonzero"/><path fill="#ffffff" d="M 256.101562 343.320312 L 256.101562 248.257812 C 256.101562 240.746094 250.007812 234.65625 242.492188 234.65625 L 185.847656 234.65625 C 178.332031 234.65625 172.238281 240.746094 172.238281 248.257812 L 172.238281 343.320312 C 172.238281 350.832031 178.332031 356.921875 185.847656 356.921875 L 242.492188 356.921875 C 250.007812 356.921875 256.101562 350.832031 256.101562 343.320312 Z M 256.101562 343.320312 " fill-opacity="1" fill-rule="nonzero"/><path fill="#e2e2e2" d="M 242.492188 230.660156 L 185.847656 230.660156 C 176.136719 230.660156 168.234375 238.554688 168.234375 248.257812 L 168.234375 343.320312 C 168.234375 353.023438 176.136719 360.917969 185.847656 360.917969 L 242.492188 360.917969 C 252.203125 360.917969 260.101562 353.023438 260.101562 343.320312 L 260.101562 248.257812 C 260.101562 238.554688 252.203125 230.660156 242.492188 230.660156 Z M 214.167969 259.867188 L 194.894531 238.65625 L 233.453125 238.65625 Z M 176.238281 343.320312 L 176.238281 248.257812 C 176.238281 243.519531 179.695312 239.578125 184.21875 238.804688 L 208.765625 265.8125 L 192.546875 283.65625 C 186.257812 290.574219 186.257812 301.007812 192.546875 307.921875 L 208.761719 325.765625 L 184.21875 352.773438 C 179.695312 352 176.238281 348.058594 176.238281 343.320312 Z M 233.453125 352.921875 L 194.890625 352.921875 L 214.167969 331.710938 Z M 252.101562 343.320312 C 252.101562 348.058594 248.648438 351.996094 244.125 352.773438 L 198.46875 302.546875 C 194.964844 298.695312 194.964844 292.886719 198.46875 289.035156 L 244.125 238.804688 C 248.648438 239.582031 252.101562 243.519531 252.101562 248.257812 Z M 252.101562 343.320312 " fill-opacity="1" fill-rule="nonzero"/><path fill="#ffffff" d="M 264.3125 228.734375 L 219.953125 312.820312 C 216.445312 319.464844 218.996094 327.691406 225.644531 331.195312 L 275.75 357.601562 C 282.398438 361.105469 290.632812 358.554688 294.136719 351.910156 L 338.5 267.824219 C 342.003906 261.179688 339.457031 252.953125 332.808594 249.449219 L 282.699219 223.042969 C 276.050781 219.539062 267.820312 222.085938 264.3125 228.734375 Z M 264.3125 228.734375 " fill-opacity="1" fill-rule="nonzero"/><path fill="#e2e2e2" d="M 282.070312 363.164062 C 279.300781 363.164062 276.5 362.511719 273.886719 361.136719 L 223.777344 334.734375 C 219.617188 332.542969 216.558594 328.859375 215.167969 324.371094 C 213.777344 319.878906 214.21875 315.113281 216.414062 310.957031 L 260.773438 226.867188 C 262.96875 222.707031 266.652344 219.652344 271.144531 218.261719 C 275.636719 216.871094 280.40625 217.3125 284.566406 219.507812 L 334.671875 245.910156 C 343.261719 250.4375 346.566406 261.101562 342.039062 269.6875 L 297.675781 353.777344 C 294.527344 359.75 288.398438 363.164062 282.070312 363.164062 Z M 276.363281 225.46875 C 275.410156 225.46875 274.449219 225.613281 273.511719 225.902344 C 271.058594 226.660156 269.050781 228.328125 267.851562 230.597656 L 223.492188 314.6875 C 222.292969 316.953125 222.054688 319.554688 222.8125 322.003906 C 223.570312 324.453125 225.238281 326.464844 227.511719 327.660156 L 277.617188 354.0625 C 282.304688 356.53125 288.128906 354.730469 290.601562 350.046875 L 334.960938 265.957031 C 337.433594 261.273438 335.628906 255.453125 330.941406 252.984375 L 280.835938 226.582031 C 279.433594 225.84375 277.90625 225.46875 276.363281 225.46875 Z M 276.363281 225.46875 " fill-opacity="1" fill-rule="nonzero"/><path fill="#605c5d" d="M 238.472656 323.0625 C 237.84375 323.0625 237.203125 322.914062 236.609375 322.601562 C 234.65625 321.570312 233.90625 319.152344 234.933594 317.199219 L 246.867188 294.582031 C 247.898438 292.628906 250.316406 291.878906 252.269531 292.910156 C 254.226562 293.9375 254.976562 296.355469 253.945312 298.3125 L 242.011719 320.929688 C 241.296875 322.285156 239.90625 323.0625 238.472656 323.0625 Z M 238.472656 323.0625 " fill-opacity="1" fill-rule="nonzero"/><path fill="#605c5d" d="M 250.320312 329.308594 C 249.691406 329.308594 249.054688 329.160156 248.460938 328.84375 C 246.503906 327.8125 245.753906 325.398438 246.785156 323.441406 L 258.71875 300.824219 C 259.75 298.871094 262.167969 298.121094 264.125 299.152344 C 266.078125 300.183594 266.828125 302.601562 265.796875 304.554688 L 253.863281 327.171875 C 253.148438 328.53125 251.757812 329.308594 250.320312 329.308594 Z M 250.320312 329.308594 " fill-opacity="1" fill-rule="nonzero"/><path fill="#605c5d" d="M 262.171875 335.550781 C 261.542969 335.550781 260.90625 335.402344 260.308594 335.089844 C 258.355469 334.058594 257.605469 331.640625 258.636719 329.6875 L 266.210938 315.332031 C 267.242188 313.378906 269.660156 312.628906 271.617188 313.660156 C 273.570312 314.6875 274.320312 317.109375 273.289062 319.0625 L 265.714844 333.417969 C 265 334.777344 263.609375 335.550781 262.171875 335.550781 Z M 262.171875 335.550781 " fill-opacity="1" fill-rule="nonzero"/><path fill="#00d3d6" d="M 305.242188 294.6875 C 304.613281 294.6875 303.976562 294.539062 303.378906 294.226562 C 301.425781 293.195312 300.675781 290.777344 301.707031 288.824219 C 303.480469 285.460938 305.558594 284.167969 307.074219 283.226562 C 308.246094 282.496094 308.832031 282.132812 309.597656 280.683594 C 310.363281 279.234375 310.332031 278.542969 310.273438 277.167969 C 310.195312 275.382812 310.089844 272.9375 311.863281 269.574219 C 313.636719 266.207031 315.714844 264.914062 317.234375 263.96875 C 318.402344 263.242188 318.992188 262.875 319.757812 261.425781 C 320.789062 259.472656 323.207031 258.722656 325.160156 259.753906 C 327.117188 260.785156 327.863281 263.199219 326.835938 265.15625 C 325.058594 268.519531 322.980469 269.8125 321.464844 270.757812 C 320.292969 271.484375 319.707031 271.851562 318.941406 273.300781 C 318.175781 274.753906 318.207031 275.445312 318.265625 276.820312 C 318.34375 278.605469 318.449219 281.050781 316.675781 284.414062 C 314.898438 287.777344 312.820312 289.070312 311.304688 290.011719 C 310.136719 290.742188 309.546875 291.105469 308.785156 292.554688 C 308.066406 293.910156 306.679688 294.6875 305.242188 294.6875 Z M 305.242188 294.6875 " fill-opacity="1" fill-rule="nonzero"/><path fill="#00d3d6" d="M 290.574219 286.183594 C 289.945312 286.183594 289.308594 286.035156 288.714844 285.722656 C 286.757812 284.691406 286.011719 282.273438 287.039062 280.320312 C 288.816406 276.957031 290.894531 275.664062 292.410156 274.722656 C 293.578125 273.992188 294.167969 273.628906 294.929688 272.179688 C 295.695312 270.730469 295.664062 270.039062 295.605469 268.664062 C 295.527344 266.878906 295.421875 264.433594 297.199219 261.070312 C 298.972656 257.703125 301.050781 256.410156 302.566406 255.464844 C 303.738281 254.738281 304.324219 254.371094 305.089844 252.921875 C 306.121094 250.96875 308.542969 250.21875 310.496094 251.25 C 312.449219 252.28125 313.199219 254.699219 312.167969 256.652344 C 310.394531 260.015625 308.316406 261.308594 306.796875 262.253906 C 305.628906 262.980469 305.039062 263.347656 304.273438 264.796875 C 303.507812 266.25 303.539062 266.941406 303.597656 268.316406 C 303.675781 270.101562 303.78125 272.546875 302.007812 275.910156 C 300.234375 279.273438 298.15625 280.566406 296.636719 281.507812 C 295.46875 282.238281 294.882812 282.601562 294.117188 284.050781 C 293.402344 285.410156 292.011719 286.183594 290.574219 286.183594 Z M 290.574219 286.183594 " fill-opacity="1" fill-rule="nonzero"/><path fill="#b0b8c5" d="M 149.035156 265.464844 C 121.972656 293.554688 121.425781 332.007812 150.546875 332.007812 C 183.675781 332.007812 224.058594 305.023438 210.773438 282.625 C 197.492188 260.226562 160.351562 282.617188 153.945312 301.164062 C 153.945312 301.164062 152.761719 261.601562 149.035156 265.464844 Z M 149.035156 265.464844 " fill-opacity="1" fill-rule="nonzero"/><path fill="#67818d" d="M 150.542969 336.003906 C 138.757812 336.003906 130.246094 330.429688 126.582031 320.308594 C 119.917969 301.914062 131.496094 274.214844 153.519531 255.871094 C 155.21875 254.457031 160.339844 260.601562 158.640625 262.015625 C 141.773438 276.0625 127.984375 300.691406 134.105469 317.585938 C 136.574219 324.402344 142.257812 328.007812 150.542969 328.007812 C 172.546875 328.007812 198.296875 315.4375 206.777344 300.558594 C 210.023438 294.863281 210.210938 289.511719 207.332031 284.660156 C 204.03125 279.09375 198.738281 276.640625 191.601562 277.367188 C 177.132812 278.839844 161.238281 292.300781 157.730469 302.460938 C 157.007812 304.550781 154.730469 305.65625 152.644531 304.9375 C 150.554688 304.21875 149.445312 301.941406 150.167969 299.855469 C 155.097656 285.582031 174.457031 271.074219 190.792969 269.414062 C 201.007812 268.375 209.328125 272.339844 214.214844 280.582031 C 218.605469 287.980469 218.4375 296.257812 213.730469 304.515625 C 203.835938 321.878906 175.492188 336.003906 150.542969 336.003906 Z M 150.542969 336.003906 " fill-opacity="1" fill-rule="nonzero"/><path fill="#b0b8c5" d="M 326.355469 336.789062 C 331.945312 326.195312 332.753906 315.652344 322.15625 310.066406 C 311.558594 304.484375 298.441406 308.542969 292.851562 319.132812 C 287.265625 329.722656 291.328125 342.835938 301.925781 348.421875 C 312.523438 354.003906 320.769531 347.378906 326.355469 336.789062 Z M 326.355469 336.789062 " fill-opacity="1" fill-rule="nonzero"/><path fill="#67818d" d="M 309.429688 354.441406 C 306.355469 354.441406 303.203125 353.613281 300.058594 351.957031 C 287.527344 345.355469 282.707031 329.792969 289.316406 317.265625 C 295.921875 304.746094 311.492188 299.925781 324.023438 306.53125 C 335.371094 312.507812 337.511719 324.21875 329.894531 338.652344 C 326.5 345.09375 322.484375 349.636719 317.972656 352.160156 C 315.25 353.679688 312.375 354.441406 309.429688 354.441406 Z M 312.070312 311.566406 C 305.710938 311.566406 299.558594 314.996094 296.390625 321 C 291.84375 329.621094 295.160156 340.335938 303.789062 344.882812 C 307.53125 346.855469 310.894531 346.953125 314.066406 345.179688 C 317.164062 343.449219 320.191406 339.902344 322.820312 334.921875 C 331.070312 319.28125 322.957031 315.007812 320.292969 313.605469 C 317.667969 312.222656 314.847656 311.566406 312.070312 311.566406 Z M 326.355469 336.789062 L 326.363281 336.789062 Z M 326.355469 336.789062 " fill-opacity="1" fill-rule="nonzero"/></svg>