<svg xmlns="http://www.w3.org/2000/svg" xmlns:xlink="http://www.w3.org/1999/xlink" width="500" zoomAndPan="magnify" viewBox="0 0 375 374.999991" height="500" preserveAspectRatio="xMidYMid meet" version="1.0"><defs><clipPath id="4640c648fd"><path d="M 33.515625 241 L 229 241 L 229 342 L 33.515625 342 Z M 33.515625 241 " clip-rule="nonzero"/></clipPath></defs><path fill="#b0b8c5" d="M 326.9375 66.464844 C 316.203125 48.949219 265 63.8125 242.171875 71.5 C 232.753906 67.511719 220.253906 63.800781 205.742188 60.382812 C 191.257812 56.832031 178.4375 54.457031 168.230469 53.730469 C 151.394531 36.503906 112.554688 0.0195312 95.035156 10.738281 C 77.632812 21.378906 84.386719 63.703125 88.484375 82.820312 C 74.808594 96.894531 66.929688 114.019531 63.203125 129.496094 C 59.980469 142.882812 58.355469 156.636719 58.347656 170.773438 C 58.332031 198.371094 74.15625 223.371094 99.195312 235.019531 C 118.53125 244.011719 138.363281 250.949219 158.6875 255.832031 C 168.851562 258.273438 179.351562 270.441406 189.761719 271.859375 C 200.171875 273.273438 210.488281 263.9375 221.144531 264.328125 C 248.75 265.324219 274.21875 250.253906 286.769531 225.667969 C 293.195312 213.070312 298.011719 200.085938 301.234375 186.699219 C 304.957031 171.222656 305.734375 152.398438 299.964844 133.65625 C 312.289062 118.5 337.589844 83.855469 326.9375 66.464844 Z M 326.9375 66.464844 " fill-opacity="1" fill-rule="nonzero"/><path fill="#90a1b4" d="M 217.832031 73.390625 C 212.5 95.546875 201.722656 111.945312 193.792969 110.039062 C 185.847656 108.132812 183.71875 88.632812 189.050781 66.476562 C 189.78125 63.4375 190.609375 60.515625 191.53125 57.742188 C 200.988281 59.566406 210.34375 61.8125 219.59375 64.503906 C 219.152344 67.390625 218.558594 70.371094 217.832031 73.390625 Z M 217.832031 73.390625 " fill-opacity="1" fill-rule="nonzero"/><path fill="#90a1b4" d="M 188.679688 58.6875 C 183.351562 80.828125 172.589844 97.246094 164.644531 95.335938 C 157 93.5 154.742188 75.28125 159.367188 54.136719 C 164.617188 54.035156 169.949219 54.347656 175.304688 55.078125 C 179.894531 55.714844 184.464844 56.4375 189.003906 57.277344 C 188.90625 57.753906 188.796875 58.214844 188.679688 58.6875 Z M 188.679688 58.6875 " fill-opacity="1" fill-rule="nonzero"/><path fill="#90a1b4" d="M 249.933594 75.703125 C 244.441406 96.726562 234.109375 112.03125 226.433594 110.1875 C 218.488281 108.277344 216.378906 88.765625 221.707031 66.625 C 221.824219 66.148438 221.933594 65.691406 222.0625 65.222656 C 227.144531 66.726562 232.203125 68.394531 237.21875 70.171875 C 241.636719 71.738281 245.875 73.597656 249.933594 75.703125 Z M 249.933594 75.703125 " fill-opacity="1" fill-rule="nonzero"/><path fill="#ffffff" d="M 302.175781 96.570312 C 302.175781 96.570312 303.214844 102.3125 302.191406 108.21875 C 301.25 113.683594 297.019531 117.007812 292.363281 117.703125 C 285.886719 105.433594 276.875 94.511719 265.832031 85.769531 C 266.652344 82.882812 268.566406 80.308594 271.460938 78.726562 C 283.089844 72.351562 298.535156 66.171875 306.960938 72.21875 C 321.628906 82.757812 302.175781 96.570312 302.175781 96.570312 Z M 302.175781 96.570312 " fill-opacity="1" fill-rule="nonzero"/><path fill="#ffffff" d="M 103.375 48.796875 C 103.375 48.796875 99.832031 53.4375 98.058594 59.164062 C 96.40625 64.457031 98.660156 69.339844 102.492188 72.074219 C 113.847656 64.089844 126.84375 58.457031 140.65625 55.691406 C 141.242188 52.746094 140.707031 49.582031 138.851562 46.859375 C 131.394531 35.894531 120.449219 23.378906 110.195312 24.933594 C 92.332031 27.65625 103.375 48.796875 103.375 48.796875 Z M 103.375 48.796875 " fill-opacity="1" fill-rule="nonzero"/><path fill="#67818d" d="M 330.332031 64.378906 C 324.6875 55.167969 311.007812 52.292969 288.511719 55.585938 C 272.1875 57.972656 254.636719 63.148438 242.316406 67.253906 C 233.253906 63.558594 221.332031 59.960938 206.691406 56.511719 C 192.054688 52.921875 179.785156 50.710938 170.027344 49.882812 C 160.910156 40.621094 147.621094 28.03125 134.1875 18.5 C 115.65625 5.347656 102.164062 1.695312 92.949219 7.332031 C 74.488281 18.625 79.246094 57.78125 84.148438 81.574219 C 68.75 98.113281 62.109375 116.996094 59.324219 128.566406 C 56.039062 142.210938 54.367188 156.410156 54.359375 170.773438 C 54.351562 185.085938 58.378906 199 66.007812 211.011719 C 73.652344 223.046875 84.542969 232.601562 97.511719 238.636719 C 116.996094 247.695312 137.265625 254.785156 157.753906 259.707031 C 178.242188 264.632812 199.519531 267.523438 221 268.308594 C 221.910156 268.34375 222.816406 268.359375 223.726562 268.359375 C 237.074219 268.359375 250.125 264.808594 261.628906 258.023438 C 273.890625 250.789062 283.8125 240.226562 290.320312 227.476562 C 296.847656 214.683594 301.824219 201.277344 305.109375 187.632812 C 307.894531 176.0625 310.574219 156.226562 304.390625 134.503906 C 319.570312 115.53125 341.617188 82.796875 330.332031 64.378906 Z M 297.355469 185.765625 C 294.214844 198.804688 289.457031 211.617188 283.214844 223.855469 C 271.789062 246.246094 248.605469 260.390625 223.671875 260.386719 C 222.882812 260.386719 222.085938 260.375 221.292969 260.347656 C 211.390625 259.984375 199.511719 273.132812 189.761719 271.859375 C 178.882812 270.441406 170.152344 254.492188 159.621094 251.957031 C 139.648438 247.160156 119.882812 240.246094 100.878906 231.410156 C 77.449219 220.507812 62.320312 196.707031 62.335938 170.777344 C 62.34375 157.039062 63.941406 143.464844 67.078125 130.429688 C 70.554688 115.992188 80.492188 89.234375 107.992188 72.21875 C 109.863281 71.0625 110.441406 68.605469 109.28125 66.734375 C 108.121094 64.863281 105.664062 64.285156 103.792969 65.445312 C 99.054688 68.375 94.796875 71.570312 90.972656 74.933594 C 84.960938 42.71875 87.160156 20.214844 97.113281 14.128906 C 106.707031 8.261719 129.855469 21.773438 158.441406 49.601562 C 152.050781 49.90625 145.824219 50.617188 139.921875 51.730469 C 137.757812 52.140625 136.332031 54.222656 136.742188 56.386719 C 137.148438 58.546875 139.234375 59.972656 141.402344 59.5625 C 147.199219 58.464844 153.34375 57.78125 159.664062 57.519531 C 169.722656 57.109375 184.90625 59.375 204.828125 64.257812 C 224.753906 68.953125 239.308594 73.832031 248.082031 78.765625 C 253.59375 81.871094 258.753906 85.273438 263.417969 88.882812 C 264.144531 89.445312 265.003906 89.71875 265.859375 89.71875 C 267.046875 89.714844 268.226562 89.1875 269.015625 88.171875 C 270.363281 86.433594 270.042969 83.929688 268.300781 82.582031 C 263.550781 78.90625 258.324219 75.441406 252.765625 72.265625 C 290.882812 60.453125 317.648438 58.9375 323.53125 68.539062 C 329.613281 78.464844 321.332031 99.507812 301.335938 125.480469 C 299.457031 120.75 297.121094 115.972656 294.238281 111.210938 C 293.097656 109.328125 290.644531 108.722656 288.761719 109.863281 C 286.875 111.003906 286.273438 113.453125 287.414062 115.335938 C 304.160156 142.980469 300.828125 171.328125 297.355469 185.765625 Z M 297.355469 185.765625 " fill-opacity="1" fill-rule="nonzero"/><path fill="#605c5d" d="M 243.464844 183.992188 C 245.238281 176.625 240.699219 169.214844 233.324219 167.445312 C 225.949219 165.671875 218.535156 170.207031 216.761719 177.574219 C 214.988281 184.941406 219.527344 192.351562 226.902344 194.121094 C 234.273438 195.894531 241.691406 191.359375 243.464844 183.992188 Z M 243.464844 183.992188 " fill-opacity="1" fill-rule="nonzero"/><path fill="#605c5d" d="M 142.585938 159.75 C 144.359375 152.382812 139.820312 144.972656 132.445312 143.203125 C 125.070312 141.429688 117.65625 145.964844 115.882812 153.332031 C 114.109375 160.699219 118.648438 168.109375 126.023438 169.878906 C 133.394531 171.652344 140.8125 167.117188 142.585938 159.75 Z M 142.585938 159.75 " fill-opacity="1" fill-rule="nonzero"/><path fill="#90a1b4" d="M 111.894531 176.8125 C 111.585938 176.8125 111.273438 176.777344 110.957031 176.703125 L 89.863281 171.632812 C 87.722656 171.117188 86.402344 168.964844 86.917969 166.824219 C 87.433594 164.6875 89.585938 163.367188 91.730469 163.882812 L 112.824219 168.953125 C 114.964844 169.46875 116.285156 171.621094 115.769531 173.757812 C 115.328125 175.585938 113.695312 176.8125 111.894531 176.8125 Z M 111.894531 176.8125 " fill-opacity="1" fill-rule="nonzero"/><path fill="#90a1b4" d="M 89.859375 192.460938 C 87.867188 192.460938 86.148438 190.972656 85.90625 188.949219 C 85.644531 186.765625 87.207031 184.78125 89.394531 184.519531 L 108.191406 182.28125 C 110.378906 182.019531 112.363281 183.582031 112.621094 185.765625 C 112.882812 187.953125 111.320312 189.933594 109.136719 190.195312 L 90.335938 192.433594 C 90.175781 192.453125 90.015625 192.460938 89.859375 192.460938 Z M 89.859375 192.460938 " fill-opacity="1" fill-rule="nonzero"/><path fill="#ffffff" d="M 228.804688 152.945312 C 228.496094 152.945312 228.183594 152.90625 227.867188 152.832031 L 216.800781 150.171875 C 214.660156 149.65625 213.34375 147.507812 213.855469 145.367188 C 214.371094 143.226562 216.523438 141.910156 218.667969 142.425781 L 229.734375 145.085938 C 231.875 145.597656 233.195312 147.75 232.679688 149.890625 C 232.238281 151.714844 230.605469 152.945312 228.804688 152.945312 Z M 228.804688 152.945312 " fill-opacity="1" fill-rule="nonzero"/><path fill="#ffffff" d="M 155.957031 135.4375 C 155.648438 135.4375 155.335938 135.402344 155.019531 135.328125 L 143.957031 132.667969 C 141.8125 132.152344 140.496094 130 141.011719 127.863281 C 141.527344 125.722656 143.679688 124.402344 145.820312 124.917969 L 156.886719 127.578125 C 159.027344 128.09375 160.347656 130.246094 159.832031 132.382812 C 159.390625 134.210938 157.757812 135.4375 155.957031 135.4375 Z M 155.957031 135.4375 " fill-opacity="1" fill-rule="nonzero"/><path fill="#67818d" d="M 193.945312 212.808594 C 190.332031 215.511719 186.191406 217.625 181.894531 218.921875 C 176.683594 220.488281 171.238281 220.867188 166.234375 219.648438 C 157.109375 217.417969 149.164062 209.820312 144.84375 200.902344 C 141.625 194.351562 140.371094 187.105469 141.96875 180.757812 C 142.535156 178.488281 143.460938 176.363281 144.792969 174.402344 C 155.886719 158.097656 164.792969 173.554688 176.773438 176.472656 C 188.753906 179.386719 203.800781 169.777344 206.113281 189.355469 C 207.171875 198.3125 201.820312 206.949219 193.945312 212.808594 Z M 193.945312 212.808594 " fill-opacity="1" fill-rule="nonzero"/><path fill="#fc80a5" d="M 193.945312 212.808594 C 190.332031 215.511719 186.191406 217.625 181.894531 218.921875 C 176.683594 220.488281 171.238281 220.867188 166.234375 219.648438 C 157.109375 217.417969 149.164062 209.820312 144.84375 200.902344 C 148.460938 198.199219 152.59375 196.089844 156.894531 194.789062 C 162.105469 193.226562 167.550781 192.847656 172.554688 194.066406 C 181.683594 196.296875 189.625 203.894531 193.945312 212.808594 Z M 193.945312 212.808594 " fill-opacity="1" fill-rule="nonzero"/><path fill="#67818d" d="M 210.078125 188.882812 C 208.015625 171.46875 196.335938 172.269531 187.804688 172.855469 C 185.871094 172.992188 183.902344 173.117188 182.011719 173.085938 L 183.855469 167.210938 L 186.15625 167.761719 C 186.472656 167.839844 186.785156 167.875 187.09375 167.875 C 188.894531 167.875 190.527344 166.648438 190.96875 164.820312 C 191.480469 162.679688 190.164062 160.53125 188.023438 160.015625 L 176.171875 157.167969 C 174.03125 156.652344 171.878906 157.96875 171.363281 160.109375 C 170.847656 162.25 172.167969 164.402344 174.308594 164.914062 L 176.082031 165.339844 L 174.210938 171.3125 C 172.34375 170.429688 170.480469 169.300781 168.65625 168.1875 C 161.355469 163.742188 151.359375 157.65625 141.5 172.164062 C 136.558594 179.429688 135.9375 189.335938 139.792969 199.339844 C 144.433594 211.390625 154.441406 220.882812 165.285156 223.523438 C 167.566406 224.082031 169.957031 224.351562 172.394531 224.351562 C 181.550781 224.351562 191.421875 220.546875 199.0625 213.789062 C 207.097656 206.683594 211.113281 197.605469 210.078125 188.882812 Z M 193.773438 207.824219 C 186.117188 214.597656 175.429688 217.796875 167.175781 215.785156 C 158.921875 213.769531 150.910156 206.011719 147.238281 196.480469 C 144.335938 188.945312 144.648438 181.714844 148.097656 176.640625 C 150.847656 172.589844 153.066406 171.035156 155.492188 171.035156 C 158 171.035156 160.730469 172.695312 164.503906 174.992188 C 167.828125 177.019531 171.597656 179.3125 175.832031 180.34375 C 180.066406 181.378906 184.46875 181.074219 188.355469 180.808594 C 197.027344 180.210938 200.984375 179.9375 202.15625 189.816406 C 202.878906 195.910156 199.824219 202.472656 193.773438 207.824219 Z M 193.773438 207.824219 " fill-opacity="1" fill-rule="nonzero"/><path fill="#b0b8c5" d="M 186.433594 316.300781 C 208.371094 338.21875 242.070312 332.078125 265.203125 308.964844 L 224.058594 289.019531 L 190.90625 282.09375 Z M 186.433594 316.300781 " fill-opacity="1" fill-rule="nonzero"/><path fill="#67818d" d="M 219.261719 333.871094 C 205.730469 333.871094 193.261719 328.753906 183.613281 319.117188 C 182.058594 317.5625 182.058594 315.039062 183.613281 313.480469 C 185.171875 311.925781 187.695312 311.925781 189.253906 313.480469 C 198.816406 323.035156 211.136719 327.210938 224.894531 325.5625 C 238.125 323.976562 251.4375 317.082031 262.382812 306.148438 C 263.941406 304.589844 266.464844 304.589844 268.023438 306.148438 C 269.582031 307.703125 269.582031 310.226562 268.023438 311.78125 C 255.820312 323.972656 240.839844 331.679688 225.84375 333.476562 C 223.628906 333.742188 221.429688 333.871094 219.261719 333.871094 Z M 219.261719 333.871094 " fill-opacity="1" fill-rule="nonzero"/><path fill="#ffff9c" d="M 201.613281 271.785156 L 235.339844 295.710938 C 241.527344 300.101562 250.105469 298.648438 254.496094 292.464844 L 288.375 244.796875 C 292.765625 238.617188 291.3125 230.046875 285.125 225.660156 L 251.398438 201.734375 C 245.210938 197.34375 236.636719 198.796875 232.242188 204.980469 L 198.367188 252.648438 C 193.972656 258.828125 195.425781 267.398438 201.613281 271.785156 Z M 201.613281 271.785156 " fill-opacity="1" fill-rule="nonzero"/><path fill="#ffcb6b" d="M 287.433594 222.410156 L 253.707031 198.484375 C 249.847656 195.746094 245.148438 194.671875 240.480469 195.464844 C 235.8125 196.253906 231.730469 198.8125 228.992188 202.671875 L 195.113281 250.339844 C 189.453125 258.304688 191.335938 269.382812 199.304688 275.035156 L 233.03125 298.960938 C 236.066406 301.113281 239.613281 302.234375 243.257812 302.234375 C 244.253906 302.234375 245.257812 302.152344 246.257812 301.980469 C 250.925781 301.191406 255.007812 298.628906 257.75 294.773438 L 291.625 247.105469 C 297.285156 239.140625 295.40625 228.0625 287.433594 222.410156 Z M 201.617188 254.953125 L 235.496094 207.285156 C 237 205.164062 239.246094 203.753906 241.816406 203.320312 C 244.382812 202.886719 246.964844 203.476562 249.089844 204.980469 L 276.164062 224.1875 L 241.785156 234.515625 C 234.152344 236.804688 229.070312 243.960938 229.417969 251.910156 L 231 287.746094 L 203.921875 268.539062 C 199.539062 265.429688 198.503906 259.335938 201.617188 254.953125 Z M 285.125 242.492188 L 251.246094 290.160156 C 249.738281 292.28125 247.492188 293.691406 244.925781 294.125 C 242.964844 294.457031 240.996094 294.1875 239.230469 293.375 L 237.386719 251.558594 C 237.199219 247.257812 239.949219 243.382812 244.082031 242.144531 L 284.195312 230.097656 C 287.378906 233.402344 287.875 238.617188 285.125 242.492188 Z M 285.125 242.492188 " fill-opacity="1" fill-rule="nonzero"/><path fill="#b0b8c5" d="M 253.578125 313.226562 C 241.789062 315.492188 231.4375 313.191406 229.171875 301.414062 C 226.910156 289.640625 234.628906 278.257812 246.417969 275.992188 C 258.203125 273.730469 269.597656 281.445312 271.863281 293.222656 C 274.125 305 265.367188 310.964844 253.578125 313.226562 Z M 253.578125 313.226562 " fill-opacity="1" fill-rule="nonzero"/><path fill="#67818d" d="M 246.023438 317.992188 C 242.371094 317.992188 239.117188 317.421875 236.304688 316.277344 C 230.390625 313.878906 226.570312 308.996094 225.257812 302.167969 C 223.960938 295.425781 225.371094 288.585938 229.222656 282.902344 C 233.078125 277.21875 238.917969 273.375 245.664062 272.082031 C 252.410156 270.785156 259.257812 272.191406 264.949219 276.042969 C 270.636719 279.894531 274.480469 285.726562 275.777344 292.46875 C 277.089844 299.300781 275.355469 305.246094 270.753906 309.664062 C 267.019531 313.25 261.492188 315.765625 254.332031 317.140625 C 251.371094 317.707031 248.597656 317.992188 246.023438 317.992188 Z M 250.554688 279.582031 C 249.429688 279.582031 248.296875 279.691406 247.167969 279.90625 C 242.515625 280.800781 238.484375 283.453125 235.828125 287.371094 C 233.167969 291.292969 232.195312 296.011719 233.089844 300.664062 C 233.890625 304.832031 235.925781 307.523438 239.304688 308.894531 C 242.605469 310.234375 247.277344 310.378906 252.824219 309.316406 C 258.371094 308.25 262.660156 306.386719 265.226562 303.921875 C 267.855469 301.394531 268.746094 298.140625 267.945312 293.972656 C 267.050781 289.320312 264.394531 285.296875 260.472656 282.640625 C 257.5 280.628906 254.066406 279.582031 250.554688 279.582031 Z M 250.554688 279.582031 " fill-opacity="1" fill-rule="nonzero"/><path fill="#d3aeb6" d="M 127.136719 371.015625 L 95.238281 371.015625 L 95.238281 337.921875 L 127.136719 337.921875 Z M 127.136719 371.015625 " fill-opacity="1" fill-rule="nonzero"/><path fill="#b68d97" d="M 127.136719 375 L 95.238281 375 C 93.035156 375 91.25 373.214844 91.25 371.015625 L 91.25 337.921875 L 99.226562 337.921875 L 99.226562 367.03125 L 123.148438 367.03125 L 123.148438 337.921875 L 131.125 337.921875 L 131.125 371.015625 C 131.125 373.214844 129.339844 375 127.136719 375 Z M 127.136719 375 " fill-opacity="1" fill-rule="nonzero"/><path fill="#ffffff" d="M 152.886719 245.390625 L 76.484375 245.390625 C 55.003906 245.390625 37.585938 262.789062 37.585938 284.25 L 37.585938 337.921875 L 113.992188 337.921875 Z M 152.886719 245.390625 " fill-opacity="1" fill-rule="nonzero"/><path fill="#777677" d="M 152.886719 245.390625 C 174.367188 245.390625 191.78125 262.789062 191.78125 284.25 L 191.78125 337.921875 L 113.992188 337.921875 L 113.992188 284.25 C 113.992188 262.789062 131.40625 245.390625 152.886719 245.390625 Z M 152.886719 245.390625 " fill-opacity="1" fill-rule="nonzero"/><path fill="#ffffff" d="M 201.367188 267.875 C 222.847656 267.875 231.148438 281.042969 219.902344 297.292969 L 191.78125 337.921875 L 113.992188 337.921875 L 142.113281 297.292969 C 153.355469 281.046875 179.886719 267.875 201.367188 267.875 Z M 201.367188 267.875 " fill-opacity="1" fill-rule="nonzero"/><g clip-path="url(#4640c648fd)"><path fill="#e2e2e2" d="M 226.949219 275.527344 C 224.667969 271.179688 218.3125 263.890625 201.367188 263.890625 C 198.007812 263.890625 194.554688 264.191406 191.066406 264.742188 C 189.027344 260.761719 186.402344 257.136719 183.210938 253.953125 C 175.105469 245.863281 164.335938 241.40625 152.882812 241.40625 C 152.859375 241.40625 152.835938 241.40625 152.8125 241.40625 L 76.484375 241.40625 C 52.839844 241.40625 33.601562 260.628906 33.601562 284.253906 L 33.601562 337.921875 C 33.601562 340.121094 35.386719 341.90625 37.589844 341.90625 L 191.78125 341.90625 C 193.09375 341.90625 194.316406 341.265625 195.0625 340.1875 L 223.183594 299.558594 C 229.191406 290.878906 230.527344 282.34375 226.949219 275.527344 Z M 41.578125 284.25 C 41.578125 265.019531 57.234375 249.375 76.484375 249.375 L 128.019531 249.375 C 117.125 257.152344 110 269.882812 110 284.25 L 110 333.9375 L 41.578125 333.9375 Z M 117.976562 284.25 C 117.976562 265.042969 133.597656 249.414062 152.8125 249.375 L 152.886719 249.375 C 162.207031 249.375 170.976562 253.003906 177.574219 259.589844 C 179.65625 261.667969 181.445312 263.980469 182.929688 266.484375 C 165.171875 271.246094 147.78125 282.09375 138.832031 295.023438 L 117.976562 325.15625 Z M 216.621094 295.023438 L 189.691406 333.9375 L 121.597656 333.9375 L 145.390625 299.558594 C 155.964844 284.285156 181.074219 271.859375 201.367188 271.859375 C 210.679688 271.859375 217.429688 274.542969 219.886719 279.226562 C 222.019531 283.292969 220.859375 288.902344 216.621094 295.023438 Z M 216.621094 295.023438 " fill-opacity="1" fill-rule="nonzero"/></g><path fill="#b0b8c5" d="M 99.941406 223.566406 C 111.679688 221.046875 122.078125 223.117188 124.601562 234.84375 C 127.125 246.566406 119.65625 258.117188 107.917969 260.636719 C 96.183594 263.15625 84.625 255.695312 82.101562 243.972656 C 79.582031 232.246094 88.207031 226.089844 99.941406 223.566406 Z M 99.941406 223.566406 " fill-opacity="1" fill-rule="nonzero"/><path fill="#67818d" d="M 103.347656 265.109375 C 91.488281 265.109375 80.796875 256.847656 78.203125 244.808594 C 75.503906 232.265625 83.125 223.105469 99.105469 219.671875 C 106.238281 218.140625 112.308594 218.296875 117.148438 220.140625 C 123.109375 222.410156 127.035156 227.203125 128.5 234.003906 C 131.480469 247.859375 122.625 261.550781 108.757812 264.53125 C 106.945312 264.921875 105.132812 265.109375 103.347656 265.109375 Z M 100.78125 227.464844 C 95.261719 228.648438 91.015625 230.609375 88.503906 233.128906 C 85.925781 235.710938 85.109375 238.984375 86.003906 243.132812 C 88.058594 252.691406 97.515625 258.792969 107.082031 256.742188 C 116.648438 254.683594 122.757812 245.238281 120.703125 235.679688 C 119.808594 231.53125 117.71875 228.886719 114.308594 227.585938 C 110.980469 226.320312 106.300781 226.277344 100.78125 227.464844 Z M 99.945312 223.566406 L 99.949219 223.566406 Z M 99.945312 223.566406 " fill-opacity="1" fill-rule="nonzero"/><path fill="#fc80a5" d="M 43.707031 236.167969 L 70.957031 236.167969 C 80.914062 236.167969 88.988281 244.234375 88.988281 254.183594 L 88.988281 287.734375 C 88.988281 292.707031 84.953125 296.742188 79.972656 296.742188 C 74.992188 296.742188 70.957031 292.707031 70.957031 287.734375 L 70.957031 259.003906 L 62.902344 261.160156 C 53.21875 263.75 43.707031 256.457031 43.707031 246.441406 Z M 43.707031 236.167969 " fill-opacity="1" fill-rule="nonzero"/><path fill="#fd518d" d="M 79.972656 300.726562 C 72.800781 300.726562 66.96875 294.898438 66.96875 287.734375 L 66.96875 264.195312 L 63.933594 265.007812 C 58.109375 266.566406 52.027344 265.355469 47.246094 261.6875 C 42.460938 258.023438 39.71875 252.464844 39.71875 246.441406 L 39.71875 236.167969 C 39.71875 233.96875 41.503906 232.183594 43.707031 232.183594 L 70.957031 232.183594 C 83.097656 232.183594 92.976562 242.050781 92.976562 254.183594 L 92.976562 287.734375 C 92.976562 294.898438 87.140625 300.726562 79.972656 300.726562 Z M 70.957031 255.019531 C 71.824219 255.019531 72.679688 255.304688 73.386719 255.84375 C 74.367188 256.597656 74.945312 257.765625 74.945312 259.003906 L 74.945312 287.734375 C 74.945312 290.503906 77.199219 292.757812 79.972656 292.757812 C 82.742188 292.757812 85 290.503906 85 287.734375 L 85 254.183594 C 85 246.445312 78.699219 240.152344 70.957031 240.152344 L 47.695312 240.152344 L 47.695312 246.441406 C 47.695312 249.964844 49.300781 253.21875 52.101562 255.367188 C 54.898438 257.511719 58.460938 258.222656 61.871094 257.308594 L 69.925781 255.15625 C 70.265625 255.066406 70.613281 255.019531 70.957031 255.019531 Z M 70.957031 255.019531 " fill-opacity="1" fill-rule="nonzero"/><path fill="#e2e2e2" d="M 196.367188 301.277344 L 165.648438 301.277344 C 163.445312 301.277344 161.660156 299.492188 161.660156 297.292969 C 161.660156 295.089844 163.445312 293.308594 165.648438 293.308594 L 196.367188 293.308594 C 198.566406 293.308594 200.351562 295.089844 200.351562 297.292969 C 200.351562 299.492188 198.566406 301.277344 196.367188 301.277344 Z M 196.367188 301.277344 " fill-opacity="1" fill-rule="nonzero"/></svg>