<svg xmlns="http://www.w3.org/2000/svg" xmlns:xlink="http://www.w3.org/1999/xlink" width="500" zoomAndPan="magnify" viewBox="0 0 375 374.999991" height="500" preserveAspectRatio="xMidYMid meet" version="1.0"><defs><g/><clipPath id="9f66d803d7"><path d="M 187.5 0 C 83.945312 0 0 83.945312 0 187.5 C 0 291.054688 83.945312 375 187.5 375 C 291.054688 375 375 291.054688 375 187.5 C 375 83.945312 291.054688 0 187.5 0 Z M 187.5 0 " clip-rule="nonzero"/></clipPath></defs><g clip-path="url(#9f66d803d7)"><rect x="-37.5" width="450" fill="#042c3c" y="-37.499999" height="449.999989" fill-opacity="1"/></g><g fill="#fef6eb" fill-opacity="1"><g transform="translate(29.483664, 303.362452)"><g><path d="M 154.3125 -125.96875 L 154.3125 -88.078125 L 221.21875 -88.078125 L 221.21875 -45.40625 C 208.25 -40.625 188.78125 -35.84375 166.59375 -35.84375 C 116.75 -35.84375 79.890625 -71.34375 79.890625 -119.484375 C 79.890625 -168.640625 114.359375 -204.15625 170.6875 -204.15625 C 202.4375 -204.15625 233.515625 -188.453125 233.515625 -188.453125 L 248.1875 -224.640625 C 248.1875 -224.640625 217.125 -244.09375 163.53125 -244.09375 C 92.515625 -244.09375 34.140625 -189.46875 34.140625 -120.171875 C 34.140625 -49.15625 88.078125 4.09375 169.328125 4.09375 C 226.34375 4.09375 262.1875 -23.21875 262.1875 -23.21875 L 262.1875 -125.96875 Z M 170.015625 -109.59375 L 244.78125 -109.59375 L 244.78125 -31.0625 C 244.78125 -31.0625 215.765625 -11.953125 165.921875 -11.953125 C 99.6875 -11.953125 51.890625 -57.015625 51.890625 -119.484375 C 51.890625 -182.984375 95.9375 -228.046875 166.59375 -228.046875 C 198.34375 -228.046875 227.359375 -215.421875 227.359375 -215.421875 L 224.640625 -209.265625 C 224.640625 -209.265625 196.984375 -221.21875 166.59375 -221.21875 C 100.03125 -221.21875 58.71875 -178.890625 58.71875 -119.484375 C 58.71875 -61.109375 103.78125 -18.78125 165.921875 -18.78125 C 204.15625 -18.78125 229.078125 -29.703125 237.953125 -34.828125 L 237.953125 -102.765625 L 170.015625 -102.765625 Z M 170.015625 -109.59375 "/></g></g></g></svg>