<svg xmlns="http://www.w3.org/2000/svg" xmlns:xlink="http://www.w3.org/1999/xlink" width="500" zoomAndPan="magnify" viewBox="0 0 375 374.999991" height="500" preserveAspectRatio="xMidYMid meet" version="1.0"><defs><clipPath id="5f93e4f005"><path d="M 88.433594 172 L 114 172 L 114 222 L 88.433594 222 Z M 88.433594 172 " clip-rule="nonzero"/></clipPath><clipPath id="4489f8079c"><path d="M 261 172 L 286.433594 172 L 286.433594 222 L 261 222 Z M 261 172 " clip-rule="nonzero"/></clipPath><clipPath id="b29a42090d"><path d="M 178 107.007812 L 197 107.007812 L 197 126 L 178 126 Z M 178 107.007812 " clip-rule="nonzero"/></clipPath></defs><path fill="#ffffff" d="M 215.359375 196.785156 C 211.9375 196.785156 209.167969 194.011719 209.167969 190.59375 C 209.167969 187.175781 211.9375 184.402344 215.359375 184.402344 C 218.777344 184.402344 221.550781 187.175781 221.550781 190.59375 C 221.550781 194.011719 218.777344 196.785156 215.359375 196.785156 Z M 187.496094 216.875 C 178.945312 216.875 172.015625 211.328125 172.015625 204.492188 L 202.976562 204.492188 C 202.976562 211.328125 196.046875 216.875 187.496094 216.875 Z M 159.632812 196.785156 C 156.214844 196.785156 153.441406 194.011719 153.441406 190.59375 C 153.441406 187.175781 156.214844 184.402344 159.632812 184.402344 C 163.054688 184.402344 165.824219 187.175781 165.824219 190.59375 C 165.824219 194.011719 163.054688 196.785156 159.632812 196.785156 Z M 212.261719 159.636719 L 162.730469 159.636719 C 152.472656 159.636719 143.183594 163.792969 136.460938 170.515625 C 129.738281 177.238281 125.582031 186.527344 125.582031 196.785156 C 125.582031 217.300781 142.210938 233.933594 162.730469 233.933594 L 212.261719 233.933594 C 222.519531 233.933594 231.808594 229.777344 238.53125 223.050781 C 245.253906 216.328125 249.410156 207.042969 249.410156 196.785156 C 249.410156 176.265625 232.78125 159.636719 212.261719 159.636719 " fill-opacity="1" fill-rule="nonzero"/><path fill="#ffffff" d="M 187.496094 258.699219 L 168.921875 258.699219 C 160.566406 258.699219 152.457031 257.0625 144.820312 253.832031 C 137.449219 250.714844 130.824219 246.25 125.140625 240.566406 C 119.457031 234.878906 114.992188 228.257812 111.875 220.886719 C 108.644531 213.25 107.007812 205.140625 107.007812 196.785156 C 107.007812 188.425781 108.644531 180.320312 111.875 172.683594 C 114.992188 165.308594 119.457031 158.6875 125.140625 153.003906 C 130.824219 147.320312 137.449219 142.855469 144.820312 139.734375 C 152.457031 136.507812 160.566406 134.871094 168.921875 134.871094 L 206.070312 134.871094 C 214.429688 134.871094 222.535156 136.507812 230.171875 139.734375 C 237.546875 142.855469 244.167969 147.320312 249.851562 153.003906 C 255.535156 158.6875 260 165.308594 263.121094 172.683594 C 266.347656 180.320312 267.984375 188.425781 267.984375 196.785156 L 261.792969 196.785156 C 261.792969 166.058594 236.796875 141.0625 206.070312 141.0625 L 168.921875 141.0625 C 138.195312 141.0625 113.199219 166.058594 113.199219 196.785156 C 113.199219 227.511719 138.195312 252.507812 168.921875 252.507812 L 187.496094 252.507812 L 187.496094 258.699219 " fill-opacity="1" fill-rule="nonzero"/><g clip-path="url(#5f93e4f005)"><path fill="#ffffff" d="M 113.199219 221.550781 C 99.519531 221.550781 88.433594 210.460938 88.433594 196.785156 C 88.433594 183.105469 99.519531 172.019531 113.199219 172.019531 L 113.199219 221.550781 " fill-opacity="1" fill-rule="nonzero"/></g><g clip-path="url(#4489f8079c)"><path fill="#ffffff" d="M 261.792969 221.550781 C 275.472656 221.550781 286.5625 210.460938 286.5625 196.785156 C 286.5625 183.105469 275.472656 172.019531 261.792969 172.019531 L 261.792969 221.550781 " fill-opacity="1" fill-rule="nonzero"/></g><path fill="#ffffff" d="M 202.976562 162.730469 C 202.976562 169.570312 196.042969 175.113281 187.496094 175.113281 C 178.949219 175.113281 172.015625 169.570312 172.015625 162.730469 C 172.015625 155.890625 178.949219 150.347656 187.496094 150.347656 C 196.042969 150.347656 202.976562 155.890625 202.976562 162.730469 " fill-opacity="1" fill-rule="nonzero"/><g clip-path="url(#b29a42090d)"><path fill="#ffffff" d="M 196.785156 116.292969 C 196.785156 121.425781 192.625 125.582031 187.496094 125.582031 C 182.367188 125.582031 178.207031 121.425781 178.207031 116.292969 C 178.207031 111.164062 182.367188 107.007812 187.496094 107.007812 C 192.625 107.007812 196.785156 111.164062 196.785156 116.292969 " fill-opacity="1" fill-rule="nonzero"/></g><path fill="#ffffff" d="M 206.070312 255.605469 C 206.070312 262.441406 199.140625 267.988281 190.59375 267.988281 C 182.042969 267.988281 175.113281 262.441406 175.113281 255.605469 C 175.113281 248.765625 182.042969 243.222656 190.59375 243.222656 C 199.140625 243.222656 206.070312 248.765625 206.070312 255.605469 " fill-opacity="1" fill-rule="nonzero"/><path fill="#ffffff" d="M 190.59375 172.148438 L 184.402344 172.148438 L 184.402344 116.292969 L 190.59375 116.292969 L 190.59375 172.148438 " fill-opacity="1" fill-rule="nonzero"/></svg>