<svg xmlns="http://www.w3.org/2000/svg" xmlns:xlink="http://www.w3.org/1999/xlink" width="500" zoomAndPan="magnify" viewBox="0 0 375 374.999991" height="500" preserveAspectRatio="xMidYMid meet" version="1.0"><path stroke-linecap="butt" transform="matrix(0.75, 0, 0, 0.75, 132.080386, 38.636365)" fill="none" stroke-linejoin="miter" d="M 0.00219336 2.000472 L 160.002204 2.000472 " stroke="#ffffff" stroke-width="4" stroke-opacity="1" stroke-miterlimit="4"/><path fill="#042c3c" d="M 187.5 375 C 291.054688 375 375 291.054688 375 187.5 C 375 83.945312 291.054688 0 187.5 0 C 83.945312 0 0 83.945312 0 187.5 C 0 291.054688 83.945312 375 187.5 375 Z M 246.09375 128.90625 C 246.09375 149.917969 235.03125 168.347656 218.414062 178.6875 L 234.375 304.6875 L 140.625 304.6875 L 156.585938 178.6875 C 139.96875 168.347656 128.90625 149.917969 128.90625 128.90625 C 128.90625 96.546875 155.140625 70.3125 187.5 70.3125 C 219.859375 70.3125 246.09375 96.546875 246.09375 128.90625 Z M 246.09375 128.90625 " fill-opacity="1" fill-rule="evenodd"/></svg>