<svg xmlns="http://www.w3.org/2000/svg" xmlns:xlink="http://www.w3.org/1999/xlink" width="500" zoomAndPan="magnify" viewBox="0 0 375 374.999991" height="500" preserveAspectRatio="xMidYMid meet" version="1.0"><defs><clipPath id="5c10475342"><path d="M 0 19.292969 L 375 19.292969 L 375 355.707031 L 0 355.707031 Z M 0 19.292969 " clip-rule="nonzero"/></clipPath></defs><g clip-path="url(#5c10475342)"><path fill="#042c3c" d="M 196.742188 109.113281 C 208.199219 109.113281 217.484375 118.394531 217.484375 129.84375 L 217.484375 174.792969 L 262.023438 174.792969 C 273.476562 174.792969 282.761719 184.078125 282.761719 195.527344 C 282.761719 206.976562 273.476562 216.257812 262.023438 216.257812 L 196.742188 216.257812 C 185.289062 216.257812 176.003906 206.976562 176.003906 195.527344 L 176.027344 195.3125 L 176.003906 195.097656 L 176.003906 129.84375 C 176.003906 118.394531 185.289062 109.113281 196.742188 109.113281 Z M 209.683594 19.3125 C 278.121094 20.386719 341.488281 63.445312 365.484375 131.917969 C 396.210938 219.542969 350.058594 315.480469 262.402344 346.195312 C 205.355469 366.1875 144.796875 353.628906 100.984375 318.269531 C 88.539062 308.226562 91.863281 288.457031 106.957031 283.171875 C 113.601562 280.839844 120.996094 282.113281 126.46875 286.542969 C 159.695312 313.414062 205.648438 322.980469 248.941406 307.8125 C 315.699219 284.417969 350.707031 211.121094 326.75 144.441406 C 303.167969 78.785156 230.355469 44.171875 164.511719 67.292969 C 126.355469 80.691406 98.589844 110.402344 86.292969 145.851562 L 84.15625 152.765625 L 101.152344 143.953125 C 111.320312 138.683594 123.835938 142.648438 129.109375 152.816406 C 134.382812 162.976562 130.414062 175.492188 120.246094 180.761719 C 100.929688 190.777344 81.613281 200.789062 62.296875 210.804688 C 59.753906 212.121094 57.066406 212.863281 54.378906 213.070312 L 54.140625 213.066406 L 53.121094 213.261719 C 45.070312 213.960938 37.003906 209.898438 32.980469 202.308594 L 2.417969 144.648438 C -2.945312 134.53125 0.910156 121.984375 11.035156 116.621094 C 21.152344 111.261719 33.707031 115.117188 39.070312 125.234375 L 45.976562 138.269531 L 46.109375 137.785156 C 61.425781 88.488281 99.171875 46.851562 151.761719 28.648438 C 170.964844 22.003906 190.523438 19.011719 209.683594 19.3125 Z M 209.683594 19.3125 " fill-opacity="1" fill-rule="evenodd"/></g></svg>