<svg xmlns="http://www.w3.org/2000/svg" xmlns:xlink="http://www.w3.org/1999/xlink" width="500" zoomAndPan="magnify" viewBox="0 0 375 374.999991" height="500" preserveAspectRatio="xMidYMid meet" version="1.0"><defs><clipPath id="223a221cc1"><path d="M 14.296875 0 L 360.796875 0 L 360.796875 375 L 14.296875 375 Z M 14.296875 0 " clip-rule="nonzero"/></clipPath></defs><path fill="#042c3c" d="M 187.496094 2.425781 C 93.039062 2.425781 16.460938 79.003906 16.460938 173.46875 C 16.460938 227.75 41.753906 276.125 81.191406 307.457031 L 51.144531 372.421875 L 154.238281 341.265625 C 165 343.386719 176.121094 344.507812 187.496094 344.507812 C 281.960938 344.507812 358.535156 267.929688 358.535156 173.46875 C 358.535156 79.003906 281.960938 2.425781 187.496094 2.425781 " fill-opacity="1" fill-rule="nonzero"/><g clip-path="url(#223a221cc1)"><path fill="#042c3c" d="M 187.496094 2.425781 L 187.496094 0.273438 C 91.851562 0.277344 14.308594 77.816406 14.308594 173.46875 C 14.308594 228.429688 39.921875 277.421875 79.855469 309.140625 L 81.191406 307.457031 L 79.238281 306.554688 L 49.1875 371.519531 C 48.832031 372.292969 48.960938 373.195312 49.515625 373.835938 C 50.078125 374.480469 50.953125 374.734375 51.765625 374.488281 L 154.867188 343.324219 L 154.238281 341.265625 L 153.824219 343.378906 C 164.71875 345.523438 175.980469 346.660156 187.496094 346.660156 C 283.152344 346.65625 360.691406 269.117188 360.691406 173.46875 C 360.691406 77.816406 283.152344 0.277344 187.496094 0.273438 L 187.496094 4.582031 C 234.140625 4.585938 276.347656 23.480469 306.917969 54.050781 C 337.480469 84.621094 356.382812 126.824219 356.382812 173.46875 C 356.382812 220.109375 337.480469 262.320312 306.917969 292.882812 C 276.347656 323.453125 234.140625 342.347656 187.496094 342.351562 C 176.257812 342.351562 165.28125 341.242188 154.660156 339.148438 C 154.3125 339.082031 153.953125 339.097656 153.617188 339.199219 L 55.117188 368.972656 L 83.148438 308.359375 C 83.5625 307.457031 83.3125 306.386719 82.53125 305.769531 C 43.585938 274.824219 18.617188 227.070312 18.617188 173.46875 C 18.617188 126.824219 37.515625 84.621094 68.082031 54.050781 C 98.648438 23.480469 140.855469 4.585938 187.496094 4.582031 L 187.496094 2.425781 " fill-opacity="1" fill-rule="nonzero"/></g></svg>