<svg xmlns="http://www.w3.org/2000/svg" xmlns:xlink="http://www.w3.org/1999/xlink" width="500" zoomAndPan="magnify" viewBox="0 0 375 374.999991" height="500" preserveAspectRatio="xMidYMid meet" version="1.0"><defs><g/><clipPath id="b11e9d7b4c"><path d="M 79.777344 160 L 294 160 L 294 266 L 79.777344 266 Z M 79.777344 160 " clip-rule="nonzero"/></clipPath><clipPath id="76805409e3"><path d="M 81 40 L 295.027344 40 L 295.027344 144 L 81 144 Z M 81 40 " clip-rule="nonzero"/></clipPath></defs><g clip-path="url(#b11e9d7b4c)"><path fill="#f0b542" d="M 292.699219 184.808594 C 292.859375 184.179688 293.019531 183.550781 293.167969 182.925781 C 294.457031 176.613281 292.621094 171.53125 290.816406 171 C 288.835938 170.417969 286.613281 175.121094 286.613281 175.121094 C 264.753906 221.480469 233.722656 232.480469 233.722656 232.480469 C 265.53125 209.046875 261.234375 202.777344 257.449219 200.082031 C 253.660156 197.378906 245.773438 206.007812 237.222656 212.699219 C 230.417969 218.027344 218.15625 214.636719 218.15625 214.636719 C 191.605469 209.933594 171.058594 231.476562 171.058594 231.476562 C 158.683594 246.128906 133.605469 232.863281 133.605469 232.863281 C 86.949219 212.984375 79.777344 160.589844 79.777344 160.589844 C 80.3125 181.066406 86.664062 201.613281 99.277344 219.65625 C 133.523438 268.628906 200.984375 280.566406 249.960938 246.320312 C 271.945312 230.953125 286.46875 208.890625 292.699219 184.808594 Z M 292.699219 184.808594 " fill-opacity="1" fill-rule="nonzero"/></g><g clip-path="url(#76805409e3)"><path fill="#8a973f" d="M 81.855469 123.234375 C 81.703125 123.867188 81.5625 124.496094 81.421875 125.128906 C 80.261719 131.460938 82.195312 136.511719 84.011719 137.003906 C 86.003906 137.546875 88.128906 132.804688 88.128906 132.804688 C 109.066406 86.015625 139.867188 74.402344 139.867188 74.402344 C 108.53125 98.460938 112.949219 104.640625 116.789062 107.265625 C 120.628906 109.894531 128.34375 101.109375 136.761719 94.246094 C 143.457031 88.785156 155.785156 91.929688 155.785156 91.929688 C 182.425781 96.101562 202.539062 74.152344 202.539062 74.152344 C 214.621094 59.253906 239.953125 72.023438 239.953125 72.023438 C 287 90.96875 295.214844 143.210938 295.214844 143.210938 C 294.269531 122.75 287.511719 102.328125 274.539062 84.542969 C 239.332031 36.261719 171.644531 25.664062 123.359375 60.878906 C 101.683594 76.6875 87.605469 99.03125 81.855469 123.234375 Z M 81.855469 123.234375 " fill-opacity="1" fill-rule="nonzero"/></g><path fill="#042c3c" d="M 249.320312 185.917969 C 245 177.953125 242.6875 168.28125 241.832031 164.152344 C 240.441406 156.976562 238.824219 147.976562 238.460938 146.160156 C 237.867188 143.1875 241.035156 132.085938 238.460938 130.898438 C 235.882812 129.710938 227.957031 139.222656 227.957031 139.222656 C 225.578125 138.03125 221.21875 139.222656 221.21875 139.222656 C 221.21875 139.222656 217.453125 125.148438 214.28125 125.148438 C 211.113281 125.148438 209.128906 140.808594 209.128906 140.808594 C 205.5625 140.410156 199.417969 144.96875 199.417969 149.132812 C 199.417969 156.863281 195.847656 157.0625 194.261719 158.648438 C 192.675781 160.234375 193.667969 164.394531 195.453125 169.351562 C 197.238281 174.304688 202.984375 173.910156 206.15625 174.703125 C 207.828125 175.121094 208.289062 177.085938 208.347656 178.847656 C 208.273438 179.640625 208.21875 180.488281 208.214844 181.359375 C 208.191406 184.078125 206.804688 186.050781 206.070312 186.910156 C 205.535156 187.363281 204.941406 187.882812 204.941406 187.882812 C 197.910156 193.523438 196.210938 205.015625 195.84375 211.414062 C 199.25 210.714844 207.15625 209.679688 210.515625 209.679688 C 213.328125 209.679688 216.148438 209.925781 218.910156 210.414062 L 219.117188 210.453125 L 219.300781 210.503906 C 219.425781 210.539062 222.75 211.414062 226.589844 211.414062 C 229.023438 211.414062 232.382812 211.054688 234.582031 209.328125 C 236.582031 207.765625 238.566406 206.074219 240.484375 204.4375 C 246.25 199.511719 250.847656 195.585938 255.285156 195.304688 C 253.039062 191.894531 250.988281 188.625 249.320312 185.917969 Z M 249.320312 185.917969 " fill-opacity="1" fill-rule="nonzero"/><path fill="#042c3c" d="M 177.234375 168.066406 C 175.515625 161.007812 175.667969 152.195312 175.671875 152.160156 C 176.117188 147.714844 178.484375 145.8125 189.683594 143.148438 C 202.457031 140.105469 202.238281 122.320312 201.753906 116.070312 C 201.753906 116.070312 201.585938 115.066406 201.15625 114.734375 C 200.722656 114.398438 199.53125 114.636719 199.53125 114.636719 C 190.847656 117.339844 177.835938 115.753906 177.835938 115.753906 C 169.757812 102.226562 161.269531 101.203125 153.316406 101.984375 C 145.363281 102.761719 120.253906 122.414062 125.710938 130.367188 C 131.171875 138.320312 143.808594 145.703125 148.792969 145.964844 C 154.070312 146.238281 151.828125 132.707031 151.828125 132.707031 C 150.726562 125.5 149.554688 121.691406 149.308594 118.585938 C 148.886719 113.277344 155.328125 112.507812 155.328125 112.507812 C 149.25 113.648438 151.289062 120.074219 151.289062 120.074219 C 157.023438 144.636719 154.011719 146.140625 149.125 147.578125 C 144.503906 148.941406 132.667969 140.609375 132.667969 140.609375 C 132.667969 140.609375 132.695312 142.78125 132.730469 145.539062 C 132.777344 162.238281 127.382812 172.765625 125.976562 175.226562 C 125.867188 175.414062 125.765625 175.59375 125.65625 175.773438 C 125.65625 175.773438 125.644531 175.792969 125.644531 175.792969 C 124.25 178.136719 122.875 180.402344 121.796875 182.066406 C 119.894531 185.011719 111.496094 195.738281 104.117188 205.066406 C 112.570312 215.691406 122.996094 223.679688 135.289062 228.921875 L 135.457031 228.992188 L 135.617188 229.074219 C 135.707031 229.125 145.257812 234.082031 154.734375 234.082031 C 160.464844 234.082031 164.738281 232.320312 167.789062 228.707031 L 167.875 228.609375 L 167.964844 228.515625 C 168.152344 228.320312 172.601562 223.6875 179.992188 219.078125 C 183.3125 217.007812 186.710938 215.257812 190.148438 213.855469 C 196.585938 205.230469 185.558594 189.28125 184.4375 187.554688 C 181.378906 182.855469 178.546875 173.046875 177.234375 168.066406 Z M 177.234375 168.066406 " fill-opacity="1" fill-rule="nonzero"/><g fill="#042c3c" fill-opacity="1"><g transform="translate(17.544464, 326.253963)"><g><path d="M 20.296875 -31.203125 C 21.160156 -31.316406 21.90625 -31.203125 22.53125 -30.859375 C 23.164062 -30.515625 23.65625 -30.023438 24 -29.390625 C 24.34375 -28.765625 24.519531 -28.125 24.53125 -27.46875 C 24.550781 -26.8125 24.363281 -26.222656 23.96875 -25.703125 C 23.582031 -25.179688 22.957031 -24.84375 22.09375 -24.6875 C 20.5625 -24.445312 19.03125 -24.207031 17.5 -23.96875 C 15.976562 -23.726562 14.453125 -23.488281 12.921875 -23.25 C 12.898438 -23.25 12.773438 -23.226562 12.546875 -23.1875 C 12.316406 -23.144531 12.070312 -23.109375 11.8125 -23.078125 C 11.8125 -22.867188 11.796875 -22.71875 11.765625 -22.625 C 11.816406 -21.9375 11.769531 -21.207031 11.625 -20.4375 C 11.476562 -19.675781 11.359375 -18.953125 11.265625 -18.265625 C 11.265625 -18.179688 11.253906 -18.085938 11.234375 -17.984375 C 11.222656 -17.878906 11.21875 -17.765625 11.21875 -17.640625 C 13.519531 -18.003906 15.8125 -18.195312 18.09375 -18.21875 C 18.957031 -18.25 19.648438 -18.039062 20.171875 -17.59375 C 20.703125 -17.144531 21.046875 -16.582031 21.203125 -15.90625 C 21.367188 -15.238281 21.367188 -14.570312 21.203125 -13.90625 C 21.046875 -13.25 20.703125 -12.6875 20.171875 -12.21875 C 19.648438 -11.757812 18.957031 -11.515625 18.09375 -11.484375 C 15.488281 -11.460938 12.898438 -11.179688 10.328125 -10.640625 C 10.085938 -8.867188 9.835938 -7.097656 9.578125 -5.328125 C 9.328125 -3.566406 9.066406 -1.804688 8.796875 -0.046875 C 8.648438 0.816406 8.320312 1.441406 7.8125 1.828125 C 7.300781 2.222656 6.707031 2.410156 6.03125 2.390625 C 5.363281 2.378906 4.710938 2.203125 4.078125 1.859375 C 3.453125 1.515625 2.96875 1.03125 2.625 0.40625 C 2.28125 -0.21875 2.171875 -0.953125 2.296875 -1.796875 C 2.890625 -5.535156 3.414062 -9.273438 3.875 -13.015625 C 4.34375 -16.753906 4.785156 -20.492188 5.203125 -24.234375 C 5.390625 -25.859375 5.851562 -27.085938 6.59375 -27.921875 C 7.34375 -28.753906 8.523438 -29.304688 10.140625 -29.578125 C 11.816406 -29.878906 13.507812 -30.15625 15.21875 -30.40625 C 16.925781 -30.664062 18.617188 -30.929688 20.296875 -31.203125 Z M 20.296875 -31.203125 "/></g></g></g><g fill="#042c3c" fill-opacity="1"><g transform="translate(45.821048, 326.253963)"><g><path d="M 26.265625 -25.546875 C 26.441406 -23.929688 26.453125 -22.171875 26.296875 -20.265625 C 26.148438 -18.367188 25.804688 -16.46875 25.265625 -14.5625 C 24.734375 -12.664062 23.976562 -10.898438 23 -9.265625 C 22.03125 -7.640625 20.832031 -6.265625 19.40625 -5.140625 C 17.988281 -4.015625 16.335938 -3.289062 14.453125 -2.96875 C 12.472656 -2.632812 10.785156 -2.789062 9.390625 -3.4375 C 8.003906 -4.082031 6.851562 -5.054688 5.9375 -6.359375 C 5.03125 -7.660156 4.304688 -9.171875 3.765625 -10.890625 C 3.234375 -12.609375 2.851562 -14.382812 2.625 -16.21875 C 2.40625 -18.0625 2.285156 -19.835938 2.265625 -21.546875 C 2.253906 -23.253906 2.289062 -24.734375 2.375 -25.984375 C 2.4375 -26.859375 2.710938 -27.546875 3.203125 -28.046875 C 3.703125 -28.554688 4.285156 -28.898438 4.953125 -29.078125 C 5.628906 -29.265625 6.296875 -29.265625 6.953125 -29.078125 C 7.617188 -28.898438 8.160156 -28.554688 8.578125 -28.046875 C 8.992188 -27.546875 9.171875 -26.859375 9.109375 -25.984375 C 9.078125 -25.535156 9.046875 -24.78125 9.015625 -23.71875 C 8.992188 -22.65625 9.007812 -21.4375 9.0625 -20.0625 C 9.125 -18.6875 9.25 -17.3125 9.4375 -15.9375 C 9.632812 -14.5625 9.921875 -13.332031 10.296875 -12.25 C 10.671875 -11.175781 11.171875 -10.40625 11.796875 -9.9375 C 12.429688 -9.476562 13.226562 -9.472656 14.1875 -9.921875 C 15.5 -10.515625 16.546875 -11.429688 17.328125 -12.671875 C 18.109375 -13.921875 18.675781 -15.304688 19.03125 -16.828125 C 19.394531 -18.359375 19.601562 -19.882812 19.65625 -21.40625 C 19.71875 -22.9375 19.675781 -24.316406 19.53125 -25.546875 C 19.40625 -26.410156 19.535156 -27.097656 19.921875 -27.609375 C 20.316406 -28.117188 20.835938 -28.453125 21.484375 -28.609375 C 22.128906 -28.773438 22.796875 -28.773438 23.484375 -28.609375 C 24.171875 -28.453125 24.773438 -28.109375 25.296875 -27.578125 C 25.816406 -27.054688 26.140625 -26.378906 26.265625 -25.546875 Z M 26.265625 -25.546875 "/></g></g></g><g fill="#042c3c" fill-opacity="1"><g transform="translate(75.982714, 326.253963)"><g><path d="M 25.546875 -4.265625 C 26.054688 -3.578125 26.265625 -2.898438 26.171875 -2.234375 C 26.078125 -1.578125 25.789062 -1.015625 25.3125 -0.546875 C 24.832031 -0.0859375 24.253906 0.234375 23.578125 0.421875 C 22.910156 0.617188 22.222656 0.625 21.515625 0.4375 C 20.816406 0.257812 20.210938 -0.171875 19.703125 -0.859375 C 18.359375 -2.710938 16.851562 -4.421875 15.1875 -5.984375 C 13.53125 -7.554688 11.742188 -8.972656 9.828125 -10.234375 C 9.679688 -8.441406 9.539062 -6.660156 9.40625 -4.890625 C 9.269531 -3.128906 9.128906 -1.347656 8.984375 0.453125 C 8.921875 1.316406 8.640625 2.003906 8.140625 2.515625 C 7.648438 3.023438 7.0625 3.367188 6.375 3.546875 C 5.6875 3.722656 5.019531 3.722656 4.375 3.546875 C 3.726562 3.367188 3.195312 3.023438 2.78125 2.515625 C 2.363281 2.003906 2.1875 1.316406 2.25 0.453125 C 2.519531 -2.835938 2.726562 -6.175781 2.875 -9.5625 C 3.019531 -12.945312 3.421875 -16.253906 4.078125 -19.484375 C 4.410156 -21.128906 5.023438 -22.726562 5.921875 -24.28125 C 6.816406 -25.84375 7.960938 -27.140625 9.359375 -28.171875 C 10.753906 -29.203125 12.378906 -29.75 14.234375 -29.8125 C 15.515625 -29.863281 16.734375 -29.617188 17.890625 -29.078125 C 19.046875 -28.546875 20.023438 -27.804688 20.828125 -26.859375 C 21.640625 -25.921875 22.1875 -24.84375 22.46875 -23.625 C 22.75 -22.414062 22.679688 -21.171875 22.265625 -19.890625 C 21.847656 -18.628906 21.164062 -17.421875 20.21875 -16.265625 C 19.28125 -15.117188 18.195312 -14.125 16.96875 -13.28125 C 20.164062 -10.707031 23.023438 -7.703125 25.546875 -4.265625 Z M 15.9375 -22.265625 C 15.8125 -22.859375 15.578125 -23.191406 15.234375 -23.265625 C 14.890625 -23.347656 14.5 -23.253906 14.0625 -22.984375 C 13.632812 -22.710938 13.210938 -22.367188 12.796875 -21.953125 C 12.378906 -21.535156 12.019531 -21.125 11.71875 -20.71875 C 11.414062 -20.3125 11.222656 -20.019531 11.140625 -19.84375 C 10.898438 -19.1875 10.6875 -18.4375 10.5 -17.59375 C 11.101562 -17.6875 11.644531 -17.875 12.125 -18.15625 C 12.601562 -18.4375 13.066406 -18.789062 13.515625 -19.21875 C 13.691406 -19.394531 13.988281 -19.675781 14.40625 -20.0625 C 14.820312 -20.457031 15.195312 -20.863281 15.53125 -21.28125 C 15.863281 -21.695312 16 -22.023438 15.9375 -22.265625 Z M 15.9375 -22.265625 "/></g></g></g><g fill="#042c3c" fill-opacity="1"><g transform="translate(105.91997, 326.253963)"><g><path d="M 25.546875 -4.265625 C 26.054688 -3.578125 26.265625 -2.898438 26.171875 -2.234375 C 26.078125 -1.578125 25.789062 -1.015625 25.3125 -0.546875 C 24.832031 -0.0859375 24.253906 0.234375 23.578125 0.421875 C 22.910156 0.617188 22.222656 0.625 21.515625 0.4375 C 20.816406 0.257812 20.210938 -0.171875 19.703125 -0.859375 C 18.359375 -2.710938 16.851562 -4.421875 15.1875 -5.984375 C 13.53125 -7.554688 11.742188 -8.972656 9.828125 -10.234375 C 9.679688 -8.441406 9.539062 -6.660156 9.40625 -4.890625 C 9.269531 -3.128906 9.128906 -1.347656 8.984375 0.453125 C 8.921875 1.316406 8.640625 2.003906 8.140625 2.515625 C 7.648438 3.023438 7.0625 3.367188 6.375 3.546875 C 5.6875 3.722656 5.019531 3.722656 4.375 3.546875 C 3.726562 3.367188 3.195312 3.023438 2.78125 2.515625 C 2.363281 2.003906 2.1875 1.316406 2.25 0.453125 C 2.519531 -2.835938 2.726562 -6.175781 2.875 -9.5625 C 3.019531 -12.945312 3.421875 -16.253906 4.078125 -19.484375 C 4.410156 -21.128906 5.023438 -22.726562 5.921875 -24.28125 C 6.816406 -25.84375 7.960938 -27.140625 9.359375 -28.171875 C 10.753906 -29.203125 12.378906 -29.75 14.234375 -29.8125 C 15.515625 -29.863281 16.734375 -29.617188 17.890625 -29.078125 C 19.046875 -28.546875 20.023438 -27.804688 20.828125 -26.859375 C 21.640625 -25.921875 22.1875 -24.84375 22.46875 -23.625 C 22.75 -22.414062 22.679688 -21.171875 22.265625 -19.890625 C 21.847656 -18.628906 21.164062 -17.421875 20.21875 -16.265625 C 19.28125 -15.117188 18.195312 -14.125 16.96875 -13.28125 C 20.164062 -10.707031 23.023438 -7.703125 25.546875 -4.265625 Z M 15.9375 -22.265625 C 15.8125 -22.859375 15.578125 -23.191406 15.234375 -23.265625 C 14.890625 -23.347656 14.5 -23.253906 14.0625 -22.984375 C 13.632812 -22.710938 13.210938 -22.367188 12.796875 -21.953125 C 12.378906 -21.535156 12.019531 -21.125 11.71875 -20.71875 C 11.414062 -20.3125 11.222656 -20.019531 11.140625 -19.84375 C 10.898438 -19.1875 10.6875 -18.4375 10.5 -17.59375 C 11.101562 -17.6875 11.644531 -17.875 12.125 -18.15625 C 12.601562 -18.4375 13.066406 -18.789062 13.515625 -19.21875 C 13.691406 -19.394531 13.988281 -19.675781 14.40625 -20.0625 C 14.820312 -20.457031 15.195312 -20.863281 15.53125 -21.28125 C 15.863281 -21.695312 16 -22.023438 15.9375 -22.265625 Z M 15.9375 -22.265625 "/></g></g></g><g fill="#042c3c" fill-opacity="1"><g transform="translate(135.857231, 326.253963)"><g><path d="M 18.71875 -9.515625 C 19.582031 -9.484375 20.273438 -9.234375 20.796875 -8.765625 C 21.328125 -8.304688 21.675781 -7.738281 21.84375 -7.0625 C 22.007812 -6.394531 22.007812 -5.722656 21.84375 -5.046875 C 21.675781 -4.378906 21.328125 -3.828125 20.796875 -3.390625 C 20.273438 -2.953125 19.582031 -2.765625 18.71875 -2.828125 C 16.6875 -2.890625 14.648438 -2.875 12.609375 -2.78125 C 10.578125 -2.695312 8.546875 -2.488281 6.515625 -2.15625 C 5.878906 -2.03125 5.21875 -2.082031 4.53125 -2.3125 C 3.84375 -2.539062 3.265625 -2.90625 2.796875 -3.40625 C 2.335938 -3.914062 2.171875 -4.578125 2.296875 -5.390625 C 2.796875 -9.546875 3.351562 -13.6875 3.96875 -17.8125 C 4.582031 -21.945312 5.25 -26.066406 5.96875 -30.171875 C 6.0625 -30.671875 6.242188 -31.117188 6.515625 -31.515625 C 6.753906 -31.929688 7.097656 -32.273438 7.546875 -32.546875 C 7.992188 -32.816406 8.546875 -32.96875 9.203125 -33 C 12.429688 -33.113281 15.664062 -33.050781 18.90625 -32.8125 C 19.769531 -32.75 20.460938 -32.472656 20.984375 -31.984375 C 21.503906 -31.492188 21.847656 -30.910156 22.015625 -30.234375 C 22.179688 -29.554688 22.179688 -28.890625 22.015625 -28.234375 C 21.847656 -27.578125 21.503906 -27.035156 20.984375 -26.609375 C 20.460938 -26.191406 19.769531 -26.015625 18.90625 -26.078125 C 16.6875 -26.234375 14.425781 -26.3125 12.125 -26.3125 C 11.96875 -25.4375 11.816406 -24.566406 11.671875 -23.703125 C 11.523438 -22.835938 11.390625 -21.96875 11.265625 -21.09375 C 12.492188 -21.0625 13.675781 -21.003906 14.8125 -20.921875 C 15.707031 -20.796875 16.492188 -20.445312 17.171875 -19.875 C 17.847656 -19.3125 18.1875 -18.535156 18.1875 -17.546875 C 18.1875 -16.984375 18.023438 -16.429688 17.703125 -15.890625 C 17.390625 -15.347656 16.976562 -14.910156 16.46875 -14.578125 C 15.96875 -14.253906 15.414062 -14.125 14.8125 -14.1875 C 13.289062 -14.332031 11.765625 -14.390625 10.234375 -14.359375 C 10.117188 -13.523438 10 -12.679688 9.875 -11.828125 C 9.757812 -10.972656 9.640625 -10.113281 9.515625 -9.25 C 11.046875 -9.394531 12.570312 -9.5 14.09375 -9.5625 C 15.625 -9.625 17.164062 -9.609375 18.71875 -9.515625 Z M 18.71875 -9.515625 "/></g></g></g><g fill="#042c3c" fill-opacity="1"><g transform="translate(161.755038, 326.253963)"><g><path d="M 19.65625 -23.84375 C 19.957031 -24.644531 20.421875 -25.222656 21.046875 -25.578125 C 21.679688 -25.941406 22.347656 -26.113281 23.046875 -26.09375 C 23.753906 -26.082031 24.398438 -25.910156 24.984375 -25.578125 C 25.566406 -25.253906 25.984375 -24.785156 26.234375 -24.171875 C 26.492188 -23.554688 26.472656 -22.847656 26.171875 -22.046875 C 23.390625 -14.648438 20.273438 -7.46875 16.828125 -0.5 C 16.441406 0.28125 15.867188 0.773438 15.109375 0.984375 C 14.347656 1.191406 13.582031 1.160156 12.8125 0.890625 C 12.050781 0.628906 11.460938 0.164062 11.046875 -0.5 C 9.546875 -2.800781 8.304688 -5.265625 7.328125 -7.890625 C 6.359375 -10.523438 5.5 -13.203125 4.75 -15.921875 C 4.007812 -18.648438 3.234375 -21.300781 2.421875 -23.875 C 2.148438 -24.71875 2.15625 -25.445312 2.4375 -26.0625 C 2.726562 -26.675781 3.171875 -27.15625 3.765625 -27.5 C 4.367188 -27.84375 5.015625 -28.019531 5.703125 -28.03125 C 6.390625 -28.050781 7.03125 -27.875 7.625 -27.5 C 8.226562 -27.125 8.648438 -26.515625 8.890625 -25.671875 C 9.691406 -23.128906 10.457031 -20.492188 11.1875 -17.765625 C 11.925781 -15.046875 12.804688 -12.414062 13.828125 -9.875 C 14.867188 -12.175781 15.875 -14.488281 16.84375 -16.8125 C 17.820312 -19.132812 18.757812 -21.476562 19.65625 -23.84375 Z M 19.65625 -23.84375 "/></g></g></g><g fill="#042c3c" fill-opacity="1"><g transform="translate(191.916707, 326.253963)"><g><path d="M 18.71875 -9.515625 C 19.582031 -9.484375 20.273438 -9.234375 20.796875 -8.765625 C 21.328125 -8.304688 21.675781 -7.738281 21.84375 -7.0625 C 22.007812 -6.394531 22.007812 -5.722656 21.84375 -5.046875 C 21.675781 -4.378906 21.328125 -3.828125 20.796875 -3.390625 C 20.273438 -2.953125 19.582031 -2.765625 18.71875 -2.828125 C 16.6875 -2.890625 14.648438 -2.875 12.609375 -2.78125 C 10.578125 -2.695312 8.546875 -2.488281 6.515625 -2.15625 C 5.878906 -2.03125 5.21875 -2.082031 4.53125 -2.3125 C 3.84375 -2.539062 3.265625 -2.90625 2.796875 -3.40625 C 2.335938 -3.914062 2.171875 -4.578125 2.296875 -5.390625 C 2.796875 -9.546875 3.351562 -13.6875 3.96875 -17.8125 C 4.582031 -21.945312 5.25 -26.066406 5.96875 -30.171875 C 6.0625 -30.671875 6.242188 -31.117188 6.515625 -31.515625 C 6.753906 -31.929688 7.097656 -32.273438 7.546875 -32.546875 C 7.992188 -32.816406 8.546875 -32.96875 9.203125 -33 C 12.429688 -33.113281 15.664062 -33.050781 18.90625 -32.8125 C 19.769531 -32.75 20.460938 -32.472656 20.984375 -31.984375 C 21.503906 -31.492188 21.847656 -30.910156 22.015625 -30.234375 C 22.179688 -29.554688 22.179688 -28.890625 22.015625 -28.234375 C 21.847656 -27.578125 21.503906 -27.035156 20.984375 -26.609375 C 20.460938 -26.191406 19.769531 -26.015625 18.90625 -26.078125 C 16.6875 -26.234375 14.425781 -26.3125 12.125 -26.3125 C 11.96875 -25.4375 11.816406 -24.566406 11.671875 -23.703125 C 11.523438 -22.835938 11.390625 -21.96875 11.265625 -21.09375 C 12.492188 -21.0625 13.675781 -21.003906 14.8125 -20.921875 C 15.707031 -20.796875 16.492188 -20.445312 17.171875 -19.875 C 17.847656 -19.3125 18.1875 -18.535156 18.1875 -17.546875 C 18.1875 -16.984375 18.023438 -16.429688 17.703125 -15.890625 C 17.390625 -15.347656 16.976562 -14.910156 16.46875 -14.578125 C 15.96875 -14.253906 15.414062 -14.125 14.8125 -14.1875 C 13.289062 -14.332031 11.765625 -14.390625 10.234375 -14.359375 C 10.117188 -13.523438 10 -12.679688 9.875 -11.828125 C 9.757812 -10.972656 9.640625 -10.113281 9.515625 -9.25 C 11.046875 -9.394531 12.570312 -9.5 14.09375 -9.5625 C 15.625 -9.625 17.164062 -9.609375 18.71875 -9.515625 Z M 18.71875 -9.515625 "/></g></g></g><g fill="#042c3c" fill-opacity="1"><g transform="translate(217.814502, 326.253963)"><g><path d="M 25.546875 -4.265625 C 26.054688 -3.578125 26.265625 -2.898438 26.171875 -2.234375 C 26.078125 -1.578125 25.789062 -1.015625 25.3125 -0.546875 C 24.832031 -0.0859375 24.253906 0.234375 23.578125 0.421875 C 22.910156 0.617188 22.222656 0.625 21.515625 0.4375 C 20.816406 0.257812 20.210938 -0.171875 19.703125 -0.859375 C 18.359375 -2.710938 16.851562 -4.421875 15.1875 -5.984375 C 13.53125 -7.554688 11.742188 -8.972656 9.828125 -10.234375 C 9.679688 -8.441406 9.539062 -6.660156 9.40625 -4.890625 C 9.269531 -3.128906 9.128906 -1.347656 8.984375 0.453125 C 8.921875 1.316406 8.640625 2.003906 8.140625 2.515625 C 7.648438 3.023438 7.0625 3.367188 6.375 3.546875 C 5.6875 3.722656 5.019531 3.722656 4.375 3.546875 C 3.726562 3.367188 3.195312 3.023438 2.78125 2.515625 C 2.363281 2.003906 2.1875 1.316406 2.25 0.453125 C 2.519531 -2.835938 2.726562 -6.175781 2.875 -9.5625 C 3.019531 -12.945312 3.421875 -16.253906 4.078125 -19.484375 C 4.410156 -21.128906 5.023438 -22.726562 5.921875 -24.28125 C 6.816406 -25.84375 7.960938 -27.140625 9.359375 -28.171875 C 10.753906 -29.203125 12.378906 -29.75 14.234375 -29.8125 C 15.515625 -29.863281 16.734375 -29.617188 17.890625 -29.078125 C 19.046875 -28.546875 20.023438 -27.804688 20.828125 -26.859375 C 21.640625 -25.921875 22.1875 -24.84375 22.46875 -23.625 C 22.75 -22.414062 22.679688 -21.171875 22.265625 -19.890625 C 21.847656 -18.628906 21.164062 -17.421875 20.21875 -16.265625 C 19.28125 -15.117188 18.195312 -14.125 16.96875 -13.28125 C 20.164062 -10.707031 23.023438 -7.703125 25.546875 -4.265625 Z M 15.9375 -22.265625 C 15.8125 -22.859375 15.578125 -23.191406 15.234375 -23.265625 C 14.890625 -23.347656 14.5 -23.253906 14.0625 -22.984375 C 13.632812 -22.710938 13.210938 -22.367188 12.796875 -21.953125 C 12.378906 -21.535156 12.019531 -21.125 11.71875 -20.71875 C 11.414062 -20.3125 11.222656 -20.019531 11.140625 -19.84375 C 10.898438 -19.1875 10.6875 -18.4375 10.5 -17.59375 C 11.101562 -17.6875 11.644531 -17.875 12.125 -18.15625 C 12.601562 -18.4375 13.066406 -18.789062 13.515625 -19.21875 C 13.691406 -19.394531 13.988281 -19.675781 14.40625 -20.0625 C 14.820312 -20.457031 15.195312 -20.863281 15.53125 -21.28125 C 15.863281 -21.695312 16 -22.023438 15.9375 -22.265625 Z M 15.9375 -22.265625 "/></g></g></g><g fill="#042c3c" fill-opacity="1"><g transform="translate(247.751763, 326.253963)"><g><path d="M 19.96875 -10.859375 C 20.8125 -11.066406 21.539062 -11.03125 22.15625 -10.75 C 22.769531 -10.46875 23.25 -10.023438 23.59375 -9.421875 C 23.9375 -8.828125 24.113281 -8.175781 24.125 -7.46875 C 24.144531 -6.769531 23.96875 -6.132812 23.59375 -5.5625 C 23.21875 -5 22.609375 -4.597656 21.765625 -4.359375 C 20.242188 -3.929688 18.679688 -3.601562 17.078125 -3.375 C 15.472656 -3.15625 13.882812 -3.148438 12.3125 -3.359375 C 10.75 -3.578125 9.25 -4.085938 7.8125 -4.890625 C 5.957031 -5.941406 4.539062 -7.394531 3.5625 -9.25 C 2.59375 -11.101562 2.15625 -13.109375 2.25 -15.265625 C 2.363281 -17.359375 2.882812 -19.363281 3.8125 -21.28125 C 4.738281 -23.195312 5.972656 -24.894531 7.515625 -26.375 C 9.054688 -27.851562 10.804688 -28.988281 12.765625 -29.78125 C 14.734375 -30.570312 16.78125 -30.878906 18.90625 -30.703125 C 19.769531 -30.640625 20.460938 -30.363281 20.984375 -29.875 C 21.503906 -29.382812 21.847656 -28.789062 22.015625 -28.09375 C 22.179688 -27.40625 22.179688 -26.734375 22.015625 -26.078125 C 21.847656 -25.421875 21.503906 -24.890625 20.984375 -24.484375 C 20.460938 -24.078125 19.769531 -23.90625 18.90625 -23.96875 C 17.34375 -24.09375 15.863281 -23.800781 14.46875 -23.09375 C 13.082031 -22.394531 11.910156 -21.421875 10.953125 -20.171875 C 9.992188 -18.929688 9.378906 -17.535156 9.109375 -15.984375 C 8.835938 -14.640625 8.90625 -13.550781 9.3125 -12.71875 C 9.71875 -11.894531 10.320312 -11.28125 11.125 -10.875 C 11.9375 -10.476562 12.859375 -10.242188 13.890625 -10.171875 C 14.921875 -10.097656 15.96875 -10.125 17.03125 -10.25 C 18.09375 -10.382812 19.070312 -10.585938 19.96875 -10.859375 Z M 19.96875 -10.859375 "/></g></g></g><g fill="#042c3c" fill-opacity="1"><g transform="translate(275.66928, 326.253963)"><g><path d="M 23.25 -19.703125 C 23.34375 -16.710938 23.414062 -13.71875 23.46875 -10.71875 C 23.53125 -7.726562 23.609375 -4.738281 23.703125 -1.75 C 23.734375 -0.882812 23.523438 -0.191406 23.078125 0.328125 C 22.628906 0.859375 22.070312 1.203125 21.40625 1.359375 C 20.75 1.523438 20.082031 1.519531 19.40625 1.34375 C 18.738281 1.164062 18.171875 0.820312 17.703125 0.3125 C 17.242188 -0.195312 17 -0.882812 16.96875 -1.75 C 16.9375 -2.644531 16.910156 -3.539062 16.890625 -4.4375 C 16.878906 -5.34375 16.859375 -6.242188 16.828125 -7.140625 L 10.09375 -7.359375 C 9.851562 -6.253906 9.628906 -5.132812 9.421875 -4 C 9.210938 -2.863281 9.003906 -1.722656 8.796875 -0.578125 C 8.648438 0.253906 8.3125 0.863281 7.78125 1.25 C 7.257812 1.644531 6.65625 1.84375 5.96875 1.84375 C 5.28125 1.84375 4.628906 1.660156 4.015625 1.296875 C 3.398438 0.941406 2.921875 0.453125 2.578125 -0.171875 C 2.234375 -0.804688 2.140625 -1.539062 2.296875 -2.375 C 2.828125 -5.3125 3.429688 -8.210938 4.109375 -11.078125 C 4.785156 -13.953125 5.734375 -16.753906 6.953125 -19.484375 C 7.554688 -20.828125 8.320312 -22.273438 9.25 -23.828125 C 10.175781 -25.390625 11.226562 -26.820312 12.40625 -28.125 C 13.59375 -29.425781 14.90625 -30.390625 16.34375 -31.015625 C 17.6875 -31.585938 18.773438 -31.691406 19.609375 -31.328125 C 20.453125 -30.972656 21.113281 -30.320312 21.59375 -29.375 C 22.070312 -28.4375 22.421875 -27.367188 22.640625 -26.171875 C 22.867188 -24.972656 23.019531 -23.789062 23.09375 -22.625 C 23.164062 -21.457031 23.21875 -20.484375 23.25 -19.703125 Z M 12.203125 -14.765625 C 12.179688 -14.648438 12.144531 -14.53125 12.09375 -14.40625 C 12.050781 -14.289062 12 -14.171875 11.9375 -14.046875 C 12.75 -14.015625 13.539062 -13.984375 14.3125 -13.953125 C 15.09375 -13.929688 15.875 -13.90625 16.65625 -13.875 C 16.625 -14.832031 16.597656 -15.796875 16.578125 -16.765625 C 16.566406 -17.734375 16.546875 -18.710938 16.515625 -19.703125 C 16.484375 -20.097656 16.46875 -20.507812 16.46875 -20.9375 C 16.46875 -21.375 16.46875 -21.816406 16.46875 -22.265625 C 15.96875 -21.671875 15.535156 -21.085938 15.171875 -20.515625 C 14.578125 -19.617188 14.03125 -18.691406 13.53125 -17.734375 C 13.039062 -16.773438 12.597656 -15.785156 12.203125 -14.765625 Z M 12.203125 -14.765625 "/></g></g></g><g fill="#042c3c" fill-opacity="1"><g transform="translate(303.137982, 326.253963)"><g><path d="M 25.546875 -4.265625 C 26.054688 -3.578125 26.265625 -2.898438 26.171875 -2.234375 C 26.078125 -1.578125 25.789062 -1.015625 25.3125 -0.546875 C 24.832031 -0.0859375 24.253906 0.234375 23.578125 0.421875 C 22.910156 0.617188 22.222656 0.625 21.515625 0.4375 C 20.816406 0.257812 20.210938 -0.171875 19.703125 -0.859375 C 18.359375 -2.710938 16.851562 -4.421875 15.1875 -5.984375 C 13.53125 -7.554688 11.742188 -8.972656 9.828125 -10.234375 C 9.679688 -8.441406 9.539062 -6.660156 9.40625 -4.890625 C 9.269531 -3.128906 9.128906 -1.347656 8.984375 0.453125 C 8.921875 1.316406 8.640625 2.003906 8.140625 2.515625 C 7.648438 3.023438 7.0625 3.367188 6.375 3.546875 C 5.6875 3.722656 5.019531 3.722656 4.375 3.546875 C 3.726562 3.367188 3.195312 3.023438 2.78125 2.515625 C 2.363281 2.003906 2.1875 1.316406 2.25 0.453125 C 2.519531 -2.835938 2.726562 -6.175781 2.875 -9.5625 C 3.019531 -12.945312 3.421875 -16.253906 4.078125 -19.484375 C 4.410156 -21.128906 5.023438 -22.726562 5.921875 -24.28125 C 6.816406 -25.84375 7.960938 -27.140625 9.359375 -28.171875 C 10.753906 -29.203125 12.378906 -29.75 14.234375 -29.8125 C 15.515625 -29.863281 16.734375 -29.617188 17.890625 -29.078125 C 19.046875 -28.546875 20.023438 -27.804688 20.828125 -26.859375 C 21.640625 -25.921875 22.1875 -24.84375 22.46875 -23.625 C 22.75 -22.414062 22.679688 -21.171875 22.265625 -19.890625 C 21.847656 -18.628906 21.164062 -17.421875 20.21875 -16.265625 C 19.28125 -15.117188 18.195312 -14.125 16.96875 -13.28125 C 20.164062 -10.707031 23.023438 -7.703125 25.546875 -4.265625 Z M 15.9375 -22.265625 C 15.8125 -22.859375 15.578125 -23.191406 15.234375 -23.265625 C 14.890625 -23.347656 14.5 -23.253906 14.0625 -22.984375 C 13.632812 -22.710938 13.210938 -22.367188 12.796875 -21.953125 C 12.378906 -21.535156 12.019531 -21.125 11.71875 -20.71875 C 11.414062 -20.3125 11.222656 -20.019531 11.140625 -19.84375 C 10.898438 -19.1875 10.6875 -18.4375 10.5 -17.59375 C 11.101562 -17.6875 11.644531 -17.875 12.125 -18.15625 C 12.601562 -18.4375 13.066406 -18.789062 13.515625 -19.21875 C 13.691406 -19.394531 13.988281 -19.675781 14.40625 -20.0625 C 14.820312 -20.457031 15.195312 -20.863281 15.53125 -21.28125 C 15.863281 -21.695312 16 -22.023438 15.9375 -22.265625 Z M 15.9375 -22.265625 "/></g></g></g><g fill="#042c3c" fill-opacity="1"><g transform="translate(333.075243, 326.253963)"><g><path d="M 18.71875 -9.515625 C 19.582031 -9.484375 20.273438 -9.234375 20.796875 -8.765625 C 21.328125 -8.304688 21.675781 -7.738281 21.84375 -7.0625 C 22.007812 -6.394531 22.007812 -5.722656 21.84375 -5.046875 C 21.675781 -4.378906 21.328125 -3.828125 20.796875 -3.390625 C 20.273438 -2.953125 19.582031 -2.765625 18.71875 -2.828125 C 16.6875 -2.890625 14.648438 -2.875 12.609375 -2.78125 C 10.578125 -2.695312 8.546875 -2.488281 6.515625 -2.15625 C 5.878906 -2.03125 5.21875 -2.082031 4.53125 -2.3125 C 3.84375 -2.539062 3.265625 -2.90625 2.796875 -3.40625 C 2.335938 -3.914062 2.171875 -4.578125 2.296875 -5.390625 C 2.796875 -9.546875 3.351562 -13.6875 3.96875 -17.8125 C 4.582031 -21.945312 5.25 -26.066406 5.96875 -30.171875 C 6.0625 -30.671875 6.242188 -31.117188 6.515625 -31.515625 C 6.753906 -31.929688 7.097656 -32.273438 7.546875 -32.546875 C 7.992188 -32.816406 8.546875 -32.96875 9.203125 -33 C 12.429688 -33.113281 15.664062 -33.050781 18.90625 -32.8125 C 19.769531 -32.75 20.460938 -32.472656 20.984375 -31.984375 C 21.503906 -31.492188 21.847656 -30.910156 22.015625 -30.234375 C 22.179688 -29.554688 22.179688 -28.890625 22.015625 -28.234375 C 21.847656 -27.578125 21.503906 -27.035156 20.984375 -26.609375 C 20.460938 -26.191406 19.769531 -26.015625 18.90625 -26.078125 C 16.6875 -26.234375 14.425781 -26.3125 12.125 -26.3125 C 11.96875 -25.4375 11.816406 -24.566406 11.671875 -23.703125 C 11.523438 -22.835938 11.390625 -21.96875 11.265625 -21.09375 C 12.492188 -21.0625 13.675781 -21.003906 14.8125 -20.921875 C 15.707031 -20.796875 16.492188 -20.445312 17.171875 -19.875 C 17.847656 -19.3125 18.1875 -18.535156 18.1875 -17.546875 C 18.1875 -16.984375 18.023438 -16.429688 17.703125 -15.890625 C 17.390625 -15.347656 16.976562 -14.910156 16.46875 -14.578125 C 15.96875 -14.253906 15.414062 -14.125 14.8125 -14.1875 C 13.289062 -14.332031 11.765625 -14.390625 10.234375 -14.359375 C 10.117188 -13.523438 10 -12.679688 9.875 -11.828125 C 9.757812 -10.972656 9.640625 -10.113281 9.515625 -9.25 C 11.046875 -9.394531 12.570312 -9.5 14.09375 -9.5625 C 15.625 -9.625 17.164062 -9.609375 18.71875 -9.515625 Z M 18.71875 -9.515625 "/></g></g></g></svg>