<svg xmlns="http://www.w3.org/2000/svg" xmlns:xlink="http://www.w3.org/1999/xlink" width="500" zoomAndPan="magnify" viewBox="0 0 375 374.999991" height="500" preserveAspectRatio="xMidYMid meet" version="1.0"><path stroke-linecap="butt" transform="matrix(0.75, 0, 0, 0.75, 202.884586, 176.048952)" fill="none" stroke-linejoin="miter" d="M -0.00236517 2.002439 L 159.997645 2.002439 " stroke="#000000" stroke-width="4" stroke-opacity="1" stroke-miterlimit="4"/><path fill="#ffa572" d="M 84.796875 257.609375 C 84.144531 256.679688 83.488281 255.753906 82.800781 254.84375 C 82.25 254.265625 81.636719 253.980469 80.792969 254.621094 C 76.894531 257.574219 73.445312 261.320312 70.027344 264.816406 C 68.597656 266.277344 66.425781 268.3125 65.9375 270.378906 C 65.339844 272.878906 67.851562 275.367188 69.351562 277.03125 C 72.398438 280.40625 77.449219 289.8125 82.980469 289.21875 C 85.085938 288.996094 86.574219 286.644531 87.851562 285.21875 C 90.296875 282.492188 93.222656 280.113281 95.980469 277.707031 C 97.113281 276.714844 100.140625 275.375 99.503906 273.472656 C 98.367188 270.082031 94.566406 268.066406 92.011719 265.871094 C 89.203125 263.457031 86.917969 260.632812 84.796875 257.609375 Z M 84.796875 257.609375 " fill-opacity="1" fill-rule="evenodd"/><path fill="#372b29" d="M 183.179688 158.96875 C 183.511719 155.757812 183.785156 152.542969 183.625 149.3125 C 183.589844 148.617188 182.980469 144.394531 181.882812 144.34375 C 181.605469 144.332031 171.84375 154.59375 170.910156 155.425781 C 156.003906 168.75 142.820312 184.023438 128.96875 198.410156 C 120.453125 207.25 112.574219 216.613281 104.535156 225.875 C 98.535156 232.789062 91.878906 239.773438 85.1875 246.015625 C 83.09375 247.972656 77.554688 251.546875 77.429688 254.746094 C 77.234375 259.808594 82.832031 265.132812 85.847656 268.710938 C 88.785156 272.191406 92.863281 279.027344 98.417969 277.898438 C 101.730469 277.222656 104.097656 273.597656 106.53125 271.515625 C 113.273438 265.742188 119.703125 259.570312 126.601562 253.976562 C 134.820312 247.308594 142.003906 239.507812 150.21875 232.851562 C 157.671875 226.8125 166.753906 220.761719 171.859375 212.441406 C 175.136719 207.097656 177.195312 201.042969 178.730469 194.992188 C 181.722656 183.175781 182.355469 171.078125 183.179688 158.96875 Z M 183.179688 158.96875 " fill-opacity="1" fill-rule="evenodd"/><path fill="#ffe9df" d="M 48.042969 318.765625 C 48.933594 319.652344 49.863281 320.480469 50.792969 321.34375 C 51.703125 322.191406 52.953125 323.234375 54.304688 323.082031 C 55.871094 322.90625 57.640625 321.015625 58.769531 320.011719 C 62.453125 316.734375 65.429688 312.765625 68.84375 309.226562 C 74.089844 303.792969 79.929688 298.804688 85.871094 294.148438 C 88.113281 292.394531 92.480469 289.46875 91.375 286.015625 C 90.117188 282.082031 84.8125 283.171875 82.082031 281.09375 C 79.515625 279.136719 79.679688 275.980469 78.300781 273.308594 C 77.335938 271.429688 75.511719 270.65625 74.308594 269.050781 C 72.347656 266.4375 75.234375 264.058594 75.285156 261.390625 C 75.3125 259.75 74.605469 257.585938 72.761719 257.277344 C 69.515625 256.730469 66.851562 260.136719 64.710938 261.992188 C 62.320312 264.070312 59.386719 268.054688 56.175781 268.964844 C 53.011719 269.859375 48.550781 268.46875 45.429688 267.761719 C 38.632812 266.214844 31.929688 264.035156 25.363281 261.707031 C 21.238281 260.25 17.253906 258.105469 12.746094 258.382812 C 8.878906 258.621094 5.167969 260.347656 2.589844 263.269531 C 0.851562 265.242188 0.0625 267.75 1.835938 269.964844 C 8.867188 278.75 17.070312 286.257812 25.058594 294.105469 C 26.765625 295.785156 28.214844 297.707031 29.945312 299.363281 C 30.640625 300.03125 31.492188 300.988281 32.511719 301.058594 C 33.6875 301.144531 35.777344 300.023438 36.695312 301.199219 C 37.085938 301.699219 35.722656 304.988281 36.570312 306.523438 C 39.007812 310.933594 43.449219 314.273438 47.089844 317.78125 C 47.398438 318.121094 47.71875 318.449219 48.042969 318.769531 Z M 48.042969 318.765625 " fill-opacity="1" fill-rule="evenodd"/><path fill="#d66e1c" d="M 165.921875 241.246094 C 166.164062 239.679688 166.480469 238.125 166.917969 236.589844 C 163.402344 235.878906 158.867188 240.898438 156.539062 242.585938 C 144.273438 251.46875 139.726562 261.445312 134.921875 275.417969 C 134.003906 278.082031 132.90625 280.683594 131.910156 283.320312 C 131.640625 284.023438 130.566406 285.761719 130.714844 286.597656 C 131.132812 288.917969 135.257812 287.542969 135.585938 288.511719 C 136.503906 291.257812 130.910156 294.027344 132.847656 296.28125 C 133.90625 297.515625 136.625 297.480469 138.117188 297.972656 C 144.925781 300.21875 148.898438 300.132812 155.710938 296.664062 C 158.796875 295.09375 162.140625 292.429688 162.875 288.816406 C 163.835938 284.085938 163.320312 278.871094 163.566406 274.066406 C 163.910156 267.382812 164.894531 260.734375 165.339844 254.058594 C 165.625 249.757812 165.261719 245.535156 165.921875 241.246094 Z M 165.921875 241.246094 " fill-opacity="1" fill-rule="evenodd"/><path fill="#d66e1c" d="M 175 201.394531 C 174.453125 207.554688 174.574219 213.753906 173.886719 219.902344 C 173.003906 227.734375 171.304688 235.449219 170.402344 243.28125 C 169.6875 249.488281 169.519531 255.777344 168.992188 262.007812 C 168.164062 271.816406 169.199219 282.335938 167.035156 291.972656 C 165.222656 300.035156 158.296875 304.558594 153.21875 296.535156 C 149.292969 290.328125 148.441406 282.128906 148.910156 275.082031 C 150.703125 248.179688 157.398438 217.179688 173.789062 195.050781 C 174.914062 195.792969 175.234375 197.140625 175.28125 198.527344 C 175.179688 199.480469 175.085938 200.4375 175 201.394531 Z M 175 201.394531 " fill-opacity="1" fill-rule="evenodd"/><path fill="#ffe9df" d="M 270.640625 133.324219 C 272.265625 128.5 275.929688 124.371094 279.839844 121.222656 C 283.296875 118.441406 287.289062 116.238281 291.644531 115.253906 C 292.632812 115.03125 295.441406 114.289062 296.179688 115.394531 C 296.734375 116.226562 296.34375 117.511719 296.09375 118.359375 C 295.269531 121.128906 293.761719 123.554688 292.21875 125.964844 C 289.425781 130.3125 286.648438 134.792969 285.140625 139.769531 C 284.5 141.875 284.15625 144.066406 283.75 146.226562 C 283.5 147.558594 283.339844 148.910156 282.597656 150.078125 C 281.019531 152.554688 278.210938 153.226562 276.085938 151.089844 C 273.652344 148.644531 272.796875 145.636719 272.109375 142.34375 C 271.574219 139.769531 270.792969 137.242188 270.257812 134.667969 C 270.367188 134.210938 270.496094 133.765625 270.640625 133.324219 Z M 270.640625 133.324219 " fill-opacity="1" fill-rule="evenodd"/><path fill="#d66e1c" d="M 309.285156 19.777344 C 314.839844 25.277344 316.984375 27.605469 320.15625 35.464844 C 323.726562 43.371094 325.71875 52.277344 323.191406 60.59375 C 321.066406 67.59375 313.835938 71.851562 314.917969 79.765625 C 315.445312 83.632812 319.941406 101.6875 322.109375 104.347656 C 325.761719 108.828125 332.082031 109.855469 336.785156 115.957031 C 342.054688 122.785156 344.851562 131.160156 349.636719 138.3125 C 353.019531 137.476562 358.441406 135.351562 356.960938 130.75 C 356.4375 129.128906 353.339844 128.011719 354.3125 126.222656 C 355.621094 123.808594 358.9375 123.0625 360.695312 120.976562 C 364.867188 116.023438 363.644531 106.964844 357.96875 103.652344 C 355.480469 102.203125 350.683594 102.214844 350.515625 98.429688 C 350.46875 97.367188 351.332031 96.746094 351.773438 95.878906 C 352.441406 94.574219 352.246094 92.867188 351.667969 91.570312 C 350.421875 88.785156 345.347656 87.167969 345.449219 83.835938 C 345.488281 82.445312 346.625 81.371094 347.253906 80.210938 C 348.320312 78.238281 349.117188 75.992188 349.144531 73.726562 C 349.191406 69.277344 346.101562 62.386719 345.476562 57.25 C 344.097656 45.9375 346.089844 33.117188 341.359375 22.476562 C 339.5625 18.429688 336.328125 13.515625 332.222656 11.519531 C 326.367188 8.671875 318.488281 10.273438 313.40625 14.070312 C 311.578125 15.4375 310.144531 17.445312 308.960938 19.457031 C 309.070312 19.566406 309.175781 19.671875 309.285156 19.777344 Z M 309.285156 19.777344 " fill-opacity="1" fill-rule="evenodd"/><path fill="#372b29" d="M 309.285156 19.777344 C 314.839844 25.277344 316.984375 27.605469 320.15625 35.464844 C 323.726562 43.371094 325.71875 52.277344 323.191406 60.59375 C 321.066406 67.59375 313.835938 71.851562 314.917969 79.765625 C 315.445312 83.632812 319.941406 101.6875 322.109375 104.347656 C 325.761719 108.828125 332.082031 109.855469 336.785156 115.957031 C 342.054688 122.785156 344.851562 131.160156 349.636719 138.3125 C 353.019531 137.476562 358.441406 135.351562 356.960938 130.75 C 356.4375 129.128906 353.339844 128.011719 354.3125 126.222656 C 355.621094 123.808594 358.9375 123.0625 360.695312 120.976562 C 364.867188 116.023438 363.644531 106.964844 357.96875 103.652344 C 355.480469 102.203125 350.683594 102.214844 350.515625 98.429688 C 350.46875 97.367188 351.332031 96.746094 351.773438 95.878906 C 352.441406 94.574219 352.246094 92.867188 351.667969 91.570312 C 350.421875 88.785156 345.347656 87.167969 345.449219 83.835938 C 345.488281 82.445312 346.625 81.371094 347.253906 80.210938 C 348.320312 78.238281 349.117188 75.992188 349.144531 73.726562 C 349.191406 69.277344 346.101562 62.386719 345.476562 57.25 C 344.097656 45.9375 346.089844 33.117188 341.359375 22.476562 C 339.5625 18.429688 336.328125 13.515625 332.222656 11.519531 C 326.367188 8.671875 318.488281 10.273438 313.40625 14.070312 C 311.578125 15.4375 310.144531 17.445312 308.960938 19.457031 C 309.070312 19.566406 309.175781 19.671875 309.285156 19.777344 Z M 309.285156 19.777344 " fill-opacity="0.6" fill-rule="evenodd"/><path fill="#ffa572" d="M 317.195312 102.511719 C 320.046875 101.304688 322.988281 100.214844 325.980469 99.507812 C 324.136719 95.628906 323.441406 91.214844 323.226562 86.960938 C 323.167969 85.808594 323.617188 82.457031 322.125 81.984375 C 321.347656 81.738281 320.152344 82.527344 319.484375 82.886719 C 317.113281 84.164062 315.554688 86.257812 313.445312 87.832031 C 308.550781 91.484375 302.492188 93.144531 296.71875 94.789062 C 293.414062 95.730469 290.039062 96.78125 286.585938 96.179688 C 289.5625 99.695312 290.570312 104.484375 291.917969 108.777344 C 292.265625 109.890625 292.675781 113.246094 294.257812 113.46875 C 294.851562 113.550781 295.414062 113.058594 295.875 112.765625 C 301.710938 109.03125 308.132812 106.238281 314.566406 103.667969 C 315.433594 103.277344 316.308594 102.890625 317.195312 102.511719 Z M 317.195312 102.511719 " fill-opacity="1" fill-rule="evenodd"/><path fill="#372b29" d="M 323.519531 90.433594 C 320.5625 93.253906 317.3125 95.632812 313.816406 97.804688 C 306.921875 102.089844 299.234375 105.023438 291.472656 107.3125 C 290.316406 103.421875 289.230469 99.296875 286.585938 96.179688 C 290.039062 96.777344 293.414062 95.730469 296.71875 94.789062 C 302.492188 93.144531 308.554688 91.484375 313.445312 87.832031 C 315.554688 86.257812 317.113281 84.164062 319.484375 82.886719 C 320.152344 82.527344 321.347656 81.738281 322.125 81.984375 C 323.621094 82.457031 323.167969 85.808594 323.226562 86.960938 C 323.285156 88.113281 323.378906 89.273438 323.519531 90.433594 Z M 323.519531 90.433594 " fill-opacity="0.4" fill-rule="evenodd"/><path fill="#ffe9df" d="M 362.515625 279.320312 C 366.246094 267.910156 368.363281 255.980469 370.09375 244.121094 C 374.214844 215.851562 374.933594 186.929688 365.769531 159.527344 C 358.742188 138.515625 346.597656 120.023438 333.765625 102.15625 C 332.191406 99.964844 330.820312 96.894531 327.964844 96.179688 C 325.683594 95.605469 323.484375 96.675781 321.441406 97.566406 C 320.125 98.144531 318.769531 98.648438 317.433594 99.175781 C 311.460938 101.542969 305.53125 104.1875 299.9375 107.351562 C 297.125 108.945312 294.242188 110.300781 291.640625 112.246094 C 290.773438 112.894531 289.796875 113.574219 289.144531 114.457031 C 288.382812 115.488281 287.953125 117.082031 288.214844 118.355469 C 288.53125 119.902344 289.476562 121.089844 289.417969 122.753906 C 289.328125 125.132812 287.785156 127.464844 287.097656 129.683594 C 284.085938 139.386719 279.4375 148.953125 279.234375 159.292969 C 278.894531 176.273438 286.734375 192.609375 288.445312 209.402344 C 289.78125 222.546875 278.171875 228.863281 279.117188 236.6875 C 279.96875 243.710938 297.871094 247.082031 303.507812 249.273438 C 315.128906 253.796875 326.707031 258.605469 337.214844 265.414062 C 342.203125 268.644531 347.515625 272.429688 350.152344 277.9375 C 351.324219 280.386719 352.296875 282.925781 353.328125 285.433594 C 353.847656 286.699219 354.15625 288.089844 355.035156 289.171875 C 356.5 290.96875 358.105469 289.617188 359.121094 288.0625 C 360.851562 285.414062 361.667969 282.328125 362.515625 279.320312 Z M 362.515625 279.320312 " fill-opacity="1" fill-rule="evenodd"/><path fill="#d66e1c" d="M 267.980469 103.679688 C 267.339844 101.605469 266.65625 99.550781 265.839844 97.515625 C 265.746094 97.046875 265.660156 96.578125 265.585938 96.105469 C 260.0625 99.027344 255.027344 102.917969 249.125 105.09375 C 240.632812 108.222656 228.320312 107.128906 220.015625 103.648438 C 214.65625 101.402344 211.914062 96.609375 210.074219 91.421875 C 209.535156 89.902344 208.5 86.972656 206.375 87.410156 C 202.429688 88.214844 201.238281 93.644531 200.476562 96.820312 C 198.144531 106.542969 194.796875 115.972656 191.722656 125.472656 C 185.785156 143.800781 178.652344 161.910156 173.386719 180.433594 C 169.34375 194.652344 167.757812 209.261719 163.640625 223.503906 C 156.695312 247.503906 156.617188 273.414062 156.292969 298.40625 C 156.25 301.675781 155.207031 304.855469 154.476562 308.046875 C 153.867188 310.703125 153.207031 313.355469 152.515625 315.996094 C 151.601562 319.484375 151.183594 323.574219 149.601562 326.832031 C 148.304688 329.5 145.324219 331.714844 144.988281 334.804688 C 144.84375 336.113281 145.703125 336.964844 146.875 337.378906 C 148.761719 338.042969 150.929688 337.894531 152.730469 337.046875 C 152.886719 336.972656 153.042969 336.894531 153.195312 336.816406 C 154.628906 338.953125 156.804688 340.007812 159.367188 339.070312 C 160.050781 338.820312 160.640625 338.433594 161.226562 338.035156 C 163.332031 338.851562 165.425781 338.039062 167.242188 336.890625 C 171.03125 334.5 174.277344 331.304688 175.734375 326.976562 C 177.207031 322.601562 176.925781 317.84375 177.960938 313.367188 C 186.152344 315.894531 195.144531 315.804688 203.609375 315.371094 C 216.101562 314.730469 229.863281 312.992188 240.972656 306.644531 C 240.929688 309.710938 240.691406 312.777344 240.675781 315.84375 C 240.667969 317.519531 240.515625 319.265625 241.148438 320.859375 C 241.695312 322.238281 242.632812 323.402344 243.539062 324.558594 C 246.046875 327.75 249.34375 330.550781 253.21875 331.769531 C 255.226562 332.398438 257.394531 332.5625 259.292969 331.414062 C 259.710938 331.160156 260.054688 330.832031 260.375 330.480469 C 262.523438 331.128906 265.191406 332.617188 267.453125 331.574219 C 268.089844 331.285156 268.667969 330.824219 269.191406 330.320312 C 273.117188 331.953125 278.398438 328.136719 276.613281 323.71875 C 275.15625 320.125 271.375 318.707031 268.71875 316.207031 C 266.328125 313.953125 264.992188 311.117188 263.289062 308.375 C 262.148438 306.539062 260.738281 304.804688 260.253906 302.648438 C 259.742188 300.367188 260.101562 298.019531 260.09375 295.714844 C 260.070312 289.320312 259.511719 282.128906 261.527344 275.992188 C 264.640625 266.523438 272.707031 258.949219 277.542969 250.300781 C 282.605469 241.246094 287.980469 231.496094 290.296875 221.316406 C 293.882812 205.546875 291.296875 189.207031 287.757812 173.679688 C 284.695312 160.261719 280.664062 147.179688 276.882812 133.957031 C 273.992188 123.847656 271.097656 113.726562 267.980469 103.679688 Z M 267.980469 103.679688 " fill-opacity="1" fill-rule="evenodd"/><path fill="#372b29" d="M 278.265625 138.757812 C 274.644531 139.445312 271.109375 139.886719 267.722656 140.054688 C 256.824219 140.601562 244.929688 138.753906 234.664062 135.015625 C 220.042969 129.691406 207.335938 122.441406 196.371094 111.25 C 197.886719 106.484375 199.308594 101.6875 200.476562 96.820312 C 201.238281 93.644531 202.429688 88.214844 206.375 87.410156 C 208.503906 86.972656 209.539062 89.902344 210.078125 91.421875 C 211.914062 96.613281 214.65625 101.402344 220.015625 103.648438 C 228.320312 107.128906 240.632812 108.222656 249.128906 105.09375 C 255.027344 102.921875 260.0625 99.027344 265.585938 96.105469 C 265.660156 96.578125 265.746094 97.046875 265.84375 97.515625 C 266.65625 99.550781 267.339844 101.605469 267.984375 103.679688 C 271.097656 113.726562 273.992188 123.847656 276.882812 133.957031 C 277.34375 135.558594 277.804688 137.160156 278.265625 138.757812 Z M 278.265625 138.757812 " fill-opacity="0.4" fill-rule="evenodd"/><path fill="#372b29" d="M 74.378906 258.503906 C 74.242188 258.359375 74.25 258.125 74.398438 257.988281 C 74.542969 257.851562 74.777344 257.859375 74.914062 258.007812 C 75.394531 258.464844 75.703125 259.039062 75.886719 259.660156 C 76.144531 260.550781 76.113281 261.546875 75.972656 262.441406 C 75.667969 264.058594 75.039062 265.574219 74.199219 266.972656 C 73.871094 267.523438 73.511719 268.058594 73.121094 268.566406 C 72.542969 269.328125 71.898438 270.035156 71.265625 270.730469 C 71.125 270.902344 70.871094 270.929688 70.699219 270.789062 C 70.527344 270.648438 70.5 270.398438 70.640625 270.222656 C 71.179688 269.476562 71.691406 268.699219 72.203125 267.917969 C 72.703125 267.152344 73.191406 266.378906 73.609375 265.570312 C 74.160156 264.511719 74.617188 263.40625 74.855469 262.222656 C 75.03125 261.480469 75.109375 260.648438 74.964844 259.878906 C 74.875 259.382812 74.707031 258.90625 74.378906 258.503906 Z M 74.378906 258.503906 " fill-opacity="1" fill-rule="evenodd"/><path fill="#372b29" d="M 31.316406 264.582031 C 31.320312 264.378906 31.484375 264.21875 31.6875 264.21875 C 31.886719 264.222656 32.050781 264.386719 32.046875 264.589844 C 32.054688 265.222656 32.054688 265.859375 32.046875 266.492188 C 32.039062 267.441406 32.015625 268.390625 31.992188 269.339844 C 31.980469 269.78125 31.863281 270.25 31.851562 270.699219 C 31.847656 270.914062 31.875 271.125 31.988281 271.320312 C 32.277344 271.835938 32.824219 272.15625 33.433594 272.398438 C 34.449219 272.804688 35.660156 272.976562 36.519531 273.15625 C 37.847656 273.4375 39.1875 273.683594 40.535156 273.894531 C 41.882812 274.105469 43.234375 274.285156 44.585938 274.425781 C 45.945312 274.566406 47.292969 274.710938 48.625 274.613281 C 49.472656 274.550781 50.3125 274.390625 51.144531 274.0625 C 51.78125 273.8125 52.363281 273.410156 52.910156 272.949219 C 53.777344 272.214844 54.5625 271.332031 55.292969 270.566406 C 55.875 269.960938 56.492188 269.359375 57.132812 268.773438 C 58.082031 267.90625 59.074219 267.070312 60.039062 266.28125 C 60.207031 266.136719 60.460938 266.160156 60.605469 266.328125 C 60.75 266.496094 60.730469 266.75 60.5625 266.894531 C 59.792969 267.578125 59.011719 268.296875 58.25 269.035156 C 57.492188 269.773438 56.75 270.527344 56.074219 271.289062 C 55.335938 272.109375 54.554688 273.054688 53.667969 273.832031 C 53.027344 274.390625 52.335938 274.859375 51.582031 275.164062 C 50.636719 275.546875 49.679688 275.738281 48.710938 275.8125 C 47.3125 275.917969 45.890625 275.769531 44.457031 275.617188 C 43.089844 275.46875 41.714844 275.28125 40.347656 275.054688 C 38.980469 274.832031 37.621094 274.566406 36.277344 274.265625 C 35.367188 274.0625 34.085938 273.855469 33.019531 273.398438 C 32.183594 273.039062 31.476562 272.535156 31.09375 271.8125 C 30.945312 271.53125 30.878906 271.238281 30.867188 270.941406 C 30.84375 270.398438 31.023438 269.832031 31.058594 269.300781 C 31.121094 268.355469 31.183594 267.414062 31.234375 266.46875 C 31.269531 265.839844 31.296875 265.210938 31.316406 264.582031 Z M 31.316406 264.582031 " fill-opacity="1" fill-rule="evenodd"/><path fill="#372b29" d="M 35.109375 265.199219 C 35.0625 265.003906 35.183594 264.808594 35.378906 264.757812 C 35.574219 264.710938 35.773438 264.832031 35.820312 265.027344 C 36.050781 265.710938 36.25 266.382812 36.363281 267.070312 C 36.484375 267.773438 36.519531 268.480469 36.515625 269.1875 C 36.511719 269.890625 36.472656 270.597656 36.347656 271.296875 C 36.226562 271.980469 36.019531 272.644531 35.800781 273.328125 C 35.753906 273.542969 35.539062 273.679688 35.324219 273.628906 C 35.105469 273.582031 34.972656 273.367188 35.019531 273.148438 C 35.109375 272.472656 35.136719 271.808594 35.191406 271.144531 C 35.242188 270.484375 35.304688 269.828125 35.320312 269.167969 C 35.335938 268.511719 35.3125 267.855469 35.273438 267.191406 C 35.238281 266.53125 35.210938 265.875 35.109375 265.199219 Z M 35.109375 265.199219 " fill-opacity="1" fill-rule="evenodd"/><path fill="#372b29" d="M 42.074219 267.335938 C 42.039062 267.136719 42.171875 266.949219 42.371094 266.914062 C 42.570312 266.878906 42.757812 267.011719 42.792969 267.210938 C 42.960938 267.820312 43.109375 268.429688 43.175781 269.0625 C 43.242188 269.695312 43.230469 270.335938 43.175781 270.96875 C 43.117188 271.605469 43.023438 272.242188 42.832031 272.851562 C 42.640625 273.464844 42.355469 274.035156 42.03125 274.59375 C 41.941406 274.792969 41.703125 274.882812 41.5 274.792969 C 41.300781 274.703125 41.210938 274.464844 41.300781 274.261719 C 41.488281 273.707031 41.585938 273.136719 41.703125 272.5625 C 41.816406 271.996094 41.925781 271.429688 41.984375 270.851562 C 42.046875 270.273438 42.066406 269.691406 42.078125 269.109375 C 42.09375 268.511719 42.113281 267.925781 42.070312 267.335938 Z M 42.074219 267.335938 " fill-opacity="1" fill-rule="evenodd"/><path fill="#372b29" d="M 48.765625 268.855469 C 48.761719 268.65625 48.921875 268.488281 49.121094 268.484375 C 49.320312 268.476562 49.488281 268.636719 49.496094 268.839844 C 49.5625 269.335938 49.640625 269.871094 49.640625 270.441406 C 49.640625 271.238281 49.523438 272.074219 49.308594 272.859375 C 49.210938 273.226562 49.09375 273.582031 48.929688 273.910156 C 48.660156 274.4375 48.308594 274.890625 47.898438 275.269531 C 47.757812 275.4375 47.503906 275.457031 47.335938 275.316406 C 47.167969 275.171875 47.144531 274.917969 47.289062 274.75 C 47.503906 274.425781 47.636719 274.058594 47.78125 273.679688 C 47.921875 273.316406 48.046875 272.9375 48.152344 272.542969 C 48.34375 271.832031 48.457031 271.082031 48.554688 270.363281 C 48.628906 269.832031 48.722656 269.328125 48.765625 268.855469 Z M 48.765625 268.855469 " fill-opacity="1" fill-rule="evenodd"/><path fill="#372b29" d="M 2.175781 264.152344 C 2.046875 263.996094 2.070312 263.765625 2.226562 263.640625 C 2.382812 263.511719 2.613281 263.535156 2.738281 263.691406 C 3.289062 264.347656 3.859375 264.988281 4.4375 265.621094 C 6.769531 268.171875 9.269531 270.566406 11.519531 273.191406 C 15.085938 277.394531 18.621094 281.679688 22.328125 285.792969 C 24.792969 288.527344 27.332031 291.191406 30.027344 293.683594 C 30.601562 294.214844 31.191406 294.738281 31.804688 295.222656 C 32.410156 295.699219 33.042969 296.140625 33.714844 296.523438 C 34.578125 297.019531 35.53125 297.34375 36.382812 297.84375 C 36.785156 298.078125 37.167969 298.351562 37.515625 298.691406 C 38.324219 299.480469 38.941406 300.351562 39.46875 301.265625 C 40.636719 303.28125 41.347656 305.523438 42.886719 307.476562 C 44.460938 309.496094 46.191406 311.375 47.992188 313.1875 C 50.71875 315.925781 53.613281 318.5 56.4375 321.109375 C 56.605469 321.257812 56.617188 321.511719 56.46875 321.675781 C 56.320312 321.839844 56.066406 321.851562 55.902344 321.703125 C 53.011719 319.148438 50.042969 316.628906 47.257812 313.933594 C 45.390625 312.121094 43.605469 310.230469 41.976562 308.199219 C 40.390625 306.207031 39.640625 303.925781 38.4375 301.867188 C 37.957031 301.042969 37.402344 300.261719 36.675781 299.554688 C 36.398438 299.285156 36.09375 299.066406 35.773438 298.878906 C 34.925781 298.382812 33.976562 298.058594 33.117188 297.566406 C 32.539062 297.234375 31.984375 296.863281 31.453125 296.464844 C 30.671875 295.875 29.929688 295.226562 29.210938 294.5625 C 26.496094 292.035156 23.929688 289.347656 21.460938 286.570312 C 17.769531 282.425781 14.285156 278.082031 10.753906 273.835938 C 8.5625 271.171875 6.121094 268.738281 3.847656 266.148438 C 3.277344 265.496094 2.71875 264.832031 2.175781 264.152344 Z M 2.175781 264.152344 " fill-opacity="1" fill-rule="evenodd"/><path fill="#ffe9df" d="M 234.996094 260.457031 C 240.902344 254.761719 241.289062 236.644531 241.40625 228.554688 C 241.53125 219.925781 240.359375 211.339844 240.386719 202.757812 C 240.394531 200.800781 243.996094 200.542969 243.890625 199.089844 C 243.757812 197.328125 241.230469 196.542969 241.023438 195.226562 C 240.761719 193.578125 247.675781 188.582031 249.132812 187.054688 C 249.261719 186.921875 251.3125 184.65625 251.128906 184.46875 C 248.648438 181.941406 239.59375 185.109375 236.285156 183.414062 C 234.847656 182.679688 235.878906 174.980469 235.832031 173.164062 C 235.828125 173.019531 235.550781 169.96875 235.546875 169.96875 C 231.816406 171.417969 228.902344 175.332031 225.878906 177.867188 C 225.207031 178.433594 223.457031 180.507812 222.316406 180.207031 C 218.929688 179.324219 215.582031 173.570312 213.519531 170.996094 C 212.898438 170.222656 209.359375 166.417969 209.273438 166.625 C 207.8125 170.046875 211.605469 176.085938 210.011719 178.226562 C 206.863281 182.445312 193.746094 178.335938 190.46875 182.253906 C 189.777344 183.082031 192.050781 186.078125 192.433594 186.585938 C 193.933594 188.574219 199.65625 192.824219 200.222656 195.015625 C 201.035156 198.167969 193.761719 204.296875 191.820312 206.527344 C 191.367188 207.046875 188.890625 209 188.910156 209.847656 C 189.027344 214.441406 199.210938 209.714844 196.308594 217.292969 C 195.5 219.402344 194.191406 221.082031 192.761719 222.785156 C 192.585938 223 190.621094 225.972656 190.761719 226.015625 C 192.886719 226.703125 197.398438 223.542969 199.152344 222.464844 C 199.902344 222.003906 200.628906 221.496094 201.390625 221.042969 C 201.859375 220.765625 202.859375 219.695312 202.820312 220.242188 C 202.632812 222.6875 199.472656 226.191406 198.183594 228.296875 C 194.910156 233.652344 192.167969 239.40625 189.28125 244.980469 C 183.136719 256.855469 182.242188 267.410156 180.625 280.425781 C 178.703125 295.917969 188.421875 294.925781 200.855469 285.582031 C 209.667969 278.957031 217.839844 271.863281 227.023438 266.042969 C 230.773438 263.78125 233.273438 262.125 234.996094 260.460938 Z M 234.996094 260.457031 " fill-opacity="1" fill-rule="evenodd"/><path fill="#ffa572" d="M 326.363281 58.933594 C 326.613281 58.804688 326.800781 58.71875 327.167969 58.605469 C 330.335938 57.617188 328.945312 61.71875 328.535156 62.929688 C 325.863281 70.75 323.648438 80.839844 318.847656 87.523438 C 316.46875 90.832031 312.789062 92.898438 309.128906 94.496094 C 307.121094 95.371094 305.265625 96.53125 303.152344 97.144531 C 298.582031 98.472656 293.652344 98.855469 288.925781 98.335938 C 286.871094 98.113281 284.679688 97.769531 282.789062 96.894531 C 280.113281 95.65625 277.949219 93.375 275.753906 91.464844 C 273.597656 89.589844 271.5 87.546875 270.144531 85.003906 C 266.160156 77.542969 268.261719 68.492188 267.453125 60.441406 C 267.25 58.425781 266.847656 56.476562 266.15625 54.570312 C 265.773438 53.507812 264.851562 52.195312 264.992188 51.035156 C 265.15625 49.726562 266.546875 48.859375 267.652344 48.394531 C 270.59375 47.144531 273.863281 47.179688 276.8125 45.824219 C 280.933594 43.933594 284.550781 41.070312 288.230469 38.464844 C 292.523438 35.417969 297.058594 32.480469 301.789062 30.152344 C 304.273438 28.929688 309.984375 26.570312 312.496094 28.492188 C 313.570312 29.316406 313.683594 30.933594 314.046875 32.136719 C 315.210938 35.957031 314.90625 40.011719 315.703125 43.898438 C 316.777344 49.140625 320.640625 52.585938 324.085938 56.378906 C 324.835938 57.207031 325.324219 58.230469 325.964844 59.136719 C 326.125 59.054688 326.253906 58.988281 326.367188 58.933594 Z M 326.363281 58.933594 " fill-opacity="1" fill-rule="evenodd"/><path fill="#d66e1c" d="M 328.71875 68.007812 C 324.371094 66.921875 321.316406 63.167969 318.84375 59.664062 C 315.242188 54.550781 312.839844 48.898438 311.265625 42.851562 C 310.328125 39.25 309.976562 35.5625 309.171875 31.945312 C 298.359375 39.195312 286.566406 45.207031 274.535156 50.1875 C 273.839844 50.476562 273.15625 50.792969 272.460938 51.074219 C 269.582031 52.25 262.632812 54.945312 262.253906 49.480469 C 262.199219 48.707031 262.363281 47.929688 262.515625 47.175781 C 265.207031 33.851562 275.597656 20.5 288.742188 16.160156 C 295.410156 13.960938 304.019531 13.90625 310.621094 16.375 C 319.671875 19.753906 327.621094 27.613281 330.921875 36.738281 C 334.492188 46.601562 333.34375 58.652344 328.75 68.015625 C 328.738281 68.015625 328.726562 68.011719 328.71875 68.007812 Z M 328.71875 68.007812 " fill-opacity="1" fill-rule="evenodd"/><path fill="#372b29" d="M 328.71875 68.007812 C 324.371094 66.921875 321.316406 63.167969 318.84375 59.664062 C 315.242188 54.550781 312.839844 48.898438 311.265625 42.851562 C 310.328125 39.25 309.976562 35.5625 309.171875 31.945312 C 298.359375 39.195312 286.566406 45.207031 274.535156 50.1875 C 273.839844 50.476562 273.15625 50.792969 272.460938 51.074219 C 269.582031 52.25 262.632812 54.945312 262.253906 49.480469 C 262.199219 48.707031 262.363281 47.929688 262.515625 47.175781 C 265.207031 33.851562 275.597656 20.5 288.742188 16.160156 C 295.410156 13.960938 304.019531 13.90625 310.621094 16.375 C 319.671875 19.753906 327.621094 27.613281 330.921875 36.738281 C 334.492188 46.601562 333.34375 58.652344 328.75 68.015625 C 328.738281 68.015625 328.726562 68.011719 328.71875 68.007812 Z M 328.71875 68.007812 " fill-opacity="0.6" fill-rule="evenodd"/><path fill="#ffa572" d="M 321.480469 78.390625 C 322.050781 76.441406 322.632812 74.492188 323.484375 72.648438 C 324.4375 69.875 325.472656 67.554688 328.136719 65.664062 C 328.929688 65.101562 329.761719 64.519531 330.699219 64.222656 C 334.175781 63.113281 335.605469 66.089844 335.554688 69.050781 C 335.527344 70.933594 334.867188 72.722656 334.234375 74.46875 C 333.328125 76.984375 332.183594 79.847656 330.375 81.871094 C 328.472656 84 326.261719 85.074219 323.425781 84.417969 C 322.445312 84.1875 321.195312 83.515625 320.839844 82.503906 C 320.375 81.179688 321.105469 79.648438 321.480469 78.390625 Z M 321.480469 78.390625 " fill-opacity="1" fill-rule="evenodd"/><path fill="#ffa572" d="M 352.902344 190.816406 C 352.785156 189.875 352.582031 188.980469 352.207031 188.210938 C 349.796875 183.265625 338.703125 183.261719 334.417969 183.609375 C 334.257812 183.566406 334.097656 183.523438 333.933594 183.484375 C 329.40625 182.382812 324.628906 183.101562 320.0625 183.460938 C 317.902344 183.628906 313.132812 182.636719 312.933594 185.355469 C 312.699219 188.609375 312.628906 191.84375 312.5625 195.109375 C 301.832031 184.824219 292.273438 173.144531 280.03125 164.667969 C 277.511719 162.921875 274.550781 162.15625 272.042969 160.421875 C 266.917969 156.886719 262.027344 151.542969 255.964844 149.644531 C 252.957031 148.703125 249.488281 148.820312 246.359375 148.820312 C 243.261719 148.816406 240.265625 148.464844 237.199219 148.078125 C 235.957031 147.925781 234.261719 147.421875 233.203125 148.320312 C 231.757812 149.550781 233.355469 151.667969 234.605469 152.277344 C 237.4375 153.65625 240.820312 153.945312 243.75 155.179688 C 244.371094 155.441406 246.347656 155.9375 246.394531 156.890625 C 246.492188 158.71875 241.625 158.085938 240.703125 158.152344 C 234.246094 158.621094 227.613281 159.859375 221.136719 159.578125 C 219.398438 159.503906 214.726562 158.957031 213.589844 160.570312 C 212.421875 162.222656 215.542969 164.402344 216.820312 164.8125 C 218.859375 165.460938 221.027344 165.378906 223.128906 165.636719 C 226.511719 166.050781 229.867188 166.640625 233.257812 166.972656 C 227.839844 167.683594 222.378906 168.796875 217.074219 170.113281 C 215.960938 170.386719 212.238281 170.855469 212.671875 172.691406 C 213.144531 174.703125 216.402344 174.472656 217.972656 174.523438 C 223.152344 174.691406 228.226562 174.269531 233.390625 174.136719 C 230.996094 174.285156 228.636719 174.71875 226.25 174.945312 C 223.363281 175.222656 220.140625 175.402344 217.417969 176.492188 C 215.519531 177.25 213.074219 179.742188 216.015625 181.203125 C 218.058594 182.21875 221.183594 181.175781 223.347656 181.039062 C 228.941406 180.691406 235.027344 179.898438 240.609375 180.726562 C 238.832031 182.199219 236.578125 183.085938 234.511719 184.082031 C 231.328125 185.617188 228.09375 187.039062 224.902344 188.542969 C 224.027344 188.953125 222.855469 189.476562 222.289062 190.300781 C 221.613281 191.285156 222.105469 192.304688 223.238281 192.578125 C 223.71875 192.691406 224.222656 192.730469 224.710938 192.789062 C 230.558594 193.476562 235.683594 190.058594 241.113281 188.609375 C 248.09375 186.746094 255.59375 187.15625 262.738281 186.304688 C 265.804688 185.941406 269.136719 184.824219 271.792969 186.964844 C 287.476562 199.582031 299.519531 216.152344 314.789062 229.253906 C 321.804688 235.269531 330.785156 242.332031 340.515625 242.363281 C 349.800781 242.390625 354.65625 235.980469 355.761719 227.3125 C 357.105469 216.753906 354.578125 206.40625 353.207031 195.992188 C 353.046875 194.472656 353.125 192.566406 352.90625 190.8125 Z M 352.902344 190.816406 " fill-opacity="1" fill-rule="evenodd"/><path fill="#ffe9df" d="M 301.921875 113.582031 C 300.574219 114.824219 299.292969 116.132812 298.175781 117.589844 C 296.230469 120.121094 294.871094 122.855469 293.640625 125.777344 C 291.15625 136.203125 294.386719 146.445312 296.992188 156.886719 C 298.6875 163.679688 300.261719 170.53125 302.644531 177.125 C 304.121094 181.199219 306.542969 185.011719 307.507812 189.253906 C 308.054688 191.660156 307.542969 195.613281 309.441406 197.46875 C 310.597656 198.601562 312.414062 198.898438 313.929688 199.222656 C 317.421875 199.964844 320.78125 200.222656 324.335938 200.367188 C 333.226562 200.726562 342.125 200.8125 351.019531 200.671875 C 354.375 200.617188 358.933594 201.089844 361.472656 198.40625 C 362.652344 197.160156 361.550781 194.5 361.101562 193.152344 C 359.425781 188.15625 357.890625 183.257812 356.558594 178.148438 C 351.023438 156.933594 347.324219 134.214844 333.496094 116.519531 C 330.34375 112.484375 326.132812 108.28125 320.855469 107.257812 C 317.4375 106.601562 313.246094 107.652344 309.980469 108.636719 C 306.808594 109.59375 304.332031 111.359375 301.921875 113.582031 Z M 301.921875 113.582031 " fill-opacity="1" fill-rule="evenodd"/><path fill="#ffa572" d="M 212.132812 135.046875 C 214.957031 134.902344 217.75 135.6875 220.109375 137.28125 C 224.425781 139.546875 228.296875 142.707031 232.929688 144.34375 C 234.300781 144.828125 235.847656 145.15625 237.304688 144.96875 C 237.789062 144.90625 238.628906 144.714844 238.679688 144.109375 C 238.753906 143.234375 237.421875 142.234375 236.855469 141.765625 C 234.652344 139.945312 232.21875 138.582031 229.789062 137.097656 C 229.28125 136.789062 226.730469 135.359375 227.738281 134.472656 C 228.980469 133.382812 231.4375 135.59375 232.351562 136.246094 C 234.761719 137.953125 237.152344 139.707031 239.691406 141.222656 C 241.039062 142.023438 242.539062 142.9375 244.160156 142.921875 C 244.453125 142.917969 244.75 142.898438 245.03125 142.820312 C 247.859375 142.027344 244.222656 139.363281 243.335938 138.621094 C 242.984375 138.328125 242.613281 138.050781 242.253906 137.765625 C 241.046875 136.800781 239.898438 135.777344 238.714844 134.789062 C 236.707031 133.109375 234.679688 131.449219 232.722656 129.710938 C 233.867188 127.617188 235.875 129.417969 237.285156 130.421875 C 241.324219 133.292969 245.160156 136.621094 249.824219 138.511719 C 251.222656 139.082031 254.992188 139.261719 253.6875 136.789062 C 253.199219 135.859375 251.90625 135.285156 251.109375 134.660156 C 250.207031 133.949219 249.296875 133.238281 248.421875 132.492188 C 246.796875 131.113281 245.1875 129.714844 243.570312 128.320312 C 241.027344 126.132812 238.644531 123.777344 236.097656 121.585938 C 237.117188 119.796875 238.949219 121.277344 240.09375 122.125 C 243.402344 124.570312 246.511719 127.390625 250.0625 129.488281 C 251.292969 130.214844 254.597656 131.5 255.320312 129.472656 C 255.609375 128.664062 254.476562 127.792969 253.992188 127.277344 C 252.339844 125.503906 250.386719 124.019531 248.5625 122.4375 C 246.847656 120.949219 245.148438 119.441406 243.476562 117.90625 C 242.4375 116.957031 241.472656 115.914062 240.273438 115.15625 C 237.476562 113.390625 234.117188 112.78125 230.996094 111.835938 C 227.960938 110.921875 225.054688 109.605469 221.953125 108.90625 C 217.976562 108.011719 213.199219 108.386719 209.449219 110.035156 C 203.230469 112.769531 197.339844 120.050781 192.265625 124.558594 C 184.429688 131.519531 176.300781 138.363281 170.746094 147.398438 C 169.867188 148.832031 168.910156 150.289062 168.21875 151.828125 C 165.613281 157.625 163.480469 170.800781 172.3125 172.859375 C 177.777344 174.136719 182.273438 167.828125 185.09375 164.238281 C 191.035156 156.675781 197.195312 148.832031 203.757812 141.808594 C 206.164062 139.234375 208.203125 135.246094 212.132812 135.046875 Z M 212.132812 135.046875 " fill-opacity="1" fill-rule="evenodd"/><path fill="#d66e1c" d="M 271.125 81.058594 C 271.042969 80.152344 270.972656 79.246094 270.882812 78.332031 C 269.816406 67.457031 269.445312 55.300781 263.046875 45.976562 C 259.914062 41.410156 254.679688 37.988281 249.566406 36.039062 C 237.226562 31.335938 221.71875 34.273438 211.992188 43.246094 C 199.648438 54.628906 193.613281 70.535156 188.542969 86.367188 C 187.332031 90.140625 184.605469 94.46875 184.992188 98.519531 C 185.347656 102.285156 189.222656 103.625 192.503906 102.851562 C 198.503906 101.433594 201.925781 94.550781 206.125 90.601562 C 206.675781 95.722656 208.605469 100.792969 211.941406 104.773438 C 214.1875 107.457031 217.152344 109.589844 220.21875 111.242188 C 229.003906 115.980469 240.941406 118.230469 250.339844 114.011719 C 255.453125 111.714844 259.429688 107.332031 262.867188 102.824219 C 263.542969 104.09375 264.386719 105.625 265.644531 106.398438 C 268.914062 108.40625 272.355469 106.128906 273.195312 102.726562 C 274.375 97.964844 273.191406 93.042969 272.21875 88.351562 C 271.71875 85.941406 271.347656 83.511719 271.125 81.058594 Z M 271.125 81.058594 " fill-opacity="1" fill-rule="evenodd"/><path fill="#ff5d57" d="M 226.386719 91.996094 C 226.03125 93.886719 225.996094 95.816406 226.007812 97.730469 C 226.03125 100.703125 226.644531 103.941406 228.429688 105.992188 C 231.910156 109.992188 238.941406 110.203125 243.035156 107.042969 C 245.75 104.945312 247.289062 101.667969 247.9375 98.347656 C 248.816406 93.851562 247.277344 89.320312 244.730469 85.636719 C 243.703125 84.152344 242.445312 82.691406 240.703125 82.023438 C 236.644531 80.472656 230.871094 83.003906 228.484375 86.429688 C 227.941406 87.203125 227.5625 88.140625 227.269531 89.113281 C 226.859375 90.007812 226.578125 90.984375 226.386719 91.996094 Z M 226.386719 91.996094 " fill-opacity="1" fill-rule="evenodd"/><path fill="#ffe9df" d="M 243.429688 57.429688 C 239.308594 55.730469 233.78125 55.894531 229.675781 57.582031 C 221.5625 60.90625 219.199219 71.726562 217.515625 79.324219 C 216.347656 84.582031 214.226562 92.75 220.6875 95.394531 C 225.777344 97.476562 230.6875 93.902344 233.582031 89.863281 C 234.453125 88.648438 235.167969 87.328125 236.027344 86.105469 C 236.164062 85.910156 236.671875 84.980469 236.9375 84.929688 C 237.3125 84.859375 237.839844 85.957031 237.976562 86.199219 C 238.722656 87.503906 239.328125 88.90625 240.21875 90.117188 C 242.753906 93.566406 246.777344 97.542969 251.464844 96.5625 C 254.308594 95.972656 256.390625 92.75 258.046875 90.539062 C 258.652344 89.730469 259.363281 88.808594 259.605469 87.804688 C 259.996094 86.167969 259.507812 84.261719 259.277344 82.632812 C 258.136719 74.609375 254.082031 65.652344 247.863281 60.347656 C 246.546875 59.222656 245.039062 58.097656 243.429688 57.425781 Z M 243.429688 57.429688 " fill-opacity="1" fill-rule="evenodd"/><path fill="#372b29" d="M 245.929688 71.207031 C 246.320312 69.335938 247.070312 67.023438 246.507812 65.140625 C 246.003906 63.433594 244.230469 62.34375 242.617188 61.839844 C 239.898438 60.992188 237.25 60.882812 234.425781 61.238281 C 231.417969 61.613281 228.066406 62.566406 227.316406 65.945312 C 227.09375 66.945312 227.425781 68.085938 227.609375 69.074219 C 227.925781 70.769531 228.179688 72.8125 229.480469 74.078125 C 230.5 75.074219 232.109375 75.476562 233.429688 75.878906 C 237.359375 77.070312 242.644531 77.171875 245.273438 73.308594 C 245.363281 73.171875 245.441406 73.035156 245.511719 72.898438 C 245.671875 72.339844 245.808594 71.773438 245.929688 71.207031 Z M 245.929688 71.207031 " fill-opacity="1" fill-rule="evenodd"/><path fill="#ffa572" d="M 111.984375 312.445312 C 114.007812 311.363281 116.210938 310.652344 118.273438 309.648438 C 121.449219 308.105469 124.492188 306.300781 127.773438 304.976562 C 128.558594 304.660156 130.746094 303.164062 131.640625 303.785156 C 133.167969 304.847656 133.410156 307.199219 134.273438 308.734375 C 135.570312 311.035156 137.234375 313.125 138.242188 315.59375 C 139.136719 317.773438 139.660156 320.191406 140.433594 322.429688 C 141.128906 324.453125 143.972656 327.238281 141.421875 328.84375 C 137.859375 331.078125 133.503906 332.363281 129.757812 334.296875 C 129.398438 334.480469 125.9375 336.277344 125.488281 335.765625 C 124.8125 335 126.664062 332.339844 126.933594 331.585938 C 127.769531 329.246094 127.582031 326.207031 125.933594 324.242188 C 123.289062 321.097656 119.394531 319.972656 115.882812 318.136719 C 114.363281 317.339844 113.402344 316.117188 112.101562 315.050781 C 111.65625 314.683594 110.875 314.320312 110.855469 313.65625 C 110.847656 313.390625 110.953125 313.160156 111.109375 312.949219 C 111.390625 312.773438 111.683594 312.601562 111.984375 312.445312 Z M 111.984375 312.445312 " fill-opacity="1" fill-rule="evenodd"/><path fill="#372b29" d="M 254.507812 286.964844 C 256.410156 286.238281 258.304688 285.496094 260.246094 284.960938 C 275.882812 293.929688 289.652344 306.320312 307.339844 311.257812 C 314.570312 313.273438 322.304688 314.277344 329.601562 311.984375 C 333.152344 310.871094 336.382812 308.964844 339.398438 306.808594 C 342.945312 304.28125 346.179688 301.328125 349.128906 298.125 C 351.515625 295.53125 353.960938 292.796875 355.429688 289.554688 C 356.03125 288.234375 356.445312 286.828125 356.613281 285.386719 C 357.992188 273.652344 345.1875 266.699219 336.59375 261.871094 C 323.351562 254.433594 309.058594 249.035156 295.195312 242.847656 C 289.160156 240.152344 282.980469 237.9375 276.785156 235.644531 C 273.242188 234.332031 268.980469 232.585938 265.144531 232.730469 C 253.074219 233.1875 240.320312 241.828125 229.957031 247.402344 C 212.332031 256.886719 195.9375 268.492188 178.261719 277.863281 C 168.601562 282.984375 159.351562 287.378906 149.453125 292.320312 C 144.417969 294.835938 138.792969 296.355469 133.800781 298.9375 C 132.710938 299.5 131.628906 300.148438 130.746094 301.007812 C 128.894531 302.804688 129.085938 305.363281 129.898438 307.636719 C 131.121094 311.066406 133.558594 313.8125 135.390625 316.90625 C 137.300781 320.128906 138.570312 323.78125 139.949219 327.242188 C 140.707031 329.152344 142.074219 331.078125 144.378906 330.496094 C 148.273438 329.515625 151.453125 326.964844 155.140625 325.480469 C 168.832031 319.957031 182 314.890625 195.648438 309.269531 C 203.707031 305.949219 212.21875 302.929688 220.339844 300.058594 C 231.832031 295.992188 243.105469 291.265625 254.507812 286.964844 Z M 254.507812 286.964844 " fill-opacity="1" fill-rule="evenodd"/><path fill="#ffe9df" d="M 129.964844 322.835938 C 131.164062 325.160156 133.574219 328.921875 132.546875 331.605469 C 132.070312 332.859375 130.957031 333.765625 129.972656 334.625 C 128.855469 335.597656 129.886719 337.515625 128.566406 338.75 C 127.804688 339.464844 126.914062 340.03125 126.035156 340.59375 C 122.851562 342.652344 119.546875 344.9375 116.113281 346.554688 C 114.042969 347.527344 111.808594 347.90625 111.257812 350.414062 C 110.359375 354.5 106.847656 358.210938 103.988281 361.097656 C 102.519531 362.589844 98.332031 366.421875 96.152344 364.855469 C 95.097656 364.09375 94.601562 362.597656 94.007812 361.488281 C 92.808594 359.246094 91.5 357.070312 90.261719 354.851562 C 89.097656 352.773438 87.566406 350.941406 86.414062 348.851562 C 84.636719 345.632812 83.300781 342.183594 81.398438 339.027344 C 78.910156 334.902344 75.765625 330.980469 75.523438 325.957031 C 75.347656 322.359375 79.648438 321.882812 82.203125 320.929688 C 84.175781 320.191406 86.011719 319.105469 87.929688 318.242188 C 93.210938 315.871094 98.433594 313.5 103.507812 310.660156 C 106.328125 309.078125 110.257812 306.136719 113.472656 305.59375 C 116.613281 305.066406 121.34375 307.296875 121.347656 310.9375 C 121.347656 312.867188 120.035156 314.636719 118.929688 316.09375 C 120.355469 315.585938 122.117188 315.113281 123.636719 315.558594 C 125.480469 316.101562 127.109375 317.96875 128.382812 319.863281 C 128.902344 320.828125 129.441406 321.820312 129.96875 322.839844 Z M 129.964844 322.835938 " fill-opacity="1" fill-rule="evenodd"/><path fill="#372b29" d="M 304.277344 53.332031 C 304.117188 53.453125 303.890625 53.425781 303.765625 53.269531 C 303.640625 53.109375 303.667969 52.878906 303.824219 52.757812 C 304.585938 52.074219 305.421875 51.550781 306.316406 51.222656 C 307.257812 50.878906 308.257812 50.75 309.246094 50.785156 C 310.226562 50.824219 311.214844 51.023438 312.132812 51.425781 C 313.011719 51.808594 313.816406 52.378906 314.546875 53.066406 C 314.71875 53.207031 314.742188 53.460938 314.601562 53.628906 C 314.460938 53.800781 314.207031 53.824219 314.039062 53.683594 C 313.308594 53.160156 312.511719 52.796875 311.703125 52.507812 C 310.882812 52.21875 310.042969 52.023438 309.191406 51.980469 C 308.339844 51.9375 307.488281 52.039062 306.652344 52.265625 C 305.832031 52.492188 305.027344 52.816406 304.277344 53.328125 Z M 304.277344 53.332031 " fill-opacity="1" fill-rule="evenodd"/><path fill="#372b29" d="M 289.382812 50.28125 C 289.515625 50.433594 289.5 50.664062 289.347656 50.792969 C 289.191406 50.925781 288.960938 50.910156 288.832031 50.757812 C 288.109375 50.015625 287.285156 49.515625 286.421875 49.160156 C 285.535156 48.789062 284.59375 48.597656 283.625 48.566406 C 282.667969 48.535156 281.691406 48.671875 280.730469 48.898438 C 279.765625 49.125 278.804688 49.421875 277.910156 49.859375 C 277.71875 49.964844 277.472656 49.898438 277.363281 49.703125 C 277.253906 49.511719 277.324219 49.265625 277.515625 49.15625 C 278.425781 48.574219 279.398438 48.082031 280.425781 47.769531 C 281.488281 47.449219 282.59375 47.324219 283.667969 47.371094 C 284.789062 47.417969 285.886719 47.660156 286.878906 48.160156 C 287.824219 48.636719 288.667969 49.34375 289.382812 50.28125 Z M 289.382812 50.28125 " fill-opacity="1" fill-rule="evenodd"/><path fill="#372b29" d="M 295.011719 60.707031 C 295.050781 60.507812 295.242188 60.378906 295.4375 60.417969 C 295.636719 60.457031 295.765625 60.652344 295.726562 60.847656 C 295.601562 61.757812 295.457031 62.625 295.203125 63.46875 C 294.945312 64.324219 294.574219 65.144531 294.089844 65.957031 C 293.71875 66.554688 292.992188 67.21875 292.53125 67.910156 C 292.375 68.140625 292.25 68.371094 292.222656 68.609375 C 292.195312 68.84375 292.296875 69.058594 292.445312 69.261719 C 292.625 69.503906 292.871094 69.734375 293.144531 69.9375 C 293.773438 70.402344 294.523438 70.761719 295.039062 70.886719 C 295.257812 70.925781 295.402344 71.132812 295.363281 71.351562 C 295.328125 71.570312 295.117188 71.714844 294.902344 71.675781 C 294.160156 71.589844 292.957031 71.191406 292.113281 70.550781 C 291.386719 70 290.964844 69.253906 291.035156 68.484375 C 291.078125 68.0625 291.261719 67.644531 291.535156 67.238281 C 291.996094 66.558594 292.730469 65.917969 293.101562 65.335938 C 293.578125 64.617188 293.921875 63.882812 294.21875 63.128906 C 294.527344 62.347656 294.789062 61.554688 295.011719 60.707031 Z M 295.011719 60.707031 " fill-opacity="1" fill-rule="evenodd"/><path fill="#372b29" d="M 283.320312 79.496094 C 283.1875 79.347656 283.203125 79.113281 283.351562 78.980469 C 283.503906 78.851562 283.734375 78.863281 283.867188 79.015625 C 284.308594 79.484375 284.855469 79.875 285.441406 80.226562 C 286.339844 80.761719 287.332031 81.1875 288.21875 81.550781 C 289.304688 82.019531 290.441406 82.378906 291.605469 82.644531 C 293.335938 83.039062 295.128906 83.210938 296.910156 83.148438 C 298.097656 83.109375 299.277344 82.960938 300.4375 82.722656 C 302.191406 82.363281 303.898438 81.800781 305.46875 80.945312 C 305.65625 80.835938 305.902344 80.898438 306.015625 81.089844 C 306.128906 81.28125 306.0625 81.527344 305.875 81.636719 C 304.277344 82.644531 302.527344 83.398438 300.691406 83.847656 C 299.472656 84.148438 298.214844 84.304688 296.953125 84.351562 C 295.066406 84.421875 293.164062 84.226562 291.339844 83.777344 C 290.109375 83.476562 288.917969 83.054688 287.785156 82.53125 C 286.878906 82.09375 285.863281 81.59375 284.960938 80.96875 C 284.339844 80.539062 283.769531 80.050781 283.320312 79.496094 Z M 283.320312 79.496094 " fill-opacity="1" fill-rule="evenodd"/><path fill="#372b29" d="M 328.953125 68.289062 C 328.78125 68.394531 328.558594 68.335938 328.453125 68.160156 C 328.351562 67.988281 328.40625 67.765625 328.582031 67.660156 C 329.785156 66.878906 331.039062 66.71875 331.929688 67.109375 C 332.886719 67.53125 333.5 68.589844 333.234375 70.355469 C 332.992188 71.8125 332.328125 73.421875 331.464844 74.9375 C 330.617188 76.417969 329.582031 77.796875 328.621094 78.863281 C 328.238281 79.273438 327.847656 79.480469 327.441406 79.570312 C 327.0625 79.652344 326.675781 79.636719 326.277344 79.582031 C 325.847656 79.527344 325.402344 79.417969 324.9375 79.46875 C 324.679688 79.496094 324.449219 79.613281 324.242188 79.769531 C 323.996094 79.964844 323.777344 80.203125 323.585938 80.429688 C 323.453125 80.605469 323.199219 80.640625 323.023438 80.503906 C 322.851562 80.371094 322.816406 80.117188 322.953125 79.941406 C 323.199219 79.589844 323.503906 79.21875 323.859375 78.941406 C 324.136719 78.722656 324.449219 78.574219 324.796875 78.507812 C 325.535156 78.375 326.257812 78.574219 326.925781 78.511719 C 327.21875 78.484375 327.492188 78.375 327.746094 78.078125 C 328.652344 77.0625 329.617188 75.738281 330.425781 74.339844 C 331.226562 72.953125 331.882812 71.492188 332.125 70.15625 C 332.351562 69.03125 332.105469 68.296875 331.507812 67.988281 C 330.855469 67.648438 329.910156 67.769531 328.953125 68.289062 Z M 328.953125 68.289062 " fill-opacity="1" fill-rule="evenodd"/><path fill="#372b29" d="M 338.199219 124.269531 C 338.085938 124.105469 338.128906 123.875 338.296875 123.765625 C 338.464844 123.652344 338.691406 123.695312 338.804688 123.863281 C 342.363281 129.027344 344.949219 134.65625 346.996094 140.511719 C 350.042969 149.238281 351.90625 158.460938 354.285156 167.316406 C 355.035156 170.132812 355.839844 172.933594 356.679688 175.722656 C 357.519531 178.515625 358.390625 181.300781 359.28125 184.078125 C 360.039062 186.449219 360.714844 188.824219 361.480469 191.179688 C 361.800781 192.179688 362.140625 193.175781 362.511719 194.167969 C 362.722656 194.734375 363.34375 195.65625 363.65625 196.480469 C 363.851562 197 363.921875 197.492188 363.816406 197.882812 C 363.691406 198.332031 363.40625 198.738281 362.976562 199.085938 C 362.359375 199.589844 361.417969 199.988281 360.308594 200.277344 C 357.226562 201.078125 352.824219 201.113281 351.128906 201.03125 C 350.90625 201.023438 350.734375 200.835938 350.742188 200.617188 C 350.75 200.394531 350.9375 200.222656 351.160156 200.230469 C 352.589844 200.273438 355.996094 200.191406 358.820312 199.625 C 359.90625 199.40625 360.90625 199.117188 361.660156 198.730469 C 362.25 198.425781 362.691406 198.078125 362.808594 197.613281 C 362.863281 197.402344 362.777344 197.140625 362.664062 196.859375 C 362.339844 196.039062 361.703125 195.125 361.480469 194.558594 C 360.964844 193.222656 360.5 191.875 360.058594 190.519531 C 359.40625 188.503906 358.8125 186.472656 358.152344 184.441406 C 357.253906 181.660156 356.371094 178.871094 355.527344 176.066406 C 354.683594 173.265625 353.878906 170.453125 353.128906 167.621094 C 350.804688 158.777344 348.941406 149.589844 346.003906 140.851562 C 344.046875 135.042969 341.625 129.429688 338.199219 124.269531 Z M 338.199219 124.269531 " fill-opacity="1" fill-rule="evenodd"/><path fill="#372b29" d="M 337.28125 121.230469 C 337.398438 121.394531 337.359375 121.625 337.195312 121.738281 C 337.03125 121.855469 336.800781 121.816406 336.683594 121.652344 C 334.472656 118.574219 331.75 114.878906 328.605469 111.898438 C 326.5 109.90625 324.210938 108.238281 321.742188 107.316406 C 320.503906 106.851562 319.125 106.773438 317.726562 106.90625 C 315.59375 107.109375 313.421875 107.808594 311.621094 108.488281 C 307.707031 109.964844 304.191406 111.789062 301.339844 114.292969 C 298.511719 116.773438 296.339844 119.921875 295.089844 124.058594 C 293.453125 129.429688 293.34375 135.015625 293.980469 140.621094 C 294.9375 149.042969 297.597656 157.511719 299.671875 165.3125 C 299.730469 165.527344 299.605469 165.746094 299.390625 165.804688 C 299.175781 165.863281 298.957031 165.738281 298.898438 165.523438 C 296.699219 157.703125 293.847656 149.226562 292.816406 140.757812 C 292.113281 134.996094 292.265625 129.242188 293.941406 123.710938 C 295.269531 119.339844 297.566406 116.015625 300.5625 113.402344 C 303.519531 110.820312 307.164062 108.933594 311.222656 107.417969 C 313.109375 106.714844 315.390625 106 317.628906 105.804688 C 319.191406 105.667969 320.738281 105.789062 322.121094 106.324219 C 324.695312 107.324219 327.089844 109.09375 329.261719 111.214844 C 332.402344 114.28125 335.09375 118.074219 337.28125 121.230469 Z M 337.28125 121.230469 " fill-opacity="1" fill-rule="evenodd"/><path fill="#372b29" d="M 300.933594 173.519531 C 300.867188 173.328125 300.96875 173.121094 301.160156 173.058594 C 301.351562 172.992188 301.558594 173.09375 301.621094 173.285156 C 301.988281 174.269531 302.386719 175.238281 302.792969 176.199219 C 303.449219 177.75 304.148438 179.273438 304.839844 180.800781 C 305.886719 183.109375 306.910156 185.425781 307.839844 187.792969 C 308.550781 189.644531 308.710938 191.554688 308.921875 193.277344 C 309.078125 194.511719 309.253906 195.640625 309.773438 196.558594 C 310.488281 197.816406 311.84375 198.636719 314.601562 198.828125 C 314.824219 198.835938 314.996094 199.023438 314.988281 199.246094 C 314.976562 199.464844 314.789062 199.636719 314.570312 199.628906 C 311.3125 199.574219 309.703125 198.574219 308.8125 197.125 C 308.1875 196.101562 307.933594 194.828125 307.742188 193.429688 C 307.523438 191.796875 307.398438 189.980469 306.722656 188.222656 C 305.9375 186.15625 305.054688 184.144531 304.195312 182.117188 C 303.617188 180.757812 303.046875 179.394531 302.511719 178.015625 C 301.933594 176.539062 301.40625 175.042969 300.933594 173.519531 Z M 300.933594 173.519531 " fill-opacity="1" fill-rule="evenodd"/><path fill="#372b29" d="M 295.15625 109.855469 C 295.332031 109.757812 295.554688 109.828125 295.648438 110.007812 C 295.742188 110.183594 295.671875 110.40625 295.496094 110.5 C 293.890625 111.382812 291.609375 112.574219 290.191406 114.214844 C 289.3125 115.230469 288.773438 116.425781 289.058594 117.863281 C 289.152344 118.347656 289.335938 118.777344 289.5625 119.1875 C 289.941406 119.871094 290.425781 120.496094 290.84375 121.179688 C 290.929688 121.324219 290.949219 121.5 290.894531 121.660156 C 289.074219 127.089844 287.179688 132.554688 285.457031 138.058594 C 284.3125 141.722656 283.222656 145.394531 282.402344 149.125 C 282.355469 149.339844 282.144531 149.480469 281.925781 149.4375 C 281.710938 149.390625 281.570312 149.179688 281.613281 148.964844 C 282.320312 145.179688 283.234375 141.425781 284.332031 137.714844 C 285.945312 132.265625 287.910156 126.898438 289.71875 121.546875 C 289.335938 120.933594 288.910156 120.351562 288.570312 119.722656 C 288.296875 119.210938 288.078125 118.667969 287.972656 118.0625 C 287.671875 116.269531 288.324219 114.78125 289.457031 113.558594 C 291 111.886719 293.4375 110.71875 295.152344 109.855469 Z M 295.15625 109.855469 " fill-opacity="1" fill-rule="evenodd"/><path fill="#372b29" d="M 255.207031 157.019531 C 255.398438 156.953125 255.605469 157.050781 255.671875 157.242188 C 255.742188 157.429688 255.640625 157.640625 255.453125 157.707031 C 254.667969 158.042969 253.863281 158.214844 253.046875 158.304688 C 252.5625 158.359375 252.078125 158.378906 251.589844 158.386719 C 250.894531 158.398438 250.191406 158.378906 249.488281 158.410156 C 248.554688 158.445312 247.621094 158.515625 246.6875 158.574219 C 246.058594 158.609375 245.429688 158.652344 244.800781 158.667969 C 243.742188 158.691406 242.6875 158.65625 241.628906 158.589844 C 241.410156 158.585938 241.230469 158.40625 241.230469 158.183594 C 241.234375 157.960938 241.414062 157.785156 241.636719 157.785156 C 242.570312 157.738281 243.496094 157.632812 244.425781 157.546875 C 245.050781 157.488281 245.671875 157.441406 246.296875 157.398438 C 247.347656 157.320312 248.398438 157.265625 249.449219 157.234375 C 250.152344 157.21875 250.847656 157.238281 251.542969 157.265625 C 252.214844 157.289062 252.882812 157.320312 253.550781 157.277344 C 254.105469 157.246094 254.65625 157.179688 255.207031 157.019531 Z M 255.207031 157.019531 " fill-opacity="1" fill-rule="evenodd"/><path fill="#372b29" d="M 240.929688 165.007812 C 241.121094 164.945312 241.324219 165.050781 241.386719 165.242188 C 241.453125 165.433594 241.34375 165.640625 241.15625 165.703125 C 239.992188 166.140625 238.796875 166.511719 237.574219 166.808594 C 235.773438 167.25 233.929688 167.550781 232.140625 167.945312 C 230.917969 168.195312 229.707031 168.5 228.492188 168.773438 C 227.964844 168.890625 227.4375 169.003906 226.90625 169.105469 C 225.722656 169.332031 224.527344 169.507812 223.324219 169.625 C 223.105469 169.65625 222.902344 169.503906 222.871094 169.28125 C 222.839844 169.066406 222.992188 168.859375 223.210938 168.828125 C 224.613281 168.570312 225.976562 168.191406 227.355469 167.835938 C 228.277344 167.597656 229.207031 167.378906 230.136719 167.160156 C 230.722656 167.023438 231.3125 166.894531 231.898438 166.773438 C 233.160156 166.523438 234.441406 166.296875 235.726562 166.074219 C 236.574219 165.925781 237.417969 165.777344 238.257812 165.613281 C 239.160156 165.4375 240.050781 165.25 240.929688 165.007812 Z M 240.929688 165.007812 " fill-opacity="1" fill-rule="evenodd"/><path fill="#372b29" d="M 239.511719 173.117188 C 239.710938 173.085938 239.898438 173.21875 239.929688 173.417969 C 239.964844 173.617188 239.828125 173.804688 239.628906 173.835938 C 239.023438 173.984375 238.425781 174.121094 237.8125 174.230469 C 237.410156 174.300781 237.003906 174.359375 236.597656 174.414062 C 235.890625 174.503906 235.183594 174.574219 234.472656 174.644531 C 233.773438 174.71875 233.070312 174.800781 232.371094 174.875 C 232 174.914062 231.628906 174.949219 231.253906 174.988281 C 230.695312 175.042969 230.140625 175.09375 229.582031 175.183594 C 229.367188 175.234375 229.152344 175.097656 229.101562 174.882812 C 229.046875 174.667969 229.179688 174.453125 229.398438 174.402344 C 229.996094 174.207031 230.589844 174.03125 231.199219 173.894531 C 231.601562 173.804688 232.007812 173.734375 232.417969 173.671875 C 233.128906 173.566406 233.847656 173.5 234.5625 173.4375 C 235.269531 173.375 235.980469 173.320312 236.691406 173.269531 C 237.066406 173.246094 237.441406 173.226562 237.820312 173.210938 C 238.386719 173.179688 238.949219 173.160156 239.511719 173.117188 Z M 239.511719 173.117188 " fill-opacity="1" fill-rule="evenodd"/><path fill="#372b29" d="M 327.292969 209.515625 C 327.425781 209.667969 327.414062 209.898438 327.261719 210.03125 C 327.113281 210.167969 326.882812 210.152344 326.75 210.003906 C 326.027344 209.28125 325.273438 208.574219 324.53125 207.835938 C 323.445312 206.757812 322.355469 205.65625 321.21875 204.621094 C 320.710938 204.164062 320.195312 203.71875 319.6875 203.269531 C 318.910156 202.589844 318.148438 201.914062 317.339844 201.308594 C 317.152344 201.1875 317.101562 200.9375 317.222656 200.753906 C 317.34375 200.570312 317.59375 200.519531 317.78125 200.640625 C 318.683594 201.164062 319.574219 201.726562 320.421875 202.371094 C 320.976562 202.796875 321.507812 203.261719 322.027344 203.734375 C 323.183594 204.792969 324.296875 205.917969 325.324219 207.089844 C 326.019531 207.886719 326.65625 208.710938 327.292969 209.515625 Z M 327.292969 209.515625 " fill-opacity="1" fill-rule="evenodd"/><path fill="#372b29" d="M 328.753906 205.070312 C 328.925781 205.171875 328.984375 205.394531 328.878906 205.570312 C 328.777344 205.742188 328.554688 205.796875 328.378906 205.695312 C 328.023438 205.542969 327.667969 205.410156 327.320312 205.242188 C 326.976562 205.078125 326.644531 204.894531 326.316406 204.707031 C 325.726562 204.375 325.128906 204.054688 324.558594 203.691406 C 324.171875 203.453125 323.824219 203.171875 323.441406 202.921875 C 323.242188 202.824219 323.160156 202.585938 323.253906 202.386719 C 323.351562 202.1875 323.589844 202.101562 323.789062 202.199219 C 324.238281 202.34375 324.679688 202.480469 325.109375 202.675781 C 325.394531 202.800781 325.660156 202.953125 325.929688 203.109375 C 326.527344 203.453125 327.117188 203.808594 327.679688 204.210938 C 328.054688 204.480469 328.390625 204.78125 328.753906 205.070312 Z M 328.753906 205.070312 " fill-opacity="1" fill-rule="evenodd"/><path fill="#372b29" d="M 170.644531 190.886719 C 170.707031 190.695312 170.910156 190.589844 171.101562 190.648438 C 171.292969 190.710938 171.402344 190.914062 171.339844 191.109375 C 169.90625 195.8125 168.8125 200.644531 167.875 205.519531 C 167.175781 209.164062 166.566406 212.832031 165.972656 216.496094 C 165.378906 220.1875 164.796875 223.867188 164.179688 227.511719 C 162.449219 237.574219 160.941406 247.574219 159.746094 257.605469 C 159.265625 261.628906 158.835938 265.65625 158.460938 269.699219 C 157.902344 275.730469 157.460938 281.789062 157.210938 287.898438 C 157.203125 288.121094 157.019531 288.292969 156.796875 288.289062 C 156.574219 288.28125 156.402344 288.09375 156.410156 287.875 C 156.558594 281.742188 156.871094 275.65625 157.359375 269.605469 C 157.691406 265.546875 158.097656 261.503906 158.566406 257.464844 C 159.734375 247.410156 161.289062 237.394531 163.03125 227.3125 C 163.667969 223.675781 164.253906 219.996094 164.878906 216.3125 C 165.5 212.644531 166.15625 208.972656 166.914062 205.328125 C 167.925781 200.4375 169.121094 195.597656 170.644531 190.886719 Z M 170.644531 190.886719 " fill-opacity="1" fill-rule="evenodd"/><path fill="#372b29" d="M 150.289062 290.625 C 150.3125 290.824219 150.171875 291.007812 149.972656 291.03125 C 149.773438 291.054688 149.589844 290.914062 149.566406 290.714844 C 148.960938 286.40625 148.558594 282.101562 148.425781 277.796875 C 148.289062 273.460938 148.417969 269.132812 148.773438 264.824219 C 149.132812 260.511719 149.714844 256.21875 150.574219 251.96875 C 151.429688 247.742188 152.566406 243.570312 153.90625 239.433594 C 153.972656 239.222656 154.199219 239.101562 154.410156 239.167969 C 154.621094 239.234375 154.738281 239.457031 154.675781 239.667969 C 153.460938 243.808594 152.503906 247.988281 151.71875 252.191406 C 150.933594 256.410156 150.332031 260.65625 149.964844 264.925781 C 149.601562 269.191406 149.464844 273.476562 149.519531 277.773438 C 149.578125 282.046875 149.8125 286.332031 150.289062 290.625 Z M 150.289062 290.625 " fill-opacity="1" fill-rule="evenodd"/><path fill="#372b29" d="M 164.324219 326.59375 C 164.449219 326.4375 164.679688 326.414062 164.835938 326.542969 C 164.992188 326.671875 165.015625 326.902344 164.886719 327.054688 C 164.253906 327.914062 163.457031 328.652344 162.664062 329.390625 C 162.164062 329.855469 161.664062 330.320312 161.21875 330.824219 C 160.769531 331.335938 160.375 331.890625 160.109375 332.542969 C 159.488281 334.035156 159.894531 335.34375 160.78125 336.246094 C 161.164062 336.632812 161.625 336.957031 162.140625 337.1875 C 162.90625 337.535156 163.777344 337.707031 164.652344 337.605469 C 164.871094 337.566406 165.078125 337.714844 165.113281 337.933594 C 165.148438 338.152344 165 338.359375 164.78125 338.394531 C 163.570312 338.65625 162.316406 338.488281 161.253906 337.984375 C 160.769531 337.753906 160.328125 337.449219 159.953125 337.085938 C 158.71875 335.898438 158.175781 334.101562 159.019531 332.085938 C 159.351562 331.316406 159.820312 330.652344 160.378906 330.058594 C 160.871094 329.539062 161.421875 329.066406 161.992188 328.609375 C 162.800781 327.960938 163.640625 327.351562 164.324219 326.59375 Z M 164.324219 326.59375 " fill-opacity="1" fill-rule="evenodd"/><path fill="#372b29" d="M 158.1875 327.929688 C 158.324219 327.78125 158.558594 327.777344 158.703125 327.914062 C 158.847656 328.054688 158.855469 328.285156 158.71875 328.429688 C 158.128906 329.125 157.425781 329.703125 156.695312 330.25 C 156.007812 330.765625 155.304688 331.253906 154.691406 331.832031 C 154.402344 332.109375 154.132812 332.398438 153.898438 332.726562 C 153.054688 333.890625 152.882812 335.050781 153.226562 336.03125 C 153.378906 336.460938 153.613281 336.859375 153.941406 337.210938 C 154.410156 337.710938 155.03125 338.128906 155.796875 338.394531 C 156.007812 338.457031 156.132812 338.675781 156.070312 338.890625 C 156.011719 339.101562 155.789062 339.226562 155.574219 339.167969 C 154.4375 338.90625 153.507812 338.367188 152.859375 337.648438 C 152.535156 337.289062 152.289062 336.878906 152.117188 336.4375 C 151.625 335.148438 151.820312 333.578125 152.941406 332.03125 C 153.371094 331.457031 153.882812 330.96875 154.449219 330.535156 C 154.945312 330.15625 155.472656 329.816406 156.007812 329.480469 C 156.769531 329.003906 157.539062 328.542969 158.1875 327.929688 Z M 158.1875 327.929688 " fill-opacity="1" fill-rule="evenodd"/><path fill="#372b29" d="M 241.082031 295.421875 C 241.101562 295.222656 241.277344 295.074219 241.480469 295.09375 C 241.679688 295.109375 241.828125 295.285156 241.8125 295.488281 C 241.753906 296.765625 241.722656 298.042969 241.683594 299.324219 C 241.65625 300.175781 241.625 301.027344 241.59375 301.878906 C 241.527344 303.796875 241.480469 305.714844 241.433594 307.632812 C 241.40625 308.914062 241.382812 310.191406 241.34375 311.472656 C 241.300781 312.808594 241.226562 314.140625 241.179688 315.476562 C 241.179688 315.699219 241 315.878906 240.777344 315.878906 C 240.558594 315.878906 240.378906 315.699219 240.378906 315.476562 C 240.3125 313.808594 240.226562 312.136719 240.210938 310.460938 C 240.191406 308.789062 240.238281 307.113281 240.292969 305.441406 C 240.347656 303.765625 240.417969 302.089844 240.550781 300.421875 C 240.679688 298.75 240.878906 297.085938 241.085938 295.425781 Z M 241.082031 295.421875 " fill-opacity="1" fill-rule="evenodd"/><path fill="#372b29" d="M 257.3125 319.773438 C 257.171875 319.628906 257.175781 319.398438 257.320312 319.257812 C 257.464844 319.117188 257.695312 319.121094 257.835938 319.265625 C 258.53125 319.90625 259.332031 320.46875 260.046875 321.121094 C 260.554688 321.589844 261.007812 322.101562 261.382812 322.671875 C 262.289062 324.109375 262.5 325.726562 262.195312 327.277344 C 262.074219 327.886719 261.878906 328.484375 261.609375 329.046875 C 261.207031 329.886719 260.65625 330.644531 260.042969 331.300781 C 259.898438 331.472656 259.644531 331.496094 259.476562 331.351562 C 259.304688 331.210938 259.285156 330.957031 259.425781 330.789062 C 259.90625 330.136719 260.289062 329.390625 260.585938 328.609375 C 260.78125 328.105469 260.929688 327.585938 261.023438 327.058594 C 261.25 325.785156 261.132812 324.464844 260.402344 323.285156 C 260.175781 322.902344 259.898438 322.554688 259.605469 322.21875 C 258.875 321.371094 258.03125 320.601562 257.3125 319.773438 Z M 257.3125 319.773438 " fill-opacity="1" fill-rule="evenodd"/><path fill="#372b29" d="M 267.230469 319.808594 C 267.082031 319.675781 267.066406 319.445312 267.199219 319.292969 C 267.335938 319.144531 267.566406 319.128906 267.714844 319.261719 C 268.640625 319.992188 269.457031 320.824219 270.078125 321.746094 C 270.761719 322.761719 271.207031 323.878906 271.386719 325 C 271.582031 326.1875 271.488281 327.40625 270.992188 328.550781 C 270.5625 329.535156 269.832031 330.453125 268.792969 331.28125 C 268.628906 331.429688 268.375 331.414062 268.230469 331.25 C 268.082031 331.085938 268.09375 330.832031 268.261719 330.683594 C 269.078125 329.867188 269.585938 328.996094 269.910156 328.117188 C 270.265625 327.152344 270.355469 326.167969 270.207031 325.1875 C 270.058594 324.207031 269.679688 323.25 269.148438 322.324219 C 268.636719 321.4375 268.007812 320.574219 267.230469 319.808594 Z M 267.230469 319.808594 " fill-opacity="1" fill-rule="evenodd"/><path fill="#372b29" d="M 79.328125 323.074219 C 79.25 322.890625 79.339844 322.675781 79.523438 322.597656 C 79.710938 322.519531 79.921875 322.609375 80 322.796875 C 80.4375 323.792969 80.925781 324.765625 81.4375 325.730469 C 82.636719 327.996094 83.972656 330.191406 85.183594 332.449219 C 86.871094 335.671875 88.554688 338.898438 90.285156 342.101562 C 91.4375 344.230469 92.609375 346.351562 93.828125 348.445312 C 94.371094 349.382812 94.933594 350.308594 95.503906 351.230469 C 96.414062 352.714844 97.347656 354.179688 98.277344 355.652344 C 99.679688 357.867188 101.070312 360.085938 102.398438 362.34375 C 102.515625 362.53125 102.457031 362.78125 102.269531 362.894531 C 102.078125 363.011719 101.832031 362.953125 101.714844 362.765625 C 99.671875 359.546875 97.457031 356.4375 95.378906 353.242188 C 94.484375 351.863281 93.625 350.464844 92.792969 349.046875 C 91.566406 346.941406 90.386719 344.8125 89.238281 342.664062 C 87.519531 339.449219 85.878906 336.195312 84.21875 332.949219 C 83.238281 330.988281 82.160156 329.070312 81.167969 327.109375 C 80.496094 325.789062 79.871094 324.453125 79.328125 323.078125 Z M 79.328125 323.074219 " fill-opacity="1" fill-rule="evenodd"/><path fill="#372b29" d="M 97.71875 322.777344 C 97.550781 322.667969 97.503906 322.441406 97.613281 322.273438 C 97.722656 322.105469 97.949219 322.058594 98.117188 322.167969 C 99.910156 323.277344 101.589844 324.601562 103.117188 326.101562 C 104.128906 327.09375 105.070312 328.15625 105.941406 329.28125 C 108.128906 332.105469 109.859375 335.289062 111.085938 338.550781 C 111.65625 340.097656 112.226562 341.695312 112.527344 343.332031 C 112.730469 344.453125 112.808594 345.59375 112.695312 346.738281 C 112.59375 347.699219 112.339844 348.632812 111.996094 349.539062 C 111.5 350.847656 110.8125 352.101562 110.171875 353.316406 C 110.074219 353.515625 109.832031 353.59375 109.632812 353.496094 C 109.4375 353.398438 109.355469 353.15625 109.453125 352.957031 C 110.023438 351.75 110.625 350.496094 111.054688 349.203125 C 111.328125 348.371094 111.53125 347.515625 111.589844 346.644531 C 111.667969 345.601562 111.5625 344.570312 111.363281 343.550781 C 111.054688 341.984375 110.515625 340.449219 109.960938 338.972656 C 108.796875 335.804688 107.113281 332.730469 105.042969 329.964844 C 104.21875 328.863281 103.335938 327.804688 102.394531 326.8125 C 100.964844 325.304688 99.40625 323.933594 97.71875 322.777344 Z M 97.71875 322.777344 " fill-opacity="1" fill-rule="evenodd"/><path fill="#372b29" d="M 104.238281 325.804688 C 104.070312 325.914062 103.84375 325.863281 103.734375 325.691406 C 103.628906 325.523438 103.679688 325.296875 103.847656 325.191406 C 104.871094 324.507812 105.960938 323.851562 107.078125 323.253906 C 108.203125 322.65625 109.355469 322.117188 110.503906 321.664062 C 110.972656 321.480469 111.511719 321.1875 112.050781 321.042969 C 112.339844 320.96875 112.632812 320.933594 112.914062 320.957031 C 113.480469 321.003906 114.007812 321.265625 114.488281 321.652344 C 115.378906 322.382812 116.097656 323.589844 116.636719 324.351562 C 117.570312 325.683594 118.425781 327.03125 119.152344 328.4375 C 119.886719 329.859375 120.492188 331.34375 120.929688 332.9375 C 121.175781 333.84375 121.425781 334.753906 121.511719 335.671875 C 121.570312 336.324219 121.550781 336.980469 121.40625 337.640625 C 121.21875 338.484375 120.890625 339.191406 120.46875 339.820312 C 119.859375 340.730469 119.046875 341.480469 118.207031 342.308594 C 117.277344 343.210938 116.359375 344.09375 115.417969 344.949219 C 114.46875 345.808594 113.5 346.640625 112.480469 347.449219 C 112.308594 347.589844 112.058594 347.566406 111.914062 347.394531 C 111.773438 347.222656 111.796875 346.972656 111.96875 346.832031 C 112.746094 346.160156 113.484375 345.476562 114.210938 344.777344 C 115.304688 343.726562 116.359375 342.648438 117.425781 341.53125 C 118.191406 340.742188 118.929688 340.027344 119.484375 339.171875 C 119.824219 338.652344 120.09375 338.074219 120.242188 337.386719 C 120.359375 336.847656 120.367188 336.316406 120.316406 335.785156 C 120.234375 334.933594 120 334.089844 119.773438 333.253906 C 119.359375 331.742188 118.789062 330.332031 118.097656 328.980469 C 117.402344 327.617188 116.585938 326.304688 115.691406 325.011719 C 115.269531 324.402344 114.738281 323.480469 114.078125 322.796875 C 113.703125 322.40625 113.289062 322.085938 112.8125 322.035156 C 112.585938 322.011719 112.355469 322.058594 112.121094 322.128906 C 111.683594 322.265625 111.25 322.480469 110.863281 322.617188 C 109.734375 323.019531 108.59375 323.503906 107.480469 324.042969 C 106.363281 324.585938 105.269531 325.179688 104.242188 325.804688 Z M 104.238281 325.804688 " fill-opacity="1" fill-rule="evenodd"/><path fill="#372b29" d="M 106.148438 325.683594 C 105.992188 325.554688 105.96875 325.324219 106.097656 325.167969 C 106.226562 325.015625 106.457031 324.992188 106.613281 325.121094 C 108.234375 326.375 109.621094 327.933594 110.75 329.671875 C 111.871094 331.40625 112.730469 333.3125 113.429688 335.199219 C 114.039062 336.902344 114.566406 338.566406 114.804688 340.257812 C 115.050781 341.984375 115.007812 343.730469 114.609375 345.542969 C 114.566406 345.761719 114.359375 345.90625 114.140625 345.863281 C 113.921875 345.824219 113.777344 345.613281 113.820312 345.394531 C 114.023438 344.027344 113.992188 342.714844 113.824219 341.425781 C 113.746094 340.835938 113.640625 340.25 113.511719 339.664062 C 113.214844 338.316406 112.800781 336.972656 112.304688 335.609375 C 111.65625 333.789062 110.816406 331.96875 109.800781 330.265625 C 108.792969 328.566406 107.613281 326.976562 106.148438 325.683594 Z M 106.148438 325.683594 " fill-opacity="1" fill-rule="evenodd"/><path fill="#372b29" d="M 108.894531 323.652344 C 108.75 323.511719 108.746094 323.28125 108.882812 323.136719 C 109.023438 322.988281 109.253906 322.984375 109.398438 323.125 C 110.359375 323.976562 111.265625 324.882812 112.09375 325.859375 C 112.925781 326.839844 113.675781 327.882812 114.351562 328.972656 C 115.707031 331.160156 116.746094 333.539062 117.484375 335.996094 C 117.769531 337.039062 118.167969 338.238281 118.296875 339.421875 C 118.386719 340.273438 118.347656 341.113281 118.0625 341.886719 C 117.996094 342.097656 117.769531 342.214844 117.558594 342.148438 C 117.347656 342.078125 117.230469 341.855469 117.300781 341.640625 C 117.480469 340.976562 117.4375 340.269531 117.3125 339.5625 C 117.113281 338.441406 116.679688 337.316406 116.355469 336.335938 C 115.652344 333.96875 114.625 331.703125 113.363281 329.578125 C 112.730469 328.511719 112.039062 327.488281 111.292969 326.5 C 110.546875 325.507812 109.757812 324.546875 108.894531 323.652344 Z M 108.894531 323.652344 " fill-opacity="1" fill-rule="evenodd"/><path fill="#372b29" d="M 113.5625 318.515625 C 113.382812 318.597656 113.164062 318.519531 113.082031 318.332031 C 113 318.152344 113.078125 317.933594 113.261719 317.851562 C 114.679688 317.171875 116.0625 316.550781 117.5 316.042969 C 118.464844 315.703125 119.453125 315.414062 120.484375 315.1875 C 121.078125 315.0625 121.777344 314.921875 122.460938 314.871094 C 122.960938 314.835938 123.453125 314.855469 123.894531 314.949219 C 124.566406 315.097656 125.183594 315.453125 125.742188 315.910156 C 126.503906 316.53125 127.152344 317.359375 127.675781 318.066406 C 128.761719 319.554688 129.65625 321.039062 130.421875 322.582031 C 131.1875 324.125 131.824219 325.730469 132.40625 327.464844 C 132.703125 328.351562 133.046875 329.324219 133.136719 330.289062 C 133.203125 331.007812 133.132812 331.722656 132.835938 332.402344 C 132.316406 333.566406 131.535156 334.453125 130.585938 335.160156 C 128.542969 336.691406 125.742188 337.367188 123.589844 338.578125 C 123.398438 338.691406 123.152344 338.628906 123.039062 338.4375 C 122.925781 338.246094 122.992188 338 123.183594 337.886719 C 124.957031 336.792969 127.214844 336.0625 129.0625 334.890625 C 130.210938 334.164062 131.199219 333.265625 131.753906 331.933594 C 131.96875 331.4375 132.003906 330.921875 131.953125 330.402344 C 131.867188 329.527344 131.539062 328.648438 131.269531 327.84375 C 130.703125 326.164062 130.085938 324.609375 129.351562 323.109375 C 128.621094 321.621094 127.769531 320.1875 126.734375 318.75 C 126.269531 318.105469 125.699219 317.351562 125.019531 316.78125 C 124.605469 316.433594 124.148438 316.148438 123.648438 316.03125 C 123.300781 315.945312 122.914062 315.929688 122.523438 315.945312 C 121.890625 315.976562 121.238281 316.089844 120.683594 316.195312 C 119.429688 316.425781 118.246094 316.753906 117.078125 317.148438 C 115.898438 317.546875 114.742188 318.007812 113.5625 318.515625 Z M 113.5625 318.515625 " fill-opacity="1" fill-rule="evenodd"/><path fill="#372b29" d="M 236.121094 106.140625 C 236.148438 106.339844 236.011719 106.523438 235.808594 106.550781 C 235.609375 106.582031 235.425781 106.441406 235.398438 106.238281 C 235.21875 105.277344 235.082031 104.3125 235 103.335938 C 234.945312 102.6875 234.917969 102.039062 234.910156 101.386719 C 234.894531 100.167969 234.953125 98.949219 235.054688 97.738281 C 235.152344 96.523438 235.304688 95.320312 235.472656 94.121094 C 235.644531 93.128906 235.765625 92.109375 235.960938 91.105469 C 236.097656 90.417969 236.273438 89.742188 236.496094 89.089844 C 236.558594 88.875 236.78125 88.753906 236.992188 88.8125 C 237.203125 88.875 237.328125 89.097656 237.265625 89.308594 C 237.15625 89.789062 237.082031 90.277344 237.015625 90.769531 C 236.921875 91.460938 236.867188 92.164062 236.804688 92.859375 C 236.761719 93.339844 236.707031 93.816406 236.648438 94.285156 C 236.371094 96.242188 236.171875 98.226562 236.074219 100.210938 C 236.023438 101.199219 236 102.183594 236.007812 103.175781 C 236.011719 104.164062 236.035156 105.152344 236.121094 106.140625 Z M 236.121094 106.140625 " fill-opacity="1" fill-rule="evenodd"/><path fill="#372b29" d="M 250.851562 96.128906 C 251.050781 96.101562 251.234375 96.242188 251.261719 96.441406 C 251.289062 96.640625 251.148438 96.824219 250.949219 96.851562 C 250.492188 96.921875 250.027344 97.003906 249.558594 97.035156 C 249.226562 97.054688 248.894531 97.050781 248.5625 97 C 248.011719 96.917969 247.460938 96.742188 246.929688 96.511719 C 246.15625 96.175781 245.417969 95.722656 244.773438 95.265625 C 243.511719 94.367188 242.410156 93.363281 241.40625 92.265625 C 240.417969 91.175781 239.523438 89.996094 238.640625 88.75 C 238.214844 88.148438 237.832031 87.515625 237.488281 86.859375 C 237.324219 86.542969 237.164062 86.21875 237.015625 85.890625 C 236.78125 86.234375 236.542969 86.570312 236.300781 86.902344 C 235.617188 87.835938 234.894531 88.742188 234.167969 89.664062 C 233.253906 90.8125 232.371094 91.957031 231.367188 92.992188 C 230.683594 93.695312 229.949219 94.347656 229.117188 94.925781 C 228.285156 95.492188 227.378906 96.089844 226.402344 96.480469 C 225.71875 96.753906 225.003906 96.929688 224.265625 96.933594 C 223.632812 96.933594 223.050781 96.824219 222.492188 96.644531 C 221.683594 96.386719 220.929688 95.980469 220.167969 95.542969 C 219.972656 95.433594 219.902344 95.191406 220.007812 94.996094 C 220.113281 94.800781 220.355469 94.730469 220.550781 94.839844 C 221.273438 95.214844 221.988281 95.570312 222.75 95.78125 C 223.222656 95.910156 223.71875 95.976562 224.242188 95.953125 C 224.855469 95.929688 225.4375 95.757812 226 95.511719 C 226.886719 95.125 227.707031 94.539062 228.457031 93.992188 C 229.21875 93.445312 229.890625 92.828125 230.515625 92.171875 C 231.480469 91.15625 232.339844 90.039062 233.226562 88.917969 C 233.945312 88.007812 234.660156 87.117188 235.335938 86.195312 C 235.78125 85.589844 236.214844 84.96875 236.621094 84.328125 C 236.742188 84.136719 236.957031 84.03125 237.179688 84.050781 C 237.402344 84.074219 237.59375 84.214844 237.675781 84.421875 C 237.929688 85.066406 238.214844 85.699219 238.53125 86.316406 C 238.847656 86.929688 239.199219 87.523438 239.589844 88.085938 C 240.433594 89.304688 241.292969 90.453125 242.230469 91.527344 C 243.164062 92.59375 244.175781 93.585938 245.355469 94.472656 C 245.933594 94.917969 246.597656 95.363281 247.300781 95.699219 C 247.753906 95.917969 248.226562 96.09375 248.703125 96.183594 C 248.972656 96.238281 249.25 96.253906 249.523438 96.246094 C 249.972656 96.238281 250.417969 96.175781 250.851562 96.128906 Z M 250.851562 96.128906 " fill-opacity="1" fill-rule="evenodd"/><path fill="#372b29" d="M 206.421875 64.390625 C 206.421875 64.191406 206.582031 64.027344 206.785156 64.027344 C 206.984375 64.027344 207.148438 64.1875 207.152344 64.390625 C 207.203125 66.367188 207.203125 68.339844 207.144531 70.316406 C 207.089844 72.152344 206.988281 73.988281 206.886719 75.824219 C 206.734375 78.570312 206.5625 81.3125 206.496094 84.054688 C 206.464844 85.230469 206.453125 86.433594 206.46875 87.644531 C 206.488281 88.828125 206.535156 90.023438 206.648438 91.203125 C 206.804688 92.785156 207.066406 94.347656 207.535156 95.84375 C 207.605469 96.050781 207.492188 96.28125 207.285156 96.351562 C 207.074219 96.421875 206.847656 96.308594 206.773438 96.101562 C 206.070312 94.195312 205.65625 92.167969 205.453125 90.113281 C 205.25 88.074219 205.261719 86.011719 205.296875 84.023438 C 205.332031 82.710938 205.386719 81.394531 205.460938 80.078125 C 205.605469 77.457031 205.792969 74.839844 205.980469 72.222656 C 206.167969 69.613281 206.363281 67.007812 206.421875 64.390625 Z M 206.421875 64.390625 " fill-opacity="1" fill-rule="evenodd"/><path fill="#372b29" d="M 263.046875 63.484375 C 262.972656 63.300781 263.0625 63.085938 263.246094 63.011719 C 263.433594 62.933594 263.644531 63.019531 263.722656 63.207031 C 264.699219 65.449219 265.496094 67.929688 266.082031 70.546875 C 266.636719 73.007812 267.007812 75.582031 267.21875 78.167969 C 267.652344 83.523438 267.367188 88.9375 266.503906 93.539062 C 266.054688 95.769531 265.605469 98.042969 264.789062 100.15625 C 264.238281 101.597656 263.519531 102.960938 262.539062 104.195312 C 262.40625 104.371094 262.15625 104.40625 261.980469 104.273438 C 261.800781 104.136719 261.769531 103.886719 261.902344 103.710938 C 262.773438 102.507812 263.386719 101.191406 263.859375 99.820312 C 264.582031 97.730469 264.964844 95.503906 265.34375 93.320312 C 266.195312 88.808594 266.433594 83.507812 266.058594 78.257812 C 265.878906 75.714844 265.550781 73.183594 265.078125 70.757812 C 264.574219 68.179688 263.917969 65.714844 263.046875 63.484375 Z M 263.046875 63.484375 " fill-opacity="1" fill-rule="evenodd"/><path fill="#372b29" d="M 301.25 154.4375 C 301.328125 154.621094 301.242188 154.835938 301.058594 154.914062 C 300.875 154.996094 300.660156 154.910156 300.578125 154.722656 C 299.625 152.625 298.734375 150.136719 298.058594 147.433594 C 297.160156 143.8125 296.628906 139.820312 296.621094 135.957031 C 296.617188 134.195312 296.722656 132.457031 296.976562 130.796875 C 297.394531 128.066406 298.195312 125.546875 299.390625 123.40625 C 299.496094 123.210938 299.738281 123.136719 299.933594 123.242188 C 300.128906 123.34375 300.203125 123.585938 300.097656 123.785156 C 299.011719 125.960938 298.40625 128.527344 298.085938 131.265625 C 297.792969 133.777344 297.753906 136.433594 297.9375 139.09375 C 298.121094 141.742188 298.523438 144.386719 299.054688 146.878906 C 299.644531 149.664062 300.378906 152.257812 301.25 154.4375 Z M 301.25 154.4375 " fill-opacity="1" fill-rule="evenodd"/><path fill="#372b29" d="M 188.71875 94.117188 C 188.667969 94.3125 188.464844 94.425781 188.273438 94.375 C 188.078125 94.324219 187.960938 94.121094 188.015625 93.929688 C 189.140625 89.527344 190.527344 85.179688 192.167969 80.914062 C 194.621094 74.53125 197.59375 68.332031 200.675781 62.296875 C 201.496094 60.703125 202.371094 59.03125 203.34375 57.378906 C 204.285156 55.769531 205.316406 54.179688 206.433594 52.679688 C 207.972656 50.617188 209.691406 48.734375 211.613281 47.226562 C 211.785156 47.089844 212.039062 47.117188 212.179688 47.289062 C 212.320312 47.460938 212.292969 47.710938 212.121094 47.851562 C 210.304688 49.371094 208.710938 51.253906 207.273438 53.289062 C 206.21875 54.789062 205.253906 56.371094 204.351562 57.960938 C 203.414062 59.609375 202.542969 61.261719 201.738281 62.84375 C 199.164062 67.839844 196.707031 72.960938 194.488281 78.183594 C 193.605469 80.265625 192.761719 82.367188 191.960938 84.476562 C 190.757812 87.65625 189.652344 90.863281 188.71875 94.117188 Z M 188.71875 94.117188 " fill-opacity="1" fill-rule="evenodd"/><path fill="#372b29" d="M 214.996094 45.1875 C 214.847656 45.320312 214.617188 45.3125 214.480469 45.164062 C 214.34375 45.011719 214.355469 44.78125 214.503906 44.644531 C 215.789062 43.394531 217.199219 42.167969 218.746094 41.082031 C 220.253906 40.023438 221.878906 39.09375 223.570312 38.3125 C 225.273438 37.527344 227.042969 36.886719 228.847656 36.5 C 230.691406 36.105469 232.566406 35.980469 234.421875 36.101562 C 234.644531 36.109375 234.816406 36.292969 234.808594 36.515625 C 234.804688 36.738281 234.617188 36.910156 234.398438 36.902344 C 232.621094 36.90625 230.859375 37.199219 229.113281 37.636719 C 227.398438 38.070312 225.703125 38.660156 224.066406 39.402344 C 222.429688 40.144531 220.855469 41.035156 219.359375 41.996094 C 217.808594 42.988281 216.328125 44.050781 214.996094 45.1875 Z M 214.996094 45.1875 " fill-opacity="1" fill-rule="evenodd"/><path fill="#372b29" d="M 163.195312 247.648438 C 163.164062 247.84375 162.976562 247.980469 162.777344 247.949219 C 162.578125 247.917969 162.441406 247.730469 162.472656 247.53125 C 162.746094 245.65625 163.058594 243.785156 163.402344 241.921875 C 164.222656 237.453125 165.1875 233.015625 166.085938 228.566406 C 166.683594 225.609375 167.257812 222.648438 167.71875 219.664062 C 169.058594 211.199219 170.152344 202.605469 171.9375 194.179688 C 173.132812 188.542969 174.652344 182.992188 176.65625 177.578125 C 176.734375 177.371094 176.960938 177.261719 177.171875 177.335938 C 177.378906 177.410156 177.488281 177.640625 177.414062 177.847656 C 175.535156 183.261719 174.199219 188.8125 173.074219 194.414062 C 171.378906 202.84375 170.207031 211.398438 168.875 219.847656 C 168.425781 222.660156 167.886719 225.453125 167.296875 228.238281 C 166.746094 230.828125 166.160156 233.414062 165.582031 236 C 164.714844 239.863281 163.859375 243.734375 163.195312 247.648438 Z M 163.195312 247.648438 " fill-opacity="1" fill-rule="evenodd"/><path fill="#372b29" d="M 162.015625 252.378906 C 162.019531 252.179688 162.1875 252.019531 162.390625 252.023438 C 162.589844 252.03125 162.75 252.199219 162.746094 252.398438 C 162.75 254.050781 162.679688 255.714844 162.546875 257.386719 C 162.457031 258.488281 162.34375 259.589844 162.210938 260.695312 C 161.96875 262.738281 161.667969 264.792969 161.386719 266.84375 C 161.105469 268.886719 160.84375 270.933594 160.644531 272.96875 C 160.53125 274.140625 160.4375 275.304688 160.375 276.46875 C 160.277344 278.230469 160.242188 279.980469 160.347656 281.722656 C 160.367188 281.945312 160.203125 282.140625 159.984375 282.160156 C 159.761719 282.179688 159.566406 282.015625 159.546875 281.796875 C 159.34375 280.023438 159.253906 278.234375 159.28125 276.429688 C 159.296875 275.246094 159.363281 274.054688 159.464844 272.859375 C 159.636719 270.804688 159.910156 268.738281 160.203125 266.675781 C 160.496094 264.628906 160.808594 262.585938 161.101562 260.546875 C 161.257812 259.457031 161.410156 258.371094 161.546875 257.285156 C 161.753906 255.640625 161.929688 254.003906 162.015625 252.378906 Z M 162.015625 252.378906 " fill-opacity="1" fill-rule="evenodd"/><path fill="#372b29" d="M 191.632812 225.613281 C 191.554688 225.53125 191.46875 225.46875 191.464844 225.566406 C 191.464844 225.632812 191.539062 225.632812 191.632812 225.613281 Z M 191.835938 225.546875 C 191.890625 225.527344 191.9375 225.507812 191.953125 225.503906 C 192.214844 225.464844 192.472656 225.40625 192.730469 225.332031 C 193.136719 225.21875 193.539062 225.078125 193.933594 224.941406 C 194.308594 224.8125 194.652344 224.652344 194.980469 224.46875 C 195.515625 224.175781 196.015625 223.839844 196.566406 223.527344 C 197.347656 223.078125 198.152344 222.628906 198.925781 222.140625 C 199.433594 221.816406 199.925781 221.476562 200.386719 221.105469 C 200.671875 220.875 200.976562 220.632812 201.300781 220.429688 C 201.539062 220.285156 201.785156 220.160156 202.042969 220.078125 C 202.136719 220.046875 202.390625 219.972656 202.59375 219.976562 C 202.785156 219.984375 202.941406 220.050781 203.039062 220.15625 C 203.113281 220.238281 203.164062 220.339844 203.175781 220.464844 C 203.191406 220.628906 203.117188 220.867188 203.089844 220.96875 L 202.613281 222.382812 C 202.550781 222.574219 202.347656 222.679688 202.15625 222.617188 C 201.964844 222.558594 201.859375 222.351562 201.921875 222.160156 L 202.335938 220.8125 C 202.316406 220.816406 202.300781 220.824219 202.292969 220.824219 C 202.097656 220.894531 201.914062 220.996094 201.734375 221.109375 C 201.441406 221.300781 201.171875 221.53125 200.914062 221.75 C 200.4375 222.152344 199.929688 222.519531 199.402344 222.871094 C 198.628906 223.386719 197.824219 223.859375 197.039062 224.332031 C 196.492188 224.660156 195.988281 225.007812 195.457031 225.316406 C 195.082031 225.53125 194.691406 225.722656 194.265625 225.878906 C 193.855469 226.027344 193.4375 226.183594 193.015625 226.3125 C 192.722656 226.402344 192.421875 226.476562 192.121094 226.527344 C 192.015625 226.546875 191.496094 226.632812 191.285156 226.59375 C 191.074219 226.558594 190.949219 226.441406 190.878906 226.339844 C 190.773438 226.179688 190.722656 225.988281 190.71875 225.785156 C 190.71875 225.5 190.832031 225.175781 190.914062 224.957031 C 191.015625 224.703125 191.144531 224.457031 191.285156 224.226562 C 191.582031 223.730469 191.953125 223.28125 192.269531 222.800781 C 193.0625 221.605469 194.003906 220.394531 194.753906 219.105469 C 195.234375 218.28125 195.636719 217.425781 195.859375 216.519531 C 195.9375 216.1875 196.082031 215.816406 196.171875 215.449219 C 196.214844 215.269531 196.242188 215.085938 196.222656 214.917969 C 196.113281 214.058594 195.496094 213.640625 194.738281 213.375 C 193.34375 212.882812 191.515625 212.871094 190.445312 212.46875 C 190.023438 212.3125 189.296875 212.171875 188.816406 211.851562 C 188.480469 211.628906 188.242188 211.332031 188.15625 210.953125 C 188.023438 210.390625 188.15625 209.808594 188.464844 209.246094 C 188.992188 208.277344 190.074219 207.363281 190.648438 206.785156 C 192.242188 205.183594 193.863281 203.632812 195.394531 201.996094 C 196.398438 200.917969 197.367188 199.800781 198.253906 198.597656 L 198.875 197.628906 L 199.242188 197.03125 C 199.4375 196.695312 199.675781 196.351562 199.847656 195.984375 C 199.941406 195.789062 200.015625 195.585938 200.039062 195.375 C 200.109375 194.710938 199.734375 194.148438 199.242188 193.640625 C 198.367188 192.746094 197.101562 192.019531 196.363281 191.386719 C 195.742188 190.851562 195.152344 190.285156 194.582031 189.695312 C 193.734375 188.820312 192.933594 187.898438 192.148438 186.976562 C 191.46875 186.179688 190.136719 184.652344 189.9375 183.328125 C 189.828125 182.601562 190.007812 181.921875 190.699219 181.398438 C 190.875 181.265625 191.128906 181.296875 191.261719 181.472656 C 191.398438 181.644531 191.363281 181.898438 191.1875 182.035156 C 190.636719 182.46875 190.664062 183.066406 190.902344 183.667969 C 191.3125 184.707031 192.316406 185.757812 192.855469 186.363281 C 193.648438 187.25 194.453125 188.136719 195.300781 188.980469 C 195.863281 189.535156 196.441406 190.074219 197.046875 190.574219 C 197.960938 191.332031 199.609375 192.214844 200.5 193.367188 C 200.992188 193.996094 201.265625 194.703125 201.191406 195.488281 C 201.160156 195.832031 201.054688 196.160156 200.90625 196.480469 C 200.722656 196.878906 200.46875 197.257812 200.261719 197.621094 L 199.894531 198.222656 L 199.207031 199.300781 C 198.296875 200.542969 197.304688 201.699219 196.269531 202.8125 C 194.734375 204.464844 193.101562 206.019531 191.496094 207.632812 C 191.046875 208.085938 190.238281 208.757812 189.714844 209.5 C 189.441406 209.886719 189.226562 210.285156 189.316406 210.6875 C 189.359375 210.875 189.578125 210.933594 189.777344 211.011719 C 190.15625 211.164062 190.585938 211.253906 190.863281 211.359375 C 191.476562 211.59375 192.359375 211.683594 193.25 211.828125 C 194.195312 211.984375 195.148438 212.195312 195.886719 212.609375 C 196.683594 213.058594 197.246094 213.734375 197.375 214.777344 C 197.40625 215.015625 197.386719 215.261719 197.339844 215.507812 C 197.261719 215.949219 197.074219 216.398438 196.976562 216.796875 C 196.722656 217.808594 196.273438 218.765625 195.726562 219.683594 C 194.957031 220.984375 193.992188 222.207031 193.175781 223.410156 C 192.902344 223.8125 192.589844 224.195312 192.316406 224.597656 C 192.15625 224.835938 192.007812 225.085938 191.898438 225.355469 C 191.878906 225.402344 191.859375 225.472656 191.835938 225.550781 Z M 191.835938 225.546875 " fill-opacity="1" fill-rule="evenodd"/><path fill="#372b29" d="M 270.742188 204.203125 C 270.792969 204.007812 270.988281 203.886719 271.183594 203.9375 C 271.378906 203.984375 271.5 204.179688 271.453125 204.375 C 270.988281 206.542969 270.601562 208.832031 270.226562 211.179688 C 269.867188 213.417969 269.527344 215.714844 269.242188 218.015625 C 268.957031 220.316406 268.730469 222.625 268.519531 224.886719 C 268.300781 227.25 268.085938 229.5625 267.976562 231.78125 C 267.96875 232 267.785156 232.175781 267.5625 232.171875 C 267.34375 232.167969 267.167969 231.980469 267.171875 231.761719 C 267.167969 229.523438 267.203125 227.183594 267.355469 224.796875 C 267.503906 222.507812 267.757812 220.183594 268.054688 217.867188 C 268.355469 215.546875 268.710938 213.234375 269.148438 210.988281 C 269.605469 208.636719 270.160156 206.363281 270.742188 204.203125 Z M 270.742188 204.203125 " fill-opacity="1" fill-rule="evenodd"/><path fill="#ffe9df" d="M 82.917969 254.058594 C 82.792969 254.214844 82.5625 254.238281 82.40625 254.109375 C 82.25 253.980469 82.226562 253.75 82.355469 253.597656 C 83.878906 251.710938 85.5 249.914062 87.171875 248.164062 C 91.046875 244.105469 95.175781 240.273438 98.828125 236.011719 C 103.660156 230.441406 108.476562 224.902344 113.34375 219.433594 C 118.238281 213.9375 123.171875 208.503906 128.214844 203.160156 C 130.902344 200.308594 133.621094 197.488281 136.382812 194.695312 C 140.503906 190.527344 144.71875 186.433594 149.023438 182.394531 C 149.183594 182.242188 149.441406 182.25 149.59375 182.410156 C 149.746094 182.570312 149.738281 182.824219 149.578125 182.976562 C 145.347656 187.078125 141.226562 191.253906 137.167969 195.464844 C 134.445312 198.28125 131.75 201.117188 129.082031 203.972656 C 124.066406 209.328125 119.128906 214.75 114.230469 220.226562 C 109.355469 225.679688 104.507812 231.183594 99.65625 236.734375 C 95.394531 241.554688 90.535156 245.820312 86.117188 250.488281 C 85.019531 251.648438 83.945312 252.835938 82.917969 254.0625 Z M 82.917969 254.058594 " fill-opacity="1" fill-rule="evenodd"/><path fill="#ffe9df" d="M 153.476562 179.683594 C 153.324219 179.820312 153.09375 179.804688 152.960938 179.65625 C 152.824219 179.507812 152.835938 179.277344 152.988281 179.140625 C 153.671875 178.445312 154.335938 177.734375 155.042969 177.054688 C 156.09375 176.035156 157.1875 175.058594 158.285156 174.09375 C 158.777344 173.664062 159.269531 173.234375 159.777344 172.828125 C 160.546875 172.21875 161.34375 171.652344 162.136719 171.078125 C 162.308594 170.9375 162.5625 170.964844 162.703125 171.132812 C 162.84375 171.304688 162.816406 171.558594 162.648438 171.699219 C 161.902344 172.390625 161.191406 173.105469 160.445312 173.792969 C 159.699219 174.476562 158.925781 175.132812 158.164062 175.800781 C 157.402344 176.464844 156.640625 177.140625 155.859375 177.785156 C 155.078125 178.4375 154.269531 179.050781 153.476562 179.683594 Z M 153.476562 179.683594 " fill-opacity="1" fill-rule="evenodd"/><path fill="#ffe9df" d="M 140.785156 300.625 C 140.605469 300.714844 140.382812 300.640625 140.296875 300.457031 C 140.207031 300.277344 140.28125 300.058594 140.460938 299.96875 C 142.292969 298.996094 144.125 297.996094 145.996094 297.046875 C 148.777344 295.632812 151.613281 294.285156 154.46875 292.988281 C 155.738281 292.414062 157.011719 291.847656 158.296875 291.320312 C 160.242188 290.523438 162.207031 289.804688 164.167969 289.109375 C 164.375 289.027344 164.609375 289.132812 164.6875 289.339844 C 164.769531 289.546875 164.664062 289.777344 164.460938 289.859375 C 162.550781 290.660156 160.660156 291.527344 158.757812 292.382812 C 157.496094 292.953125 156.226562 293.511719 154.964844 294.082031 C 152.117188 295.371094 149.292969 296.714844 146.472656 298.027344 C 144.574219 298.910156 142.667969 299.757812 140.785156 300.625 Z M 140.785156 300.625 " fill-opacity="1" fill-rule="evenodd"/><path fill="#372b29" d="M 222.847656 54.40625 C 224.050781 54.40625 225.023438 55.554688 225.023438 56.96875 C 225.023438 58.382812 224.050781 59.527344 222.847656 59.527344 C 221.644531 59.527344 220.667969 58.382812 220.667969 56.96875 C 220.667969 55.554688 221.644531 54.40625 222.847656 54.40625 Z M 222.847656 54.40625 " fill-opacity="1" fill-rule="evenodd"/><path fill="#372b29" d="M 251.574219 54.40625 C 252.777344 54.40625 253.75 55.554688 253.75 56.96875 C 253.75 58.382812 252.777344 59.527344 251.574219 59.527344 C 250.371094 59.527344 249.394531 58.382812 249.394531 56.96875 C 249.394531 55.554688 250.371094 54.40625 251.574219 54.40625 Z M 251.574219 54.40625 " fill-opacity="1" fill-rule="evenodd"/><path fill="#372b29" d="M 283.296875 54.910156 C 284.5 54.910156 285.476562 56.058594 285.476562 57.472656 C 285.476562 58.882812 284.5 60.03125 283.296875 60.03125 C 282.097656 60.03125 281.121094 58.886719 281.121094 57.472656 C 281.121094 56.058594 282.097656 54.910156 283.296875 54.910156 Z M 283.296875 54.910156 " fill-opacity="1" fill-rule="evenodd"/><path fill="#372b29" d="M 310.042969 58.828125 C 311.246094 58.828125 312.21875 59.976562 312.21875 61.390625 C 312.21875 62.800781 311.246094 63.949219 310.042969 63.949219 C 308.839844 63.949219 307.863281 62.804688 307.863281 61.390625 C 307.863281 59.976562 308.839844 58.828125 310.042969 58.828125 Z M 310.042969 58.828125 " fill-opacity="1" fill-rule="evenodd"/></svg>