<svg xmlns="http://www.w3.org/2000/svg" xmlns:xlink="http://www.w3.org/1999/xlink" width="500" zoomAndPan="magnify" viewBox="0 0 375 374.999991" height="500" preserveAspectRatio="xMidYMid meet" version="1.0"><defs><clipPath id="f90957a16e"><path d="M 76 14.0625 L 176 14.0625 L 176 144 L 76 144 Z M 76 14.0625 " clip-rule="nonzero"/></clipPath><clipPath id="696f065b5a"><path d="M 51 146 L 316.773438 146 L 316.773438 360.878906 L 51 360.878906 Z M 51 146 " clip-rule="nonzero"/></clipPath></defs><path stroke-linecap="butt" transform="matrix(0.75, 0, 0, 0.75, 127.499996, 261.538459)" fill="none" stroke-linejoin="miter" d="M 0.00000516333 2.000805 L 160.000016 2.000805 " stroke="#000000" stroke-width="4" stroke-opacity="1" stroke-miterlimit="4"/><path fill="#fef6eb" d="M 65.238281 220.898438 C 66.066406 220.816406 66.894531 220.734375 67.71875 220.691406 C 76.742188 219.488281 84.691406 215.101562 90.773438 208.355469 C 95.703125 202.976562 98.929688 196.480469 100.792969 188.863281 C 102.363281 182.902344 102.65625 176.238281 101.664062 169.65625 C 100.171875 156.496094 95 144.078125 86.179688 133.152344 C 83.40625 129.675781 80.21875 126.199219 76.621094 123.179688 C 68.589844 116.347656 60.351562 112.457031 51.457031 110.304688 C 45.578125 109.148438 40.117188 108.734375 34.402344 109.644531 C 25.382812 111.21875 17.804688 115.191406 11.71875 121.894531 C 6.796875 127.316406 3.238281 134.644531 1.828125 142.671875 C 0.921875 146.894531 0.464844 151.074219 0.792969 155.214844 L 0.875 156.457031 C 1 157.699219 1.082031 158.9375 1.210938 160.179688 L 1.289062 161.378906 C 2.492188 170.859375 5.71875 179.714844 10.5625 188.035156 C 14.410156 194.367188 19.085938 200.203125 24.46875 205.167969 C 32.085938 212 40.363281 216.71875 49.261719 218.871094 C 54.847656 220.898438 60.269531 221.269531 65.238281 220.898438 " fill-opacity="1" fill-rule="nonzero"/><g clip-path="url(#f90957a16e)"><path fill="#fef6eb" d="M 78.980469 94.332031 C 81.464844 104.265625 85.601562 112.953125 90.980469 120.40625 C 96.363281 127.855469 102.15625 133.234375 109.191406 137.375 C 114.988281 141.101562 121.195312 143.171875 127.820312 143.582031 L 131.128906 143.582031 C 137.753906 143.582031 143.960938 141.925781 149.339844 138.203125 C 154.722656 135.308594 159.6875 130.753906 163.828125 125.371094 C 169.621094 117.921875 173.347656 108.816406 175.003906 98.054688 C 175.414062 93.5 175.828125 88.949219 175.828125 83.984375 C 175.828125 80.257812 175.414062 76.535156 175.003906 72.804688 C 174.175781 66.1875 172.519531 59.976562 170.035156 53.769531 C 165.898438 43.421875 160.101562 34.730469 152.652344 28.109375 C 147.269531 23.140625 141.476562 19.414062 135.269531 17.347656 C 127.40625 14.449219 119.539062 14.035156 111.675781 16.101562 C 104.226562 17.757812 97.605469 21.898438 91.8125 28.109375 C 86.84375 33.488281 83.53125 39.28125 80.632812 46.316406 C 77.738281 54.59375 76.082031 63.289062 76.082031 73.222656 C 76.082031 74.875 76.496094 76.535156 76.496094 79.015625 C 76.910156 83.984375 77.738281 89.363281 78.980469 94.332031 " fill-opacity="1" fill-rule="nonzero"/></g><path fill="#fef6eb" d="M 196.527344 113.78125 C 199.421875 122.0625 203.558594 128.683594 209.355469 134.0625 C 216.804688 141.101562 225.5 145.242188 235.433594 145.652344 L 237.917969 145.652344 C 242.882812 145.652344 247.433594 144.410156 252.398438 144.410156 C 259.4375 141.511719 265.644531 137.375 271.855469 131.578125 C 278.0625 125.371094 283.027344 118.335938 286.753906 110.472656 C 292.136719 99.296875 295.03125 87.707031 295.445312 75.289062 C 295.445312 68.257812 295.03125 61.21875 293.375 55.007812 C 291.308594 46.316406 288.410156 39.28125 283.859375 33.074219 C 276.40625 22.726562 266.472656 16.933594 254.882812 15.277344 C 254.46875 15.277344 254.46875 15.277344 254.054688 15.277344 L 244.535156 15.277344 C 239.15625 16.101562 233.363281 17.757812 228.394531 20.65625 C 221.769531 24.382812 215.566406 29.761719 210.183594 36.382812 C 204.390625 43.421875 200.25 51.699219 196.941406 60.804688 C 194.042969 69.082031 192.800781 77.773438 192.386719 86.46875 C 192.386719 90.191406 192.386719 93.917969 192.800781 97.640625 C 193.625 103.433594 194.871094 108.816406 196.527344 113.78125 " fill-opacity="1" fill-rule="nonzero"/><g clip-path="url(#696f065b5a)"><path fill="#fef6eb" d="M 300.785156 253.679688 C 295.40625 245.816406 288.78125 238.367188 280.917969 231.742188 C 275.539062 226.777344 270.15625 221.394531 265.605469 215.601562 C 260.636719 209.394531 256.082031 202.769531 252.359375 196.976562 L 249.464844 192.421875 C 246.566406 187.867188 243.667969 183.734375 240.769531 179.179688 C 236.21875 172.554688 232.078125 167.175781 227.523438 163.039062 C 219.660156 155.585938 210.558594 150.621094 200.210938 148.136719 C 193.585938 146.480469 186.550781 146.066406 179.929688 146.066406 C 173.71875 146.066406 167.511719 147.308594 161.71875 149.792969 C 154.679688 152.691406 148.46875 157.242188 141.851562 163.449219 C 138.125 167.175781 133.988281 171.726562 129.847656 177.109375 C 125.707031 182.488281 121.984375 187.867188 118.257812 193.25 L 116.1875 196.5625 C 111.222656 203.183594 106.253906 210.632812 100.460938 217.257812 C 95.496094 223.050781 90.941406 227.605469 86.386719 231.742188 C 80.59375 236.707031 74.800781 242.507812 70.246094 248.710938 C 63.621094 257.40625 58.65625 266.921875 55.347656 276.445312 C 53.277344 283.066406 52.035156 289.6875 51.621094 296.3125 C 51.207031 302.105469 51.621094 308.3125 52.863281 313.695312 C 56.171875 329.007812 64.035156 341.425781 76.867188 350.53125 C 84.316406 355.910156 92.597656 359.222656 102.113281 360.050781 C 103.359375 360.464844 104.1875 360.464844 105.425781 360.464844 L 111.636719 360.464844 C 115.359375 360.464844 119.085938 360.050781 121.984375 359.636719 C 130.261719 357.980469 138.539062 355.910156 145.988281 353.839844 L 146.402344 353.839844 C 153.4375 352.1875 160.476562 350.117188 167.511719 348.875 C 170.410156 348.460938 174.132812 347.632812 177.859375 347.632812 C 182.824219 347.632812 187.378906 347.632812 191.515625 348.046875 C 197.3125 348.875 203.933594 350.117188 210.96875 351.769531 C 214.28125 352.601562 218.007812 353.839844 221.320312 354.667969 C 225.871094 355.910156 230.835938 357.152344 235.804688 358.394531 C 240.769531 359.636719 246.152344 360.878906 251.945312 360.878906 L 261.878906 360.878906 C 262.707031 360.878906 263.121094 360.464844 263.949219 359.222656 C 266.429688 359.222656 269.328125 358.808594 271.8125 357.980469 C 278.433594 356.324219 285.058594 353.425781 291.265625 348.875 C 299.542969 343.082031 306.167969 335.628906 310.304688 326.9375 C 314.855469 317.417969 316.925781 307.484375 316.511719 296.3125 C 316.101562 290.101562 314.855469 283.066406 312.371094 276.445312 C 309.890625 268.578125 306.167969 261.128906 300.785156 253.679688 " fill-opacity="1" fill-rule="nonzero"/></g><path fill="#fef6eb" d="M 373.175781 142.671875 C 371.769531 134.644531 368.207031 127.316406 363.242188 121.894531 C 357.160156 115.191406 349.625 111.21875 340.601562 109.644531 C 334.847656 108.734375 329.425781 109.148438 323.507812 110.304688 C 314.609375 112.457031 306.414062 116.347656 298.386719 123.179688 C 294.785156 126.199219 291.597656 129.675781 288.824219 133.152344 C 280.007812 144.078125 274.832031 156.496094 273.304688 169.65625 C 272.351562 176.238281 272.640625 182.902344 274.214844 188.863281 C 276.074219 196.480469 279.261719 202.976562 284.226562 208.355469 C 290.3125 215.101562 298.261719 219.488281 307.28125 220.691406 C 308.113281 220.734375 308.941406 220.816406 309.765625 220.898438 C 314.734375 221.269531 320.15625 220.898438 325.699219 218.871094 C 334.601562 216.71875 342.878906 212 350.535156 205.167969 C 355.914062 200.203125 360.554688 194.367188 364.402344 188.035156 C 369.242188 179.714844 372.472656 170.859375 373.671875 161.378906 L 373.796875 160.179688 C 373.878906 158.9375 374.003906 157.699219 374.085938 156.457031 L 374.210938 155.214844 C 374.539062 151.074219 374.042969 146.894531 373.175781 142.671875 " fill-opacity="1" fill-rule="nonzero"/></svg>