<svg xmlns="http://www.w3.org/2000/svg" xmlns:xlink="http://www.w3.org/1999/xlink" width="500" zoomAndPan="magnify" viewBox="0 0 375 374.999991" height="500" preserveAspectRatio="xMidYMid meet" version="1.0"><defs><clipPath id="e1ae6ed108"><path d="M 176 170 L 318.46875 170 L 318.46875 317 L 176 317 Z M 176 170 " clip-rule="nonzero"/></clipPath></defs><path fill="#ffffff" d="M 64.734375 142.304688 C 61.074219 127.414062 104.25 92.789062 164.382812 78.027344 C 224.515625 63.261719 278.832031 73.945312 282.492188 88.832031 C 283.417969 92.585938 284.171875 95.65625 285.09375 99.414062 C 288.753906 114.300781 242.976562 138.339844 182.84375 153.105469 C 122.710938 167.871094 70.996094 167.769531 67.335938 152.882812 C 66.410156 149.125 65.65625 146.058594 64.734375 142.304688 Z M 64.734375 142.304688 " fill-opacity="1" fill-rule="nonzero"/><path fill="#e2e2e2" d="M 104.304688 168.1875 C 81.917969 168.1875 65.910156 163.949219 63.421875 153.84375 L 71.246094 151.921875 C 71.453125 152.753906 74.101562 160.03125 103.921875 160.085938 C 104.035156 160.089844 104.148438 160.089844 104.261719 160.089844 C 125.710938 160.089844 153.257812 156.222656 181.882812 149.195312 C 210.65625 142.128906 236.988281 132.734375 256.019531 122.742188 C 282.414062 108.882812 281.386719 101.203125 281.183594 100.375 L 289.007812 98.453125 C 291.328125 107.890625 281.488281 118.460938 259.765625 129.867188 C 240.171875 140.15625 213.195312 149.796875 183.804688 157.011719 C 155.714844 163.910156 126.792969 168.1875 104.304688 168.1875 Z M 104.304688 168.1875 " fill-opacity="1" fill-rule="nonzero"/><path fill="#b0b8c5" d="M 133.332031 75.527344 C 140.765625 72.40625 150.625 69.515625 162.066406 66.863281 C 173.488281 64.105469 183.59375 62.269531 191.636719 61.722656 C 204.949219 48.195312 257.664062 69.808594 254.386719 84.863281 C 265.125 95.988281 271.285156 109.503906 274.179688 121.710938 C 276.683594 132.265625 277.921875 143.109375 277.890625 154.25 C 277.828125 175.996094 265.292969 195.652344 245.539062 204.765625 C 230.277344 211.796875 214.636719 217.210938 198.609375 221.003906 C 182.582031 224.800781 166.171875 226.972656 149.378906 227.53125 C 127.628906 228.242188 107.601562 216.296875 97.785156 196.890625 C 92.753906 186.945312 88.996094 176.699219 86.492188 166.144531 C 83.597656 153.9375 83.039062 139.105469 87.636719 124.347656 C 77.964844 112.371094 115.371094 69.40625 133.332031 75.527344 Z M 133.332031 75.527344 " fill-opacity="1" fill-rule="nonzero"/><path fill="#67818d" d="M 147.582031 231.585938 C 125.179688 231.585938 104.375 218.839844 94.191406 198.703125 C 89.050781 188.542969 85.140625 177.902344 82.574219 167.070312 C 79.621094 154.613281 76.847656 130.144531 91.453125 106.21875 C 92.613281 104.320312 95.089844 103.71875 96.988281 104.878906 C 98.886719 106.035156 99.488281 108.511719 98.332031 110.410156 C 85.226562 131.878906 87.746094 153.960938 90.414062 165.214844 C 92.835938 175.429688 96.523438 185.476562 101.378906 195.074219 C 110.449219 213 129.230469 224.175781 149.246094 223.507812 C 165.691406 222.960938 181.988281 220.804688 197.679688 217.089844 C 213.375 213.375 228.90625 207.996094 243.851562 201.113281 C 262.027344 192.726562 273.804688 174.328125 273.863281 154.238281 C 273.894531 143.484375 272.679688 132.851562 270.257812 122.640625 C 267.589844 111.386719 259.925781 90.519531 238.578125 77.207031 C 236.691406 76.03125 236.113281 73.546875 237.292969 71.664062 C 238.46875 69.777344 240.957031 69.199219 242.84375 70.378906 C 266.636719 85.214844 275.144531 108.328125 278.097656 120.785156 C 280.664062 131.613281 281.949219 142.875 281.917969 154.261719 C 281.851562 177.472656 268.234375 198.730469 247.226562 208.421875 C 231.796875 215.53125 215.753906 221.085938 199.539062 224.921875 C 183.324219 228.761719 166.492188 230.992188 149.511719 231.554688 C 148.867188 231.574219 148.222656 231.585938 147.582031 231.585938 Z M 147.582031 231.585938 " fill-opacity="1" fill-rule="nonzero"/><path fill="#605c5d" d="M 132.011719 164.164062 C 130.636719 158.355469 134.230469 152.53125 140.046875 151.152344 C 145.859375 149.777344 151.691406 153.371094 153.066406 159.179688 C 154.445312 164.992188 150.847656 170.816406 145.035156 172.191406 C 139.21875 173.570312 133.390625 169.976562 132.011719 164.164062 Z M 132.011719 164.164062 " fill-opacity="1" fill-rule="nonzero"/><path fill="#605c5d" d="M 211.554688 145.335938 C 210.179688 139.523438 213.773438 133.699219 219.589844 132.324219 C 225.402344 130.945312 231.234375 134.539062 232.609375 140.351562 C 233.988281 146.160156 230.390625 151.984375 224.578125 153.363281 C 218.761719 154.738281 212.933594 151.144531 211.554688 145.335938 Z M 211.554688 145.335938 " fill-opacity="1" fill-rule="nonzero"/><path fill="#90a1b4" d="M 119.515625 187.253906 C 117.691406 187.253906 116.035156 186.007812 115.597656 184.15625 C 115.085938 181.992188 116.425781 179.824219 118.589844 179.3125 L 135.222656 175.375 C 137.382812 174.859375 139.558594 176.199219 140.070312 178.363281 C 140.582031 180.527344 139.246094 182.695312 137.082031 183.207031 L 120.445312 187.144531 C 120.132812 187.21875 119.820312 187.253906 119.515625 187.253906 Z M 119.515625 187.253906 " fill-opacity="1" fill-rule="nonzero"/><path fill="#90a1b4" d="M 126.25 202.152344 C 124.945312 202.152344 123.667969 201.523438 122.890625 200.355469 C 121.660156 198.507812 122.160156 196.007812 124.011719 194.777344 L 136.425781 186.515625 C 138.277344 185.285156 140.78125 185.785156 142.011719 187.636719 C 143.246094 189.488281 142.742188 191.984375 140.890625 193.21875 L 128.476562 201.476562 C 127.789062 201.933594 127.015625 202.152344 126.25 202.152344 Z M 126.25 202.152344 " fill-opacity="1" fill-rule="nonzero"/><path fill="#90a1b4" d="M 235.699219 159.75 C 233.875 159.75 232.222656 158.503906 231.78125 156.652344 C 231.269531 154.488281 232.609375 152.316406 234.773438 151.804688 L 251.40625 147.867188 C 253.570312 147.351562 255.742188 148.691406 256.253906 150.859375 C 256.769531 153.019531 255.429688 155.1875 253.265625 155.703125 L 236.628906 159.640625 C 236.316406 159.714844 236.007812 159.75 235.699219 159.75 Z M 235.699219 159.75 " fill-opacity="1" fill-rule="nonzero"/><path fill="#90a1b4" d="M 253.019531 172.140625 C 252.855469 172.140625 252.6875 172.132812 252.523438 172.109375 L 237.71875 170.296875 C 235.511719 170.023438 233.941406 168.015625 234.210938 165.808594 C 234.484375 163.601562 236.492188 162.03125 238.699219 162.304688 L 253.503906 164.121094 C 255.710938 164.390625 257.28125 166.398438 257.011719 168.605469 C 256.761719 170.644531 255.023438 172.140625 253.019531 172.140625 Z M 253.019531 172.140625 " fill-opacity="1" fill-rule="nonzero"/><path fill="#ffffff" d="M 143.65625 140.625 C 141.832031 140.625 140.179688 139.378906 139.742188 137.527344 C 139.226562 135.363281 140.566406 133.195312 142.730469 132.683594 L 151.457031 130.617188 C 153.621094 130.101562 155.792969 131.441406 156.304688 133.605469 C 156.820312 135.769531 155.480469 137.9375 153.316406 138.449219 L 144.589844 140.515625 C 144.277344 140.589844 143.964844 140.625 143.65625 140.625 Z M 143.65625 140.625 " fill-opacity="1" fill-rule="nonzero"/><path fill="#ffffff" d="M 201.09375 127.027344 C 199.269531 127.027344 197.617188 125.78125 197.179688 123.929688 C 196.667969 121.765625 198.003906 119.597656 200.171875 119.085938 L 208.894531 117.019531 C 211.054688 116.503906 213.230469 117.84375 213.742188 120.007812 C 214.257812 122.171875 212.917969 124.339844 210.753906 124.851562 L 202.027344 126.917969 C 201.714844 126.992188 201.402344 127.027344 201.09375 127.027344 Z M 201.09375 127.027344 " fill-opacity="1" fill-rule="nonzero"/><path fill="#67818d" d="M 200.546875 146.242188 C 200.527344 146.242188 200.507812 146.242188 200.492188 146.242188 C 198.292969 146.242188 196.492188 148.011719 196.464844 150.214844 C 196.433594 152.585938 194.792969 154.628906 192.472656 155.175781 C 191.125 155.496094 189.734375 155.269531 188.554688 154.542969 C 187.375 153.816406 186.550781 152.675781 186.230469 151.332031 C 186.230469 151.332031 186.230469 151.332031 186.230469 151.328125 L 186 150.359375 L 186.753906 150.183594 C 188.917969 149.667969 190.257812 147.5 189.742188 145.339844 C 189.230469 143.175781 187.054688 141.832031 184.894531 142.347656 L 175.554688 144.558594 C 173.386719 145.074219 172.050781 147.242188 172.5625 149.40625 C 173 151.253906 174.652344 152.503906 176.476562 152.503906 C 176.785156 152.503906 177.097656 152.46875 177.410156 152.394531 L 178.164062 152.214844 L 178.390625 153.1875 C 178.390625 153.1875 178.390625 153.1875 178.394531 153.1875 C 179.050781 155.964844 177.320312 158.761719 174.539062 159.421875 C 172.21875 159.972656 169.839844 158.882812 168.746094 156.777344 C 167.722656 154.804688 165.289062 154.035156 163.316406 155.058594 C 161.339844 156.082031 160.570312 158.511719 161.59375 160.484375 C 163.90625 164.941406 168.46875 167.617188 173.328125 167.617188 C 174.34375 167.617188 175.371094 167.5 176.394531 167.257812 C 179.875 166.433594 182.710938 164.296875 184.5 161.5 C 187.472656 163.273438 190.957031 163.808594 194.328125 163.011719 C 200.25 161.609375 204.441406 156.390625 204.519531 150.320312 C 204.550781 148.097656 202.769531 146.273438 200.546875 146.242188 Z M 200.546875 146.242188 " fill-opacity="1" fill-rule="nonzero"/><path fill="#ffffff" d="M 70.929688 116.601562 L 70.902344 116.609375 C 69.992188 75.328125 94.3125 37.078125 132.527344 20.546875 L 132.171875 19.101562 C 131.160156 14.984375 133.675781 10.828125 137.796875 9.816406 L 156.308594 5.269531 C 160.425781 4.257812 164.585938 6.777344 165.597656 10.890625 L 165.953125 12.335938 C 207.492188 9.289062 246.78125 31.917969 265.113281 68.921875 L 265.085938 68.929688 C 273.535156 70.742188 278.8125 73.847656 279.890625 78.246094 L 285.097656 99.410156 C 283.171875 91.582031 267.980469 87.855469 245.273438 88.203125 C 237.132812 88.328125 228.019531 88.988281 218.214844 90.167969 C 214.214844 99.496094 196.410156 109.972656 173.613281 115.566406 C 150.828125 121.164062 130.195312 120.128906 122.320312 113.71875 C 110.066406 118.359375 99.320312 123.246094 90.667969 128.097656 C 74.585938 137.105469 65.636719 145.972656 67.335938 152.878906 L 62.128906 131.714844 C 61.050781 127.320312 64.285156 122.121094 70.929688 116.601562 Z M 70.929688 116.601562 " fill-opacity="1" fill-rule="nonzero"/><path fill="#ffbe8b" d="M 67.339844 152.878906 C 67.335938 152.863281 67.328125 152.835938 67.324219 152.824219 " fill-opacity="1" fill-rule="nonzero"/><path fill="#e2e2e2" d="M 289.007812 98.453125 L 283.800781 77.285156 C 282.425781 71.6875 277.074219 67.71875 267.824219 65.40625 C 258.425781 47.28125 244.089844 32.335938 226.226562 22.113281 C 208.683594 12.074219 188.925781 7.273438 168.894531 8.132812 C 166.683594 2.957031 160.988281 -0.0234375 155.34375 1.363281 L 136.835938 5.90625 C 133.796875 6.652344 131.230469 8.535156 129.613281 11.207031 C 128.324219 13.332031 127.769531 15.753906 127.964844 18.183594 C 109.8125 26.703125 94.53125 40.105469 83.644531 57.121094 C 72.558594 74.453125 66.789062 94.335938 66.867188 114.746094 C 59.746094 121.078125 56.84375 127.078125 58.21875 132.675781 L 63.398438 153.734375 C 63.40625 153.773438 63.414062 153.808594 63.425781 153.847656 C 63.871094 155.664062 65.5 156.910156 67.332031 156.910156 C 67.492188 156.910156 67.65625 156.898438 67.820312 156.878906 C 69.84375 156.632812 71.363281 154.917969 71.363281 152.882812 C 71.363281 152.558594 71.324219 152.234375 71.246094 151.921875 L 71.234375 151.871094 C 70.558594 148.882812 74.390625 142.859375 87.191406 134.828125 C 90.65625 132.648438 94.710938 130.386719 99.246094 128.097656 C 105.871094 124.757812 113.449219 121.4375 121.765625 118.234375 C 127.179688 121.527344 135.671875 123.210938 145.816406 123.210938 C 154.492188 123.210938 164.378906 121.980469 174.574219 119.476562 C 196.679688 114.046875 214.710938 103.992188 220.785156 93.929688 C 232.746094 92.566406 243.515625 92.007812 252.796875 92.285156 C 254.433594 92.339844 255.863281 92.402344 257.160156 92.476562 C 273.699219 93.480469 280.4375 97.363281 281.179688 100.378906 C 281.582031 102.019531 282.96875 103.230469 284.644531 103.417969 C 286.320312 103.605469 287.941406 102.722656 288.695312 101.214844 C 289.125 100.359375 289.234375 99.378906 289.007812 98.453125 Z M 222.222656 29.097656 C 236.917969 37.507812 249.03125 49.371094 257.644531 63.683594 C 253.378906 63.234375 248.605469 63 243.320312 62.992188 C 243.203125 62.992188 243.085938 62.992188 242.96875 62.992188 C 234.328125 62.992188 224.738281 63.605469 214.523438 64.769531 C 197.035156 66.765625 180.695312 55.425781 176.507812 38.390625 L 171.03125 16.117188 C 188.925781 15.679688 206.53125 20.117188 222.222656 29.097656 Z M 136.503906 15.378906 C 137.007812 14.546875 137.808594 13.957031 138.757812 13.726562 L 157.265625 9.179688 C 159.226562 8.699219 161.203125 9.898438 161.683594 11.851562 L 168.683594 40.3125 C 171.746094 52.761719 180.082031 62.738281 190.855469 68.273438 C 181.921875 69.878906 172.722656 71.832031 163.421875 74.117188 C 154.121094 76.402344 145.066406 78.925781 136.40625 81.640625 C 143.382812 71.746094 146.140625 59.046875 143.078125 46.597656 L 136.082031 18.140625 C 135.847656 17.191406 136 16.210938 136.503906 15.378906 Z M 90.429688 61.460938 C 100.171875 46.234375 113.714844 34.148438 129.78125 26.246094 L 135.253906 48.519531 C 139.425781 65.484375 130.292969 83.023438 114.003906 89.417969 C 104.199219 93.191406 95.246094 97.175781 87.460938 101.261719 C 82.78125 103.71875 78.660156 106.132812 75.089844 108.507812 C 76.078125 91.839844 81.3125 75.714844 90.429688 61.460938 Z M 172.652344 111.660156 C 156.144531 115.710938 142.171875 115.949219 133.253906 114.035156 C 144.949219 109.984375 157.445312 106.320312 170.554688 103.101562 C 183.601562 99.894531 196.367188 97.363281 208.652344 95.53125 C 201.632812 101.355469 189.148438 107.609375 172.652344 111.660156 Z M 257.644531 84.441406 C 256.261719 84.359375 254.761719 84.292969 253.050781 84.242188 C 242.777344 83.933594 230.84375 84.589844 217.582031 86.191406 C 202 88.070312 185.53125 91.128906 168.632812 95.285156 C 150.855469 99.648438 134.15625 104.824219 119.007812 110.667969 C 110.390625 113.984375 102.515625 117.429688 95.613281 120.910156 C 90.855469 123.3125 86.578125 125.703125 82.90625 128.011719 C 76.453125 132.058594 71.566406 135.988281 68.261719 139.78125 L 66.042969 130.753906 C 65.839844 129.925781 64.8125 122.25 91.207031 108.386719 C 98.675781 104.464844 107.273438 100.636719 116.699219 97.003906 L 116.703125 97.011719 C 116.824219 96.964844 116.941406 96.910156 117.058594 96.863281 C 131.558594 91.296875 148.003906 86.191406 165.34375 81.933594 C 182.761719 77.65625 199.777344 74.558594 215.265625 72.78125 C 215.324219 72.777344 215.378906 72.773438 215.4375 72.769531 L 215.4375 72.761719 C 225.335938 71.632812 234.617188 71.042969 242.964844 71.042969 C 243.078125 71.042969 243.191406 71.042969 243.304688 71.042969 C 273.125 71.097656 275.773438 78.375 275.976562 79.207031 L 278.195312 88.222656 C 273.082031 86.226562 266.21875 84.964844 257.644531 84.441406 Z M 257.644531 84.441406 " fill-opacity="1" fill-rule="nonzero"/><path fill="#ffbe8b" d="M 88.097656 210.761719 L 272.765625 210.761719 C 280.039062 210.761719 285.9375 216.65625 285.9375 223.925781 L 285.9375 357.8125 C 285.9375 365.082031 280.039062 370.972656 272.765625 370.972656 L 88.097656 370.972656 C 80.824219 370.972656 74.925781 365.082031 74.925781 357.8125 L 74.925781 223.925781 C 74.925781 216.65625 80.824219 210.761719 88.097656 210.761719 Z M 88.097656 210.761719 " fill-opacity="1" fill-rule="nonzero"/><path fill="#ff9c6f" d="M 262.574219 230.085938 L 98.289062 230.085938 C 96.066406 230.085938 94.261719 231.886719 94.261719 234.109375 L 94.261719 347.628906 C 94.261719 349.851562 96.066406 351.652344 98.289062 351.652344 L 262.574219 351.652344 C 264.796875 351.652344 266.601562 349.851562 266.601562 347.628906 L 266.601562 234.109375 C 266.601562 231.886719 264.796875 230.085938 262.574219 230.085938 Z M 132.429688 305.359375 L 132.429688 238.132812 L 159.183594 238.132812 L 159.183594 286.867188 Z M 167.238281 238.136719 L 193.8125 238.136719 L 193.8125 262.933594 L 167.238281 281.300781 Z M 201.867188 238.136719 L 229.695312 238.136719 L 201.867188 257.367188 Z M 124.371094 238.136719 L 124.371094 310.925781 L 102.316406 326.167969 L 102.316406 238.136719 Z M 102.316406 335.957031 L 243.859375 238.132812 L 258.542969 238.132812 L 258.542969 245.820312 L 117.023438 343.601562 L 102.316406 343.601562 Z M 167.238281 318.695312 L 193.8125 300.335938 L 193.8125 343.601562 L 167.238281 343.601562 Z M 159.183594 343.601562 L 131.1875 343.601562 L 159.183594 324.261719 Z M 201.867188 294.769531 L 228.441406 276.40625 L 228.441406 343.601562 L 201.867188 343.601562 Z M 236.496094 343.601562 L 236.496094 270.839844 L 258.546875 255.609375 L 258.546875 343.601562 Z M 236.496094 343.601562 " fill-opacity="1" fill-rule="nonzero"/><path fill="#ff9c6f" d="M 272.765625 206.738281 L 88.097656 206.738281 C 78.613281 206.738281 70.898438 214.449219 70.898438 223.925781 L 70.898438 357.8125 C 70.898438 367.289062 78.613281 375 88.097656 375 L 272.765625 375 C 282.25 375 289.964844 367.289062 289.964844 357.8125 L 289.964844 223.925781 C 289.964844 214.449219 282.25 206.738281 272.765625 206.738281 Z M 281.90625 357.8125 C 281.90625 362.851562 277.804688 366.949219 272.765625 366.949219 L 88.097656 366.949219 C 83.054688 366.949219 78.953125 362.851562 78.953125 357.8125 L 78.953125 223.925781 C 78.953125 218.886719 83.054688 214.789062 88.097656 214.789062 L 272.765625 214.789062 C 277.808594 214.789062 281.910156 218.886719 281.910156 223.925781 L 281.910156 357.8125 Z M 281.90625 357.8125 " fill-opacity="1" fill-rule="nonzero"/><path fill="#ffffff" d="M 149.984375 281.535156 L 111.625 281.535156 L 111.625 248.527344 L 149.984375 248.527344 Z M 149.984375 281.535156 " fill-opacity="1" fill-rule="nonzero"/><path fill="#e2e2e2" d="M 149.984375 285.558594 L 111.625 285.558594 C 109.402344 285.558594 107.597656 283.757812 107.597656 281.535156 L 107.597656 248.527344 C 107.597656 246.304688 109.402344 244.5 111.625 244.5 L 149.984375 244.5 C 152.210938 244.5 154.015625 246.304688 154.015625 248.527344 L 154.015625 281.535156 C 154.011719 283.757812 152.210938 285.558594 149.984375 285.558594 Z M 115.652344 277.507812 L 145.957031 277.507812 L 145.957031 252.550781 L 115.652344 252.550781 Z M 115.652344 277.507812 " fill-opacity="1" fill-rule="nonzero"/><path fill="#88d670" d="M 213.988281 312.164062 C 156.382812 249.859375 190.414062 177.777344 190.414062 177.777344 L 260.503906 174.234375 L 314.148438 219.449219 C 314.148438 219.449219 297.582031 297.410156 213.988281 312.164062 Z M 213.988281 312.164062 " fill-opacity="1" fill-rule="nonzero"/><g clip-path="url(#e1ae6ed108)"><path fill="#6db750" d="M 213.988281 316.191406 C 212.875 316.191406 211.796875 315.726562 211.027344 314.894531 C 180.320312 281.683594 175.34375 245.722656 176.574219 221.402344 C 177.910156 195.101562 186.410156 176.824219 186.769531 176.0625 C 187.40625 174.71875 188.726562 173.832031 190.210938 173.757812 L 260.300781 170.214844 C 261.320312 170.164062 262.320312 170.5 263.101562 171.160156 L 316.746094 216.371094 C 317.882812 217.328125 318.398438 218.832031 318.089844 220.285156 C 317.914062 221.113281 313.613281 240.800781 298.742188 262.542969 C 284.992188 282.648438 259.25 308.261719 214.6875 316.128906 C 214.453125 316.171875 214.21875 316.191406 213.988281 316.191406 Z M 193.136719 181.671875 C 190.949219 187.125 185.558594 202.363281 184.605469 222.125 C 183.050781 254.410156 193.429688 283.222656 215.460938 307.800781 C 247.882812 301.5625 273.59375 284.902344 291.914062 258.261719 C 303.125 241.957031 308.0625 226.570312 309.625 220.902344 L 259.121094 178.335938 Z M 193.136719 181.671875 " fill-opacity="1" fill-rule="nonzero"/></g><path fill="#ffffff" d="M 222.382812 287.273438 C 263.101562 275.347656 281.117188 244.285156 288.230469 226.871094 L 252.816406 197.027344 L 206.539062 199.363281 C 201.671875 217.46875 197.167969 253.125 222.382812 287.273438 Z M 222.382812 287.273438 " fill-opacity="1" fill-rule="nonzero"/><path fill="#6db750" d="M 222.382812 291.296875 C 221.125 291.296875 219.914062 290.707031 219.140625 289.664062 C 192.957031 254.199219 197.570312 217.210938 202.652344 198.320312 C 203.105469 196.632812 204.59375 195.433594 206.335938 195.34375 L 252.613281 193.003906 C 253.640625 192.949219 254.636719 193.289062 255.414062 193.949219 L 290.828125 223.792969 C 292.164062 224.917969 292.621094 226.777344 291.960938 228.394531 C 284.5625 246.507812 265.828125 278.746094 223.515625 291.136719 C 223.140625 291.246094 222.757812 291.296875 222.382812 291.296875 Z M 209.714844 203.234375 C 205.46875 220.964844 202.824219 252.222656 223.96875 282.574219 C 259.175781 271.203125 276 244.714844 283.363281 228.035156 L 251.4375 201.125 Z M 209.714844 203.234375 " fill-opacity="1" fill-rule="nonzero"/><path fill="#00d3d6" d="M 233.039062 251.746094 C 232.363281 251.746094 231.691406 251.574219 231.082031 251.238281 C 230.011719 250.644531 229.269531 249.589844 229.066406 248.382812 L 225.742188 228.433594 C 225.378906 226.242188 226.859375 224.167969 229.054688 223.800781 C 231.25 223.4375 233.324219 224.917969 233.691406 227.113281 L 236.183594 242.070312 L 261.539062 231.621094 C 263.59375 230.777344 265.949219 231.753906 266.796875 233.808594 C 267.644531 235.863281 266.667969 238.214844 264.609375 239.0625 L 234.578125 251.441406 C 234.082031 251.644531 233.5625 251.746094 233.039062 251.746094 Z M 233.039062 251.746094 " fill-opacity="1" fill-rule="nonzero"/><path fill="#b0b8c5" d="M 271.21875 166.882812 C 261 162.433594 251.15625 162.414062 246.707031 172.625 C 242.253906 182.832031 246.929688 194.714844 257.148438 199.160156 C 267.367188 203.609375 279.257812 198.9375 283.707031 188.726562 C 288.15625 178.515625 281.433594 171.328125 271.21875 166.882812 Z M 271.21875 166.882812 " fill-opacity="1" fill-rule="nonzero"/><path fill="#67818d" d="M 265.199219 204.875 C 261.917969 204.875 258.640625 204.199219 255.542969 202.851562 C 249.613281 200.273438 245.046875 195.539062 242.679688 189.527344 C 240.3125 183.511719 240.433594 176.941406 243.011719 171.015625 C 245.640625 164.988281 250.175781 161.277344 256.136719 160.285156 C 260.9375 159.480469 266.554688 160.464844 272.824219 163.191406 C 279.09375 165.917969 283.636719 169.359375 286.320312 173.421875 C 289.65625 178.457031 290.027344 184.304688 287.398438 190.332031 C 284.820312 196.257812 280.082031 200.820312 274.066406 203.183594 C 271.195312 204.3125 268.195312 204.875 265.199219 204.875 Z M 259.488281 168.066406 C 258.777344 168.066406 258.097656 168.121094 257.460938 168.226562 C 254.191406 168.769531 251.945312 170.679688 250.398438 174.230469 C 246.84375 182.386719 250.59375 191.917969 258.757812 195.46875 C 262.714844 197.191406 267.101562 197.273438 271.117188 195.691406 C 275.132812 194.113281 278.289062 191.070312 280.011719 187.117188 C 281.5625 183.566406 281.429688 180.625 279.601562 177.863281 C 277.8125 175.160156 274.359375 172.636719 269.609375 170.574219 C 265.808594 168.917969 262.355469 168.066406 259.488281 168.066406 Z M 259.488281 168.066406 " fill-opacity="1" fill-rule="nonzero"/><path fill="#b0b8c5" d="M 114.625 176.300781 L 113.613281 176.175781 C 113.859375 168.300781 110.425781 162.402344 104.894531 161.734375 C 99.609375 161.097656 96.535156 165.355469 94.496094 174.523438 C 91.285156 174.941406 87.96875 175.75 84.65625 176.988281 C 68.910156 182.863281 59.296875 196.058594 63.183594 206.457031 C 67.070312 216.855469 82.984375 220.519531 98.730469 214.644531 C 100.550781 213.964844 102.285156 213.183594 103.929688 212.324219 L 110.199219 213.078125 C 118.421875 214.066406 125.890625 208.207031 126.878906 199.988281 L 127.726562 192.96875 C 128.714844 184.75 122.851562 177.289062 114.625 176.300781 Z M 114.625 176.300781 " fill-opacity="1" fill-rule="nonzero"/><path fill="#67818d" d="M 117.546875 172.761719 C 116.753906 164.417969 112.121094 158.542969 105.375 157.746094 C 97.085938 156.746094 93.199219 163.714844 91.183594 170.988281 C 88.527344 171.496094 85.867188 172.238281 83.246094 173.21875 C 74.898438 176.332031 67.816406 181.457031 63.300781 187.648438 C 58.421875 194.34375 57.042969 201.523438 59.414062 207.859375 C 61.78125 214.195312 67.53125 218.710938 75.605469 220.574219 C 78.222656 221.175781 80.988281 221.476562 83.835938 221.476562 C 89.132812 221.476562 94.714844 220.445312 100.144531 218.417969 C 101.683594 217.839844 103.195312 217.183594 104.648438 216.464844 L 109.714844 217.074219 C 110.488281 217.167969 111.261719 217.214844 112.027344 217.214844 C 116.265625 217.214844 120.355469 215.808594 123.738281 213.152344 C 127.738281 210.015625 130.269531 205.511719 130.878906 200.46875 L 131.722656 193.449219 C 132.878906 183.875 126.660156 175.085938 117.546875 172.761719 Z M 104.421875 165.738281 C 106.730469 166.011719 108.472656 168.261719 109.21875 171.59375 L 108.082031 171.457031 C 105.015625 171.089844 101.972656 171.464844 99.160156 172.515625 C 101.21875 165.355469 103.429688 165.617188 104.421875 165.738281 Z M 77.417969 212.730469 C 72.066406 211.496094 68.351562 208.769531 66.960938 205.042969 C 65.566406 201.320312 66.582031 196.824219 69.816406 192.390625 C 73.410156 187.457031 79.179688 183.328125 86.0625 180.761719 C 87.1875 180.339844 88.320312 179.988281 89.453125 179.671875 C 89.394531 180.097656 89.335938 180.511719 89.28125 180.90625 C 88.039062 183.082031 87.230469 185.5 86.921875 188.0625 L 86.074219 195.082031 C 85.261719 201.851562 88.128906 208.226562 93.101562 212.207031 C 87.605469 213.625 82.160156 213.824219 77.417969 212.730469 Z M 123.726562 192.488281 L 122.878906 199.507812 C 122.53125 202.414062 121.070312 205.011719 118.765625 206.820312 C 116.460938 208.628906 113.59375 209.429688 110.679688 209.082031 L 103.65625 208.238281 C 97.648438 207.515625 93.351562 202.046875 94.074219 196.042969 L 94.921875 189.023438 C 95.269531 186.117188 96.730469 183.519531 99.035156 181.710938 C 101.34375 179.902344 104.210938 179.101562 107.121094 179.449219 L 114.144531 180.296875 C 120.152344 181.019531 124.449219 186.488281 123.726562 192.488281 Z M 123.726562 192.488281 " fill-opacity="1" fill-rule="nonzero"/></svg>