<svg xmlns="http://www.w3.org/2000/svg" xmlns:xlink="http://www.w3.org/1999/xlink" width="500" zoomAndPan="magnify" viewBox="0 0 375 374.999991" height="500" preserveAspectRatio="xMidYMid meet" version="1.0"><defs><clipPath id="d4c9a3cb41"><path d="M 29.058594 198 L 344 198 L 344 354 L 29.058594 354 Z M 29.058594 198 " clip-rule="nonzero"/></clipPath></defs><path stroke-linecap="butt" transform="matrix(0.75, 0, 0, 0.75, 127.499996, 49.159936)" fill="none" stroke-linejoin="miter" d="M 0.00000516333 2.000294 L 160.000016 2.000294 " stroke="#000000" stroke-width="4" stroke-opacity="1" stroke-miterlimit="4"/><g clip-path="url(#d4c9a3cb41)"><path fill="#f0b542" d="M 342.234375 234.113281 C 342.472656 233.191406 342.703125 232.269531 342.925781 231.34375 C 344.820312 222.0625 342.117188 214.585938 339.464844 213.804688 C 336.550781 212.949219 333.285156 219.863281 333.285156 219.863281 C 301.132812 288.050781 255.492188 304.230469 255.492188 304.230469 C 302.277344 269.765625 295.957031 260.546875 290.386719 256.578125 C 284.8125 252.605469 273.210938 265.296875 260.636719 275.140625 C 250.632812 282.972656 232.59375 277.988281 232.59375 277.988281 C 193.542969 271.070312 163.324219 302.757812 163.324219 302.757812 C 145.121094 324.308594 108.234375 304.796875 108.234375 304.796875 C 39.609375 275.558594 29.058594 198.496094 29.058594 198.496094 C 29.847656 228.609375 39.191406 258.832031 57.742188 285.371094 C 108.113281 357.402344 207.339844 374.960938 279.375 324.589844 C 311.710938 301.988281 333.070312 269.535156 342.234375 234.113281 Z M 342.234375 234.113281 " fill-opacity="1" fill-rule="nonzero"/></g><path fill="#8a973f" d="M 32.113281 143.550781 C 31.894531 144.480469 31.683594 145.40625 31.480469 146.335938 C 29.769531 155.648438 32.617188 163.078125 35.289062 163.804688 C 38.21875 164.597656 41.347656 157.625 41.347656 157.625 C 72.140625 88.804688 117.445312 71.722656 117.445312 71.722656 C 71.355469 107.113281 77.851562 116.199219 83.5 120.0625 C 89.148438 123.925781 100.496094 111.007812 112.871094 100.910156 C 122.722656 92.878906 140.855469 97.503906 140.855469 97.503906 C 180.039062 103.640625 209.621094 71.359375 209.621094 71.359375 C 227.394531 49.441406 264.65625 68.226562 264.65625 68.226562 C 333.855469 96.089844 345.933594 172.929688 345.933594 172.929688 C 344.546875 142.835938 334.605469 112.800781 315.527344 86.636719 C 263.738281 15.625 164.179688 0.0351562 93.160156 51.835938 C 61.285156 75.085938 40.570312 107.953125 32.113281 143.550781 Z M 32.113281 143.550781 " fill-opacity="1" fill-rule="nonzero"/><path fill="#042c3c" d="M 278.429688 235.746094 C 272.078125 224.03125 268.671875 209.804688 267.417969 203.734375 C 265.375 193.175781 262.992188 179.945312 262.460938 177.269531 C 261.585938 172.894531 266.246094 156.566406 262.460938 154.820312 C 258.667969 153.074219 247.011719 167.066406 247.011719 167.066406 C 243.511719 165.3125 237.101562 167.066406 237.101562 167.066406 C 237.101562 167.066406 231.5625 146.363281 226.894531 146.363281 C 222.234375 146.363281 219.316406 169.398438 219.316406 169.398438 C 214.070312 168.8125 205.035156 175.515625 205.035156 181.640625 C 205.035156 193.011719 199.785156 193.304688 197.449219 195.636719 C 195.117188 197.96875 196.578125 204.089844 199.203125 211.378906 C 201.828125 218.664062 210.28125 218.085938 214.945312 219.25 C 217.40625 219.871094 218.078125 222.753906 218.167969 225.347656 C 218.058594 226.515625 217.980469 227.761719 217.96875 229.039062 C 217.9375 233.042969 215.894531 235.945312 214.816406 237.203125 C 214.027344 237.871094 213.15625 238.636719 213.15625 238.636719 C 202.816406 246.933594 200.3125 263.835938 199.777344 273.25 C 204.785156 272.222656 216.414062 270.695312 221.359375 270.695312 C 225.492188 270.695312 229.644531 271.0625 233.699219 271.777344 L 234.011719 271.835938 L 234.277344 271.910156 C 234.464844 271.960938 239.351562 273.25 245 273.25 C 248.574219 273.25 253.515625 272.71875 256.757812 270.183594 C 259.695312 267.882812 262.617188 265.394531 265.433594 262.984375 C 273.914062 255.742188 280.679688 249.96875 287.207031 249.554688 C 283.902344 244.539062 280.882812 239.730469 278.429688 235.746094 Z M 278.429688 235.746094 " fill-opacity="1" fill-rule="nonzero"/><path fill="#042c3c" d="M 172.40625 209.488281 C 169.878906 199.109375 170.101562 186.144531 170.105469 186.097656 C 170.761719 179.558594 174.246094 176.761719 190.710938 172.839844 C 209.5 168.363281 209.179688 142.207031 208.46875 133.015625 C 208.46875 133.015625 208.222656 131.539062 207.589844 131.046875 C 206.953125 130.554688 205.199219 130.902344 205.199219 130.902344 C 192.425781 134.878906 173.289062 132.542969 173.289062 132.542969 C 161.40625 112.652344 148.925781 111.148438 137.226562 112.292969 C 125.527344 113.4375 88.59375 142.34375 96.621094 154.042969 C 104.652344 165.738281 123.242188 176.597656 130.570312 176.980469 C 138.332031 177.382812 135.03125 157.480469 135.03125 157.480469 C 133.414062 146.882812 131.695312 141.277344 131.328125 136.710938 C 130.710938 128.902344 140.183594 127.773438 140.183594 127.773438 C 131.246094 129.449219 134.242188 138.902344 134.242188 138.902344 C 142.675781 175.03125 138.25 177.242188 131.058594 179.359375 C 124.265625 181.359375 106.851562 169.105469 106.851562 169.105469 C 106.851562 169.105469 106.890625 172.300781 106.949219 176.355469 C 107.011719 200.914062 99.082031 216.402344 97.015625 220.023438 C 96.855469 220.296875 96.699219 220.5625 96.539062 220.824219 C 96.539062 220.824219 96.523438 220.851562 96.523438 220.851562 C 94.472656 224.300781 92.449219 227.636719 90.863281 230.085938 C 88.066406 234.414062 75.714844 250.195312 64.859375 263.914062 C 77.292969 279.539062 92.628906 291.292969 110.710938 298.996094 L 110.953125 299.101562 L 111.191406 299.222656 C 111.324219 299.296875 125.371094 306.59375 139.3125 306.585938 C 147.742188 306.585938 154.027344 304 158.515625 298.683594 L 158.636719 298.539062 L 158.769531 298.398438 C 159.042969 298.113281 165.589844 291.304688 176.460938 284.519531 C 181.34375 281.476562 186.34375 278.90625 191.398438 276.835938 C 200.867188 264.152344 184.648438 240.691406 183 238.15625 C 178.503906 231.246094 174.335938 216.816406 172.40625 209.488281 Z M 172.40625 209.488281 " fill-opacity="1" fill-rule="nonzero"/></svg>